<?xml version="1.0" standalone="no"?>
<!DOCTYPE svg PUBLIC "-//W3C//DTD SVG 20010904//EN"
 "http://www.w3.org/TR/2001/REC-SVG-20010904/DTD/svg10.dtd">
<svg version="1.0" xmlns="http://www.w3.org/2000/svg"
 width="369.000000pt" height="156.000000pt" viewBox="0 0 369.000000 156.000000"
 preserveAspectRatio="xMidYMid meet">

<g transform="translate(0.000000,156.000000) scale(0.100000,-0.100000)"
fill="#000000" stroke="none">
<path d="M1122 1473 c401 -2 1055 -2 1455 0 401 1 73 2 -727 2 -800 0 -1128
-1 -728 -2z"/>
<path d="M350 1445 c-13 -14 -22 -26 -19 -28 2 -1 16 10 31 25 15 15 23 28 19
28 -4 0 -18 -11 -31 -25z"/>
<path d="M3338 1442 c15 -15 29 -26 31 -25 6 4 -41 53 -50 53 -4 0 4 -13 19
-28z"/>
<path d="M324 1255 c0 -82 2 -115 3 -72 2 43 2 110 0 150 -1 40 -3 5 -3 -78z"/>
<path d="M3374 1255 c0 -82 2 -115 3 -72 2 43 2 110 0 150 -1 40 -3 5 -3 -78z"/>
<path d="M576 1351 c-11 -17 -76 -190 -76 -201 0 -21 30 -9 36 15 6 22 11 25
55 25 43 0 51 -3 61 -25 6 -14 19 -25 29 -25 14 0 11 15 -25 108 -40 100 -63
131 -80 103z m48 -108 c7 -21 4 -23 -28 -23 -41 0 -42 5 -20 58 l15 37 13 -25
c8 -14 17 -35 20 -47z"/>
<path d="M717 1354 c-4 -4 -7 -54 -7 -111 0 -85 3 -103 15 -103 12 0 15 14 15
67 0 75 6 74 41 -9 13 -32 29 -58 35 -58 6 0 24 30 41 68 l31 67 1 -67 c1 -53
4 -68 16 -68 12 0 15 19 15 110 0 140 -14 146 -62 25 -18 -47 -36 -85 -39 -85
-3 0 -22 37 -41 82 -35 80 -47 96 -61 82z"/>
<path d="M960 1250 l0 -110 70 0 c56 0 70 3 70 15 0 12 -13 15 -55 15 l-55 0
0 35 0 35 50 0 c38 0 50 4 50 15 0 11 -12 15 -50 15 -49 0 -50 1 -50 30 0 30
1 30 55 30 44 0 53 3 49 15 -5 11 -22 15 -70 15 l-64 0 0 -110z"/>
<path d="M1120 1250 c0 -91 3 -110 15 -110 11 0 15 11 15 40 0 38 2 40 31 40
26 0 33 -5 46 -40 11 -27 22 -40 35 -40 22 0 22 1 1 45 -16 33 -16 37 0 64 38
65 1 111 -89 111 l-54 0 0 -110z m115 40 c0 -34 -1 -35 -42 -38 l-43 -3 0 41
0 41 43 -3 c41 -3 42 -4 42 -38z"/>
<path d="M1300 1250 c0 -103 1 -110 20 -110 19 0 20 7 20 110 0 103 -1 110
-20 110 -19 0 -20 -7 -20 -110z"/>
<path d="M1425 1351 c-63 -26 -83 -125 -36 -175 30 -32 72 -41 107 -24 32 15
48 46 18 33 -74 -31 -114 -9 -114 65 0 73 40 96 113 65 12 -5 17 -3 17 8 0 8
-14 20 -31 26 -37 13 -46 13 -74 2z"/>
<path d="M1616 1351 c-11 -17 -76 -190 -76 -201 0 -21 30 -9 36 15 6 22 11 25
55 25 43 0 51 -3 61 -25 6 -14 19 -25 29 -25 14 0 11 15 -25 108 -40 100 -63
131 -80 103z m48 -108 c7 -21 4 -23 -28 -23 -41 0 -42 5 -20 58 l15 37 13 -25
c8 -14 17 -35 20 -47z"/>
<path d="M1760 1250 c0 -90 3 -110 15 -110 11 0 15 18 17 82 l3 82 60 -82 c84
-115 95 -112 95 28 0 90 -3 110 -15 110 -11 0 -15 -18 -17 -82 l-3 -83 -60 82
c-84 115 -95 112 -95 -27z"/>
<path d="M2050 1250 l0 -110 70 0 c56 0 70 3 70 15 0 12 -13 15 -55 15 l-55 0
0 35 0 35 50 0 c38 0 50 4 50 15 0 11 -12 15 -50 15 -49 0 -50 1 -50 30 0 30
1 30 55 30 44 0 53 3 49 15 -5 11 -22 15 -70 15 l-64 0 0 -110z"/>
<path d="M2210 1349 c0 -6 14 -31 32 -55 l31 -44 -31 -44 c-18 -24 -32 -49
-32 -55 0 -25 29 -8 55 30 l27 42 27 -42 c26 -41 51 -54 51 -25 0 8 -11 30
-25 48 -14 18 -25 39 -25 46 0 7 11 28 25 46 26 33 33 64 15 64 -5 0 -23 -18
-39 -41 l-30 -40 -27 40 c-25 39 -54 54 -54 30z"/>
<path d="M2390 1250 c0 -91 3 -110 15 -110 10 0 15 10 15 30 0 29 2 30 45 30
57 0 95 32 95 80 0 19 -9 40 -25 55 -20 21 -34 25 -85 25 l-60 0 0 -110z m124
64 c19 -18 20 -38 6 -65 -8 -14 -21 -19 -55 -19 l-45 0 0 50 0 50 39 0 c23 0
46 -7 55 -16z"/>
<path d="M2580 1250 c0 -91 3 -110 15 -110 11 0 15 11 15 40 0 38 2 40 31 40
26 0 33 -5 46 -40 11 -27 22 -40 35 -40 22 0 22 1 1 45 -16 33 -16 37 0 64 38
65 1 111 -89 111 l-54 0 0 -110z m115 40 c0 -34 -1 -35 -42 -38 l-43 -3 0 41
0 41 43 -3 c41 -3 42 -4 42 -38z"/>
<path d="M2760 1250 l0 -110 70 0 c56 0 70 3 70 15 0 12 -13 15 -55 15 l-55 0
0 35 0 35 50 0 c38 0 50 4 50 15 0 11 -12 15 -50 15 -49 0 -50 1 -50 30 0 30
1 30 55 30 44 0 53 3 49 15 -5 11 -22 15 -70 15 l-64 0 0 -110z"/>
<path d="M2963 1350 c-45 -18 -41 -80 7 -105 37 -19 43 -30 30 -55 -7 -13 -21
-20 -40 -20 -23 0 -28 -4 -23 -16 8 -22 62 -11 86 17 29 36 22 66 -24 94 -51
33 -50 60 1 60 39 0 59 16 32 27 -23 9 -43 8 -69 -2z"/>
<path d="M3103 1350 c-45 -18 -41 -80 7 -105 37 -19 43 -30 30 -55 -7 -13 -21
-20 -40 -20 -23 0 -28 -4 -23 -16 8 -22 62 -11 86 17 29 36 22 66 -24 94 -51
33 -50 60 1 60 39 0 59 16 32 27 -23 9 -43 8 -69 -2z"/>
<path d="M330 1091 c0 -9 49 -56 53 -50 1 2 -10 16 -25 31 -15 15 -28 23 -28
19z"/>
<path d="M3338 1068 c-15 -15 -23 -28 -19 -28 9 0 56 49 50 53 -2 1 -16 -10
-31 -25z"/>
<path d="M3523 1029 c-29 -11 -53 -25 -53 -30 0 -5 -15 -18 -32 -29 -32 -19
-53 -20 -834 -20 -688 0 -803 -2 -814 -15 -6 -7 -32 -17 -56 -21 -38 -5 -44
-10 -44 -30 l0 -24 900 0 901 0 -3 -281 -3 -281 -37 -34 -38 -34 -1565 0
-1565 0 -38 34 -37 34 0 246 0 246 33 32 32 33 492 3 c488 3 492 3 515 24 l23
22 -22 23 -21 23 -487 0 -487 0 -48 32 c-44 29 -57 33 -142 36 l-93 4 0 -511
0 -511 1845 0 1845 0 0 525 0 525 -57 -1 c-33 0 -81 -9 -110 -20z"/>
<path d="M1122 1033 c401 -2 1055 -2 1455 0 401 1 73 2 -727 2 -800 0 -1128
-1 -728 -2z"/>
<path d="M692 720 c-46 -28 -62 -73 -62 -175 0 -148 36 -195 150 -195 114 0
150 47 150 195 0 102 -16 147 -62 175 -45 27 -131 27 -176 0z m123 -75 c22
-21 25 -33 25 -94 0 -102 -26 -143 -78 -126 -29 8 -42 49 -42 126 0 61 3 73
25 94 13 14 29 25 35 25 6 0 22 -11 35 -25z"/>
<path d="M450 694 c-25 -20 -54 -42 -64 -50 -17 -11 -18 -17 -8 -39 14 -31 27
-31 68 0 18 14 35 25 38 25 3 0 7 -62 8 -137 l3 -138 35 0 35 0 3 188 2 187
-37 0 c-28 0 -49 -9 -83 -36z"/>
<path d="M3300 709 c0 -16 -4 -19 -20 -14 -14 5 -20 2 -20 -9 0 -10 9 -16 22
-16 20 0 20 -1 4 -19 -13 -14 -14 -21 -5 -26 7 -5 16 0 22 10 9 17 10 17 23 1
7 -10 18 -15 24 -11 8 5 6 13 -6 26 -16 18 -16 19 4 19 14 0 22 6 22 16 0 12
-6 15 -24 10 -20 -5 -23 -3 -19 14 4 14 0 20 -11 20 -10 0 -16 -8 -16 -21z"/>
<path d="M972 694 c-49 -34 -15 -124 48 -124 l29 0 -51 -80 c-51 -81 -56 -110
-18 -110 11 0 20 3 20 8 0 4 9 18 20 32 l19 25 10 -28 c18 -48 99 -59 121 -17
30 57 -4 115 -63 108 l-34 -4 54 83 c60 94 65 113 28 113 -19 0 -32 -10 -48
-37 -21 -37 -22 -37 -25 -13 -8 55 -63 77 -110 44z m58 -54 c0 -11 -4 -20 -9
-20 -14 0 -23 18 -16 30 10 17 25 11 25 -10z m106 -209 c-10 -16 -36 -13 -43
5 -8 22 18 37 36 20 7 -8 10 -19 7 -25z"/>
<path d="M1323 643 c-27 -22 -43 -63 -43 -112 0 -85 39 -131 112 -131 34 0 98
32 98 49 0 5 3 16 6 25 11 28 -41 20 -60 -9 -17 -26 -45 -32 -77 -15 -16 9
-19 22 -19 78 0 40 5 73 12 80 21 21 66 14 84 -13 10 -15 26 -25 40 -25 31 0
31 21 1 56 -31 35 -119 45 -154 17z"/>
<path d="M1601 638 c-5 -13 -25 -65 -45 -117 -20 -51 -36 -99 -36 -107 0 -25
40 -16 50 11 9 23 15 25 65 25 49 0 57 -3 67 -25 11 -24 41 -34 51 -17 4 7
-71 214 -87 240 -13 21 -56 14 -65 -10z m49 -63 c5 -14 13 -37 16 -50 6 -23 3
-25 -30 -25 -20 0 -36 1 -36 3 0 10 33 97 36 97 3 0 9 -11 14 -25z"/>
<path d="M1806 639 c-56 -44 -24 -103 69 -129 52 -15 67 -36 40 -56 -27 -20
-63 -17 -82 6 -18 21 -48 27 -58 11 -3 -5 5 -22 18 -36 46 -54 168 -40 183 21
11 44 -9 70 -72 91 -63 21 -89 47 -64 63 22 14 56 12 70 -5 16 -19 60 -20 60
-1 0 8 -12 24 -26 35 -36 28 -102 28 -138 0z"/>
<path d="M2024 647 c-2 -7 -3 -65 -2 -128 3 -110 4 -114 26 -117 21 -3 22 0
22 52 l0 56 54 0 55 0 3 -52 c3 -45 6 -53 23 -53 19 0 20 8 23 128 l3 127 -26
0 c-23 0 -25 -3 -25 -50 l0 -50 -55 0 -55 0 0 50 c0 44 -3 50 -20 50 -11 0
-23 -6 -26 -13z"/>
<path d="M2290 529 l0 -132 82 5 c69 4 84 8 100 28 21 26 24 73 4 89 -12 10
-12 16 0 40 18 37 4 78 -31 91 -15 6 -55 10 -91 10 l-64 0 0 -131z m138 62 c4
-29 -12 -41 -55 -41 -31 0 -33 2 -33 36 l0 35 43 -3 c36 -3 43 -7 45 -27z m-7
-81 c21 -12 25 -40 7 -58 -7 -7 -29 -12 -50 -12 -38 0 -38 0 -38 40 0 38 2 40
31 40 17 0 39 -5 50 -10z"/>
<path d="M2562 548 c-23 -62 -43 -120 -44 -128 -5 -24 36 -18 47 8 8 19 17 22
66 22 50 0 57 -3 67 -25 12 -26 52 -36 51 -12 0 6 -20 64 -43 127 -41 108 -45
115 -73 118 -29 3 -30 1 -71 -110z m102 -26 c7 -20 4 -22 -33 -22 -45 0 -44
-8 -10 78 l11 27 13 -31 c7 -17 16 -40 19 -52z"/>
<path d="M2813 643 c-27 -22 -43 -63 -43 -112 0 -85 39 -131 112 -131 34 0 98
32 98 49 0 5 3 16 6 25 10 26 -36 19 -62 -9 -26 -28 -51 -32 -79 -11 -16 11
-20 26 -20 74 0 35 6 66 14 76 21 25 68 20 87 -9 10 -15 26 -25 41 -25 21 0
23 3 18 23 -13 41 -41 60 -97 64 -40 3 -58 -1 -75 -14z"/>
<path d="M3034 647 c-2 -7 -3 -65 -2 -128 3 -110 4 -114 26 -117 20 -3 22 0
22 50 l0 53 51 -52 c47 -49 76 -63 92 -47 3 4 -18 35 -48 69 l-54 62 49 55
c28 31 50 59 50 62 0 3 -10 6 -22 6 -13 0 -42 -20 -70 -47 l-48 -47 0 47 c0
41 -3 47 -20 47 -11 0 -23 -6 -26 -13z"/>
</g>
</svg>
