<?xml version="1.0" encoding="utf-8"?>
<!DOCTYPE svg PUBLIC "-//W3C//DTD SVG 1.1//EN" "http://www.w3.org/Graphics/SVG/1.1/DTD/svg11.dtd">
<svg version="1.1" xmlns="http://www.w3.org/2000/svg" xmlns:xlink="http://www.w3.org/1999/xlink" x="0px" y="0px" class="Svg__icon" 
	 viewBox="0 0 46 30" enable-background="new 0 0 46 30" xml:space="preserve">
	<g>
		<rect fill="#FFFFFF" width="46" height="30"/>
		<g>
			<g>
				<path fill="#231F20" d="M4.1,13.9c0-0.2,0-0.4-0.1-0.6C4,13.1,3.9,13,3.7,12.8l1.1-0.2V16c0,0,0,0.1,0.1,0.1c0,0,0.1-0.1,0.1-0.1
					c0.1-0.1,0.2-0.2,0.3-0.3c0.1-0.1,0.3-0.2,0.4-0.3c0.2-0.1,0.4-0.1,0.5-0.1c0.3,0,0.5,0.1,0.8,0.2c0.2,0.1,0.4,0.3,0.5,0.6
					c0.1,0.2,0.2,0.5,0.3,0.8c0.1,0.3,0.1,0.6,0.1,0.8c0,0.3-0.1,0.7-0.1,1c-0.1,0.3-0.2,0.6-0.4,0.8C7.2,19.7,7,19.8,6.7,20
					s-0.6,0.2-1,0.2c-0.2,0-0.3,0-0.4,0c-0.1,0-0.3,0-0.4-0.1c-0.1,0-0.3,0-0.4-0.1c-0.1,0-0.3,0-0.4,0c0-0.5,0-0.9,0-1.3
					s0-0.9,0-1.3C4.1,17.4,4.1,13.9,4.1,13.9z M7.1,17.1C7,16.9,7,16.6,6.9,16.5c-0.1-0.2-0.2-0.3-0.4-0.5c-0.1-0.1-0.3-0.2-0.5-0.2
					c-0.4,0-0.6,0.1-0.8,0.4c-0.2,0.3-0.3,0.7-0.3,1.2v0.8c0,0.2,0,0.4,0,0.6c0,0.2,0.1,0.3,0.1,0.5s0.2,0.3,0.3,0.3
					c0.1,0.1,0.3,0.1,0.5,0.1c0.3,0,0.5-0.1,0.6-0.2c0.2-0.1,0.3-0.3,0.4-0.5C7,19,7.1,18.7,7.1,18.5c0-0.2,0.1-0.5,0.1-0.7
					C7.1,17.6,7.1,17.3,7.1,17.1z"/>
				<path fill="#231F20" d="M9.2,14.7c0-0.2,0-0.5,0-0.8c0-0.3-0.1-0.4-0.2-0.7h1.4c-0.1,0.2-0.2,0.4-0.2,0.7c0,0.3,0,0.5,0,0.8v1.7
					c0.1,0,0.3-0.1,0.4-0.2c0.1-0.1,0.3-0.2,0.4-0.3c0.1-0.2,0.3-0.3,0.4-0.4c0.1-0.2,0.3-0.3,0.4-0.5c0.3-0.3,0.5-0.6,0.7-0.8
					s0.3-0.4,0.3-0.5c0,0,0-0.1,0-0.1s0-0.1,0-0.1h1.2c-0.3,0.2-0.5,0.4-0.7,0.6c-0.2,0.2-0.4,0.4-0.6,0.7L11,16.4l1.7,2.5
					c0.1,0.2,0.3,0.4,0.4,0.6c0.2,0.2,0.3,0.4,0.5,0.6h-1.1c-0.1,0-0.2,0-0.2-0.1c-0.1-0.1-0.1-0.1-0.2-0.2l-1.8-2.9
					c0,0-0.1-0.1-0.1-0.1s-0.1-0.1-0.1-0.1s0,0,0,0c0,0,0,0,0,0.1v1.8c0,0.2,0,0.5,0,0.8s0.1,0.5,0.2,0.7H8.9
					c0.1-0.2,0.2-0.4,0.2-0.7c0-0.3,0-0.5,0-0.8L9.2,14.7L9.2,14.7z"/>
				<path fill="#231F20" d="M16.7,20.1c-0.1-0.2-0.1-0.3-0.1-0.5c0-0.1,0-0.2-0.1-0.2c0,0,0,0,0,0s0,0,0,0c-0.1,0.1-0.1,0.2-0.2,0.3
					C16.2,19.9,16.1,20,16,20c-0.1,0.1-0.2,0.1-0.3,0.2c-0.1,0-0.3,0.1-0.4,0.1c-0.4,0-0.7-0.1-0.9-0.3c-0.3-0.2-0.4-0.5-0.4-0.9
					c0-0.2,0.1-0.4,0.2-0.6c0.1-0.2,0.3-0.3,0.5-0.4c0.2-0.1,0.4-0.2,0.6-0.3c0.2-0.1,0.4-0.2,0.6-0.3c0.1-0.1,0.3-0.1,0.4-0.2
					c0.1-0.1,0.2-0.1,0.2-0.2s0.1-0.1,0.1-0.3c0-0.1,0-0.2,0-0.4c0-0.3-0.1-0.5-0.2-0.7c-0.1-0.2-0.3-0.3-0.6-0.3
					c-0.3,0-0.4,0.1-0.5,0.2c-0.1,0.1-0.2,0.2-0.2,0.3c-0.1,0.1-0.1,0.2-0.2,0.3c-0.1,0.1-0.2,0.2-0.3,0.2c-0.1,0-0.2,0-0.3-0.1
					c-0.1-0.1-0.1-0.1-0.1-0.3c0-0.2,0.1-0.3,0.2-0.4c0.1-0.1,0.3-0.2,0.4-0.3c0.2-0.1,0.4-0.1,0.6-0.2c0.2,0,0.4-0.1,0.6-0.1
					c0.2,0,0.4,0,0.5,0c0.2,0,0.3,0.1,0.4,0.1c0.1,0.1,0.2,0.2,0.3,0.3c0.1,0.1,0.1,0.3,0.1,0.4v2.3c0,0.3,0,0.6,0,0.9
					s0.1,0.6,0.3,0.8L16.7,20.1z M15.1,19.5c0.1,0.1,0.3,0.2,0.5,0.2c0.1,0,0.3,0,0.4-0.1c0.1-0.1,0.2-0.1,0.3-0.3
					c0.1-0.1,0.1-0.2,0.2-0.4s0.1-0.3,0.1-0.4v-1.1L16,17.8c-0.2,0.1-0.4,0.2-0.5,0.3c-0.1,0.1-0.3,0.2-0.4,0.3
					c-0.1,0.1-0.2,0.2-0.2,0.3c-0.1,0.1-0.1,0.2-0.1,0.4C14.9,19.1,14.9,19.3,15.1,19.5z"/>
				<path fill="#231F20" d="M19.2,16.7c0.1,0.1,0.2,0.3,0.4,0.4c0.2,0.1,0.3,0.2,0.5,0.3c0.2,0.1,0.4,0.2,0.5,0.3
					c0.2,0.1,0.3,0.3,0.4,0.4c0.1,0.2,0.2,0.4,0.2,0.6c0,0.3-0.1,0.5-0.2,0.7c-0.1,0.2-0.3,0.3-0.4,0.5c-0.2,0.1-0.4,0.2-0.6,0.3
					c-0.2,0.1-0.4,0.1-0.6,0.1c-0.2,0-0.4,0-0.6-0.1c-0.2,0-0.4-0.1-0.5-0.2c-0.1,0-0.1-0.1-0.1-0.1c0,0-0.1-0.1-0.1-0.2
					c0-0.1,0-0.3,0-0.4c0-0.1,0-0.3,0-0.4c0.1,0.1,0.2,0.3,0.2,0.3c0.1,0.1,0.2,0.2,0.3,0.3c0.1,0.1,0.2,0.1,0.3,0.2
					c0.1,0,0.3,0.1,0.4,0.1c0.3,0,0.5-0.1,0.7-0.2c0.2-0.1,0.3-0.4,0.3-0.7c0-0.2-0.1-0.4-0.1-0.5c-0.1-0.1-0.2-0.3-0.4-0.4
					c-0.1-0.1-0.3-0.2-0.5-0.3c-0.2-0.1-0.3-0.2-0.5-0.3c-0.1-0.1-0.3-0.3-0.4-0.4c-0.1-0.2-0.1-0.4-0.1-0.7c0-0.4,0.1-0.7,0.4-0.9
					c0.3-0.2,0.6-0.3,1.1-0.3c0.2,0,0.3,0,0.5,0c0.1,0,0.3,0.1,0.5,0.1c0,0,0,0,0.1,0c0,0,0.1,0,0.1,0.1c0,0.1,0,0.2,0,0.3
					c0,0.2,0,0.3,0,0.4c-0.1-0.1-0.2-0.2-0.3-0.3c-0.1-0.1-0.2-0.1-0.3-0.2c-0.1-0.1-0.2-0.1-0.3-0.1c-0.1,0-0.2,0-0.3,0
					c-0.2,0-0.4,0.1-0.5,0.1c-0.2,0.1-0.2,0.3-0.2,0.5C19.1,16.4,19.1,16.5,19.2,16.7z"/>
				<path fill="#231F20" d="M25.6,18.9c0,0.2,0,0.4,0,0.6c0,0.2,0.1,0.4,0.1,0.5h-0.9v-2.9c0-0.2,0-0.3,0-0.5c0-0.2-0.1-0.3-0.1-0.4
					c-0.1-0.2-0.2-0.3-0.3-0.3c-0.1-0.1-0.3-0.1-0.5-0.1c-0.2,0-0.4,0-0.5,0.1c-0.1,0.1-0.2,0.2-0.3,0.3c-0.1,0.1-0.1,0.3-0.1,0.5
					c0,0.2,0,0.4,0,0.5v1.7c0,0.2,0,0.4,0,0.6c0,0.2,0.1,0.4,0.2,0.5h-1.1c0.1-0.2,0.1-0.3,0.2-0.5c0-0.2,0-0.4,0-0.6v-5
					c0-0.2,0-0.4,0-0.6c0-0.2-0.1-0.3-0.2-0.4l1-0.2v3c0,0,0,0.1,0,0.1s0,0.1,0,0.1s0.1,0,0.1-0.1c0.1-0.1,0.1-0.1,0.3-0.2
					s0.3-0.1,0.4-0.2c0.2-0.1,0.4-0.1,0.5-0.1c0.4,0,0.7,0.1,0.9,0.3c0.2,0.2,0.3,0.6,0.3,1L25.6,18.9L25.6,18.9z"/>
			</g>
			<g>
				<polygon fill="#D83768" points="24.6,6 33.2,7.2 31.2,14.6 			"/>
				<path fill="#D83768" d="M33.5,7.2l6.4,8.8l-7.4,3.7l-0.9-3.9c0,0-0.3-1.4,0.1-2.5L33.5,7.2z"/>
				<polygon fill="#B01117" points="40.2,16 37.8,12.5 41.8,11.8 			"/>
				<polygon fill="#B01117" points="42.1,11.8 43.6,13.5 41.4,13.5 			"/>
				<polygon fill="#D83A2B" points="33.8,19.4 39.9,16.3 39.7,17.1 			"/>
				<polygon fill="#9D0B0F" points="31.2,15.4 28.6,24.2 32.5,21.1 			"/>
				<polygon fill="#B01117" points="27.9,10.8 25.5,7.5 24.5,7.6 			"/>
				<path fill="#C3161C" d="M31.6,15.3c0,0.3,0.1,0.5,0.1,0.5l0.9,3.9L40,16l-0.1-0.1L31.6,15.3z"/>
			</g>
		</g>
	</g>
</svg>

