<svg xmlns="http://www.w3.org/2000/svg" xmlns:xlink="http://www.w3.org/1999/xlink"  width="290" height="200"
viewBox="0 0 290 200">
    <g>
        <path fill="#f2f2f2" d="M200.9,83.4c1.3,1.3,1.3,2.6,1.3,4.4l-4.8,26.4c0,1.3-0.9,2.6-1.8,3.5c-1.3,0.9-2.2,1.3-4,1.3h-70l-1.3,7.5
            h66.5c1.8,0,3.1,0.4,4,1.8c1.3,0.9,1.8,2.6,1.8,4c0,1.8-0.4,3.1-1.8,4c-1.3,0.9-2.6,1.8-4,1.8h-73.6c-1.8,0-3.1-0.9-4.4-2.2
            s-1.8-3.1-1.3-4.8l2.6-16.3l-4.8-46.3L91.6,64c-1.3-0.4-2.6-1.3-3.1-2.6c-0.9-1.3-0.9-2.6-0.4-4.4c0.4-1.3,1.3-2.6,3.1-3.5
            c1.3-0.4,2.6-0.4,4,0l17.6,5.3c1.3,0,2.2,0.9,2.6,1.8c0.9,0.9,1.3,1.8,1.3,3.1l0.9,9.3l79.3,8.4C198.7,81.2,200,82.1,200.9,83.4
            M122,141.1c2.6,0,4.8,0.9,6.6,2.6c1.8,1.8,2.6,3.5,2.6,6.2s-0.9,4.4-2.6,6.2c-1.8,1.8-4,2.6-6.6,2.6s-4.8-0.9-6.6-2.6
            c-1.8-1.8-2.6-4-2.6-6.2s0.9-4.4,2.6-6.2C117.2,142,119.4,141.1,122,141.1 M175.8,141.1c2.6,0,4.8,0.9,6.6,2.6
            c1.8,1.8,2.6,4,2.6,6.2c0,2.6-0.9,4.4-2.6,6.2c-1.8,1.8-4,2.6-6.6,2.6s-4.8-0.9-6.6-2.6c-1.3-1.8-2.2-4-2.2-6.2s0.9-4.4,2.6-6.2
            C171.4,142,173.6,141.1,175.8,141.1"/>
        <g>
            <path fill="#f2f2f2" d="M131.3,64.8l-2.3-2.3c-0.7-0.7-0.7-1.9,0-2.6l2.3-2.3c0.7-0.7,1.9-0.7,2.6,0l2.3,2.3c0.7,0.7,0.7,1.9,0,2.6l-2.3,2.3
                C133.2,65.5,132.1,65.5,131.3,64.8z M131.2,62.4l0.3,0.3c0.6,0.6,1.7,0.6,2.3,0l0.3-0.3c0.6-0.6,0.6-1.7,0-2.3l-0.3-0.3
                c-0.6-0.6-1.7-0.6-2.3,0l-0.3,0.3C130.5,60.7,130.5,61.7,131.2,62.4z"/>
        </g>
        <g>
            <path fill="#f2f2f2" d="M161,178.5L161,178.5c-1.6,0-3-1-3.4-2.5c-1.1-3.3-4.3-3.7-8-3.7s-6.6,0.4-7.6,3.7c-0.5,1.5-1.9,2.5-3.4,2.5h0
                c-2.5,0-4.2-2.4-3.4-4.7c2-6.2,7.8-10.7,14.7-10.7c6.9,0,12.7,4.5,14.7,10.7C165.2,176.1,163.5,178.5,161,178.5z"/>
        </g>
        <g>
            <path fill="#f2f2f2" d="M163.7,59.9l3.5-1.3c1.4-0.5,1.4-2.6-0.1-3l-3.3-1c-0.5-0.2-0.8-0.5-1-1l-1.4-3.9c-0.5-1.4-2.6-1.4-3,0.1l-1.2,3.7
                c-0.2,0.5-0.5,0.9-1,1l-3.7,1.2c-1.5,0.5-1.5,2.5-0.1,3l3.9,1.4c0.5,0.2,0.8,0.5,1,1l1,3.3c0.5,1.5,2.5,1.5,3,0.1l1.3-3.5
                C162.9,60.5,163.3,60.1,163.7,59.9z"/>
        </g>
        <g>
            <path fill="#f2f2f2" d="M166.9,28.3l2.1-0.8c0.9-0.3,0.8-1.5,0-1.8l-2-0.6c-0.3-0.1-0.5-0.3-0.6-0.6l-0.9-2.4c-0.3-0.9-1.5-0.8-1.8,0l-0.7,2.2
                c-0.1,0.3-0.3,0.5-0.6,0.6l-2.2,0.7c-0.9,0.3-0.9,1.5,0,1.8l2.4,0.9c0.3,0.1,0.5,0.3,0.6,0.6l0.6,2c0.3,0.9,1.5,0.9,1.8,0l0.8-2.1
                C166.5,28.6,166.7,28.4,166.9,28.3z"/>
        </g>
        <g>
            <path fill="#f2f2f2" d="M180.6,49.5l1-0.4c0.4-0.1,0.4-0.7,0-0.9l-0.9-0.3c-0.1,0-0.2-0.1-0.3-0.3l-0.4-1.1c-0.1-0.4-0.7-0.4-0.9,0l-0.3,1
                c0,0.1-0.2,0.2-0.3,0.3l-1,0.3c-0.4,0.1-0.4,0.7,0,0.9l1.1,0.4c0.1,0,0.2,0.2,0.3,0.3l0.3,0.9c0.1,0.4,0.7,0.4,0.9,0l0.4-1
                C180.4,49.6,180.5,49.5,180.6,49.5z"/>
        </g>
        <g>
            <path fill="#f2f2f2" d="M185.4,72.3h-5.1c-0.6,0-1-0.7-0.7-1.2l2.5-4.4c0.3-0.6,1.1-0.6,1.4,0l2.5,4.4C186.5,71.7,186.1,72.3,185.4,72.3z
                M181.8,70.9h2.2c0.2,0,0.3-0.2,0.2-0.3l-0.8-1.4c-0.2-0.4-0.7-0.4-0.9,0l-0.8,1.4C181.5,70.7,181.6,70.9,181.8,70.9z"/>
        </g>
        <g>
            <path fill="#f2f2f2" d="M146.3,41.8h-2.5c-0.7,0-1.3-0.5-1.6-1.2l-0.5-1.6c-0.2-0.6,0-1.3,0.5-1.7L144,36c0.6-0.5,1.4-0.5,2,0l1.7,1.4
                c0.5,0.4,0.7,1.1,0.5,1.7l-0.5,1.6C147.6,41.4,147,41.8,146.3,41.8z M144.2,40.4h1.6c0.3,0,0.6-0.2,0.7-0.6l0.2-0.8
                c0.1-0.3,0-0.6-0.3-0.8l-1.1-0.8c-0.3-0.2-0.7-0.2-1,0l-1.1,0.8c-0.2,0.2-0.3,0.5-0.3,0.8l0.2,0.8
                C143.5,40.2,143.8,40.4,144.2,40.4z"/>
        </g>
    </g>
</svg>