<?xml version="1.0" encoding="utf-8"?>
<!DOCTYPE svg PUBLIC "-//W3C//DTD SVG 1.1//EN" "http://www.w3.org/Graphics/SVG/1.1/DTD/svg11.dtd">
<svg version="1.1" id="Layer_1" xmlns="http://www.w3.org/2000/svg" xmlns:xlink="http://www.w3.org/1999/xlink" x="0px" y="0px" class="Svg__icon" 
	 viewBox="0 0 152 30" enable-background="new 0 0 152 30" xml:space="preserve">
	<g>
		<g>
			<path fill="#FFCFB4" d="M26.7,20.2c-1.4,0-2.8-0.2-4.2-0.3c-1.4-0.1-2.9-0.1-4.3-0.6c-0.4-0.2-0.4-0.8,0.1-0.8
				c3.7,0,7.5,0.5,11.2,0.3c0.7,0,2,0,2.7-0.5c1.2-0.8-0.6-1.9-1.4-2.2c-0.7-0.2-1.3-0.3-2-0.4c-0.4,0.1-0.8,0.1-1.2,0.1
				c-2.6,0.2-5.4-0.2-8-0.7c-0.5-0.1-0.4-0.8,0.1-0.8c2.5,0,5.1,0.4,7.6,0.2c0.9-0.1,4.7-0.4,3.1-2.4c-0.6-0.8-3-1-4-1.1
				c-2.1-0.2-4.6-0.1-6.7-0.8c-1.3-0.5-1.8-1.6-0.7-2.6c0.6-0.5,1.5-0.7,2.2-1.2c0.4-0.4,1-0.9,1.3-1.4c0.8-1.5-0.3-2.8-1.9-2.5
				c-2.5,0.5-4.1,2.9-6.3,4S9.8,8.1,7.4,8C7.2,8,7,8,6.7,8c-0.9,0-2-0.5-2.9-0.4c-2,0.2-1.4,3.3-1.4,4.9c0,1.7,0.2,3.4,0.3,5.1
				c0,1,0.1,2,0.2,3c0.2,1.2,0.4,2.3,1.8,2.3c1.9,0.1,4.1-0.4,5.9,0.3c1.6,0.6,2.4,2.3,3.8,3.1c1.9,1.1,4.5,1.3,6.7,1.3s5-0.2,5.9-2.4
				c-0.9,0-1.8-0.1-2.6-0.2c-2.7-0.2-5.2-0.5-7.8-1.2c-0.3-0.1-0.2-0.5,0.1-0.5c3-0.1,6.1,0.3,9.1,0.3c1.2,0,3.2,0.3,4.3-0.3
				c0.5-0.3,0.8-1.2,0.6-1.7C30.5,20,27.9,20.2,26.7,20.2z"/>
			<path fill="#71D182" d="M61,10.1c0-1.2,0.2-3.5-1.3-3.6c-2.9-0.2-5.7,0-8.6,0c-3.1,0-6.2,0-9.4-0.1c-3.3-0.1-6.6-0.3-9.9-0.3
				c-2.7,0-5.4-0.3-8.1-0.3l0,0c-0.4,0.7-1,1.3-1.7,1.7c-0.5,0.3-1,0.5-1.5,0.7c-0.1,0.1-0.3,0.1-0.4,0.2c-0.3,0.3-0.4,0-0.1,0.3
				s1.1,0.2,1.4,0.3c0.8,0.1,1.7,0.2,2.5,0.3c1.9,0.2,10.2,0.6,8.1,4.4c-0.3,0.5-0.7,0.9-1.1,1.1c0.4,0.1,0.8,0.3,1.2,0.4
				c1.3,0.7,2.9,2.8,1.2,3.9c-0.6,0.4-1.4,0.6-2.2,0.8c0.4,0.3,0.8,0.7,1,1c0.9,1.4,0.2,2.9-1.3,3.6C30,24.9,29,25,28,25
				c0,1-0.3,1.7-0.9,2.2c0.7-0.1,1.5-0.2,2.2-0.2c1.5-0.1,3,0,4.4-0.1c3.2-0.1,6.5,0.1,9.7,0.1c3.3,0,6.6,0,9.9,0c1.6,0,3.2,0,4.8,0
				c0.7,0,1.5,0,1.9-0.7c0.5-0.7,0.5-2.3,0.7-3.1c0.4-3,0.5-6.1,0.3-9C61,12.9,61,11.5,61,10.1z M44.8,8c1.2-0.1,2.4,0.1,3.6,0.2
				c1.2,0,2.4,0.1,3.6,0.1c2.3,0,4.5-0.1,6.8,0c0.3,0,0.3,0.4,0.1,0.5c-1,0.4-2.1,0.3-3.2,0.3c-1.2,0-2.4,0-3.6,0
				c-2.4,0-4.8-0.2-7.2-0.6C44.4,8.5,44.5,8,44.8,8z M30.7,8.3c-2,0-4.2,0.2-6.1-0.3c-0.2-0.1-0.3-0.4,0-0.5c1.9-0.4,4.2-0.1,6.1-0.1
				c1.8,0,3.6,0,5.4,0.2c0.3,0,0.3,0.5,0,0.5C34.3,8.4,32.5,8.3,30.7,8.3z M46.3,18.1c-0.4,3.3-3.7,5.4-6.8,4.5s-4.8-4.7-4-7.7
				c0.5-1.7,1.4-3.4,3.1-4.2C43.1,8.2,46.8,14.1,46.3,18.1z M46.9,10c1-0.1,2,0.1,3,0.2c1,0,2,0.1,3.1,0.1c1.9,0,3.9-0.1,5.8,0
				c0.3,0,0.3,0.4,0.1,0.5c-0.9,0.4-1.8,0.3-2.7,0.3c-1,0-2.1,0-3.1,0c-2,0-4.1-0.2-6.2-0.6C46.5,10.5,46.6,10.1,46.9,10z M58.8,25.2
				c-0.6,1-2.5,0.7-3.5,0.7s-2.5,0.2-3.5-0.3C51,25.2,51,24.5,51,23.7c0.1-0.8,0.2-1.6,0.8-2.1c0.9-0.6,2.7-0.2,3.7-0.2
				c0.8,0,2.2-0.2,2.9,0.2c0.1,0.1,0.2,0.1,0.2,0.2l0,0C59.4,22.5,59.2,24.5,58.8,25.2z"/>
			<path fill="#00AA79" d="M39,11.5c-1.4,0.8-2.2,2.2-2.6,3.7c-0.6,2.5,0.8,6,3.6,6.7c3.3,0.8,5.8-2.1,5.5-5.2
				C45.2,13.4,42.6,9.5,39,11.5z"/>
			<path fill="#00AA79" d="M55.4,22.3c-0.6,0-1.3-0.1-1.9,0c-0.9,0.1-1.9,0.8-1.6,1.9c0.3,1.1,3,0.9,4,0.8c1,0,2.5-0.2,2.5-1.5
				C58.5,21.8,56.5,22.3,55.4,22.3z"/>
			<path d="M30.1,19.4"/>
			<path d="M62.5,12.6c0-1.7,0-3.3-0.2-5c-0.1-0.8-0.2-1.7-1-2.2c-1-0.6-2.9-0.4-4-0.4c-1.5,0-3,0-4.4,0.1C49.2,5.1,45.6,5,42,5
				c-3.3,0-6.6-0.3-10-0.3c-2.7,0-5.3-0.3-8-0.3c0-0.2,0-0.5,0-0.7C24.1,2,22.9,1,21.2,1c-2,0.1-3.5,1.2-4.9,2.4
				c-1.8,1.5-4,2.8-6.4,3.2c-1.2,0.3-2.5,0.2-3.8,0c-1-0.2-1.9-0.5-2.9-0.5c-0.1,0-0.1,0-0.1,0s0,0-0.1,0C1.3,6.2,1,7.8,1,9.2
				c-0.1,3.6,0.1,7.4,0.5,10.9c0.2,1.3,0.3,3.3,1.7,3.9c1.8,0.8,4.2,0.1,6.1,0.3c2.3,0.2,3.2,2.5,5.3,3.4c1.8,0.8,3.8,1.1,5.8,1.2
				c1.5,0.1,3.7,0,5.4-0.6c1.5,0.4,3.3,0,4.9,0.1c1.8,0.1,3.7,0,5.5,0c4.2,0.2,8.5,0.1,12.7,0.1c3.5,0,7.2,0.3,10.7-0.1
				c2.6-0.3,2.6-3.7,2.9-5.7C62.7,19.4,62.5,16,62.5,12.6z M21.2,27.6c-2.2,0-4.7-0.2-6.7-1.3c-1.4-0.8-2.2-2.5-3.8-3.1
				c-1.8-0.6-4-0.2-5.9-0.3c-1.4-0.1-1.7-1.1-1.8-2.3c-0.1-1-0.2-2-0.2-3c-0.1-1.7-0.3-3.4-0.3-5.1c0-1.5-0.6-4.7,1.4-4.9
				C4.7,7.5,5.8,8,6.7,8C7,8,7.2,8,7.4,8c2.3,0.1,4.7-0.4,6.8-1.5c2.2-1.1,3.8-3.6,6.3-4c1.6-0.3,2.7,1.1,1.9,2.5
				c-0.3,0.5-0.9,1-1.3,1.3C20.5,6.8,19.6,7,19,7.5c-1.1,0.9-0.6,2.1,0.7,2.6c2,0.8,4.5,0.6,6.7,0.8c1,0.1,3.4,0.3,4,1.1
				c1.6,2-2.1,2.4-3.1,2.4c-2.5,0.2-5.1-0.2-7.6-0.2c-0.5,0-0.6,0.7-0.1,0.8c2.5,0.5,5.4,0.9,8,0.7c0.4,0,0.8-0.1,1.2-0.1
				c0.7,0.1,1.4,0.2,2,0.4c0.8,0.3,2.7,1.3,1.4,2.2c-0.6,0.4-2,0.4-2.7,0.5c-3.7,0.3-7.5-0.3-11.2-0.3c-0.5,0-0.5,0.7-0.1,0.8
				c1.4,0.5,2.9,0.5,4.3,0.6c1.4,0.1,2.8,0.3,4.2,0.3c1.2,0,3.8-0.2,4.2,1.4c0.1,0.6-0.1,1.4-0.6,1.7c-1.1,0.6-3.1,0.3-4.3,0.3
				c-3,0-6.1-0.4-9.1-0.3c-0.3,0-0.4,0.5-0.1,0.5c2.6,0.6,5.1,1,7.8,1.2c0.8,0.1,1.7,0.1,2.6,0.2C26.2,27.4,23.4,27.6,21.2,27.6z
				M60.8,23.4c-0.1,0.8-0.2,2.4-0.7,3.1s-1.2,0.7-1.9,0.7c-1.6,0-3.2,0-4.8,0c-3.3,0-6.6,0-9.9,0c-3.2,0-6.5-0.2-9.7-0.1
				c-1.5,0.1-3,0-4.4,0.1c-0.7,0-1.5,0.2-2.2,0.2c0.6-0.6,0.9-1.3,0.9-2.2c1,0,1.9-0.2,2.8-0.5c1.5-0.6,2.1-2.2,1.3-3.6
				c-0.2-0.4-0.6-0.7-1-1c0.8-0.1,1.6-0.4,2.2-0.8c1.7-1.1,0.1-3.3-1.2-3.9c-0.4-0.2-0.8-0.3-1.2-0.4c0.5-0.3,0.9-0.7,1.1-1.1
				c2-3.8-6.2-4.2-8.1-4.4c-0.8-0.1-1.7-0.2-2.5-0.3c-0.3,0-1.2,0-1.4-0.3c-0.3-0.3-0.3,0,0.1-0.3c0.1-0.1,0.3-0.2,0.4-0.2
				C21,8,21.5,7.8,21.9,7.6c0.7-0.5,1.3-1,1.7-1.7l0,0c2.7,0,5.4,0.3,8.1,0.3c3.3,0,6.6,0.2,9.9,0.3c3.1,0,6.2,0.1,9.4,0.1
				c2.9,0,5.7-0.2,8.6,0c1.5,0.1,1.3,2.4,1.3,3.6c0,1.4,0,2.8,0.1,4.2C61.3,17.3,61.2,20.4,60.8,23.4z"/>
			<path d="M38.5,10.7c-1.6,0.9-2.6,2.5-3.1,4.2c-0.8,3,0.9,6.8,4,7.7c3.1,0.9,6.4-1.2,6.8-4.5C46.8,14.1,43.1,8.2,38.5,10.7z
				M39.9,21.8c-2.7-0.7-4.2-4.1-3.6-6.7c0.4-1.5,1.3-2.9,2.6-3.7c3.6-2,6.2,1.9,6.5,5.1C45.7,19.8,43.3,22.6,39.9,21.8z"/>
			<path d="M58.9,21.9L58.9,21.9c-0.1-0.1-0.2-0.2-0.3-0.2c-0.8-0.4-2.1-0.2-2.9-0.2c-1,0-2.8-0.4-3.7,0.2c-0.7,0.5-0.8,1.3-0.8,2.1
				c-0.1,0.8,0,1.5,0.8,1.9c0.9,0.4,2.5,0.3,3.5,0.3c0.9,0,2.9,0.3,3.5-0.7C59.2,24.5,59.4,22.5,58.9,21.9z M52,24.2
				c-0.3-1,0.7-1.8,1.6-1.9c0.6-0.1,1.3,0,1.9,0c1.1,0,3.1-0.5,3,1.2c0,1.3-1.5,1.5-2.5,1.5C55,25,52.3,25.3,52,24.2z"/>
			<path d="M44.7,8.5c2.4,0.4,4.8,0.6,7.2,0.6c1.2,0,2.4,0,3.6,0c1.1,0,2.2,0.1,3.2-0.3c0.3-0.1,0.3-0.5,0-0.5c-2.2,0-4.5,0-6.8,0
				c-1.2,0-2.4-0.1-3.6-0.1c-1.2,0-2.4-0.3-3.6-0.2C44.5,8,44.4,8.5,44.7,8.5z"/>
			<path d="M56.1,11.1c0.9,0,1.8,0.1,2.7-0.3c0.2-0.1,0.2-0.5-0.1-0.5c-1.9,0-3.8,0-5.8,0c-1,0-2-0.1-3.1-0.1c-1,0-2-0.3-3-0.2
				c-0.2,0-0.3,0.5-0.1,0.5c2,0.4,4.1,0.6,6.2,0.6C54,11.1,55,11.1,56.1,11.1z"/>
			<path d="M36.1,7.7c-1.8-0.2-3.6-0.3-5.4-0.2c-2,0-4.2-0.3-6.1,0.1c-0.3,0.1-0.2,0.4,0,0.5c1.9,0.5,4.1,0.3,6.1,0.3
				c1.8,0,3.6,0.1,5.4-0.1C36.4,8.2,36.4,7.7,36.1,7.7z"/>
		</g>
		<g>
			<g>
				<path d="M72.6,4.5c-1.1,0-2,0.4-2.6,1.3c-0.6,0.8-0.9,2-0.9,3.5c0,3.1,1.2,4.7,3.5,4.7c1,0,2.2-0.2,3.6-0.7v2.5
					c-1.2,0.5-2.4,0.7-3.9,0.7c-2,0-3.6-0.6-4.7-1.9c-1.1-1.2-1.6-3-1.6-5.3c0-1.5,0.3-2.7,0.8-3.8s1.3-1.9,2.3-2.5s2.2-0.9,3.5-0.9
					c1.4,0,2.7,0.3,4.1,1l-1,2.4c-0.5-0.2-1.1-0.5-1.6-0.7C73.6,4.6,73.1,4.5,72.6,4.5z"/>
				<path d="M87.8,16.3l-1-3.3h-5.1l-1,3.3h-3.2l5-14.1H86l5,14.1H87.8z M86,10.4c-0.9-3-1.5-4.8-1.6-5.1c-0.1-0.4-0.2-0.7-0.3-0.9
					c-0.2,0.8-0.8,2.9-1.8,6.1H86V10.4z"/>
				<path d="M101,12.4c0,1.3-0.5,2.3-1.4,3c-0.9,0.7-2.2,1.1-3.8,1.1c-1.5,0-2.8-0.3-4-0.8v-2.8c0.9,0.4,1.8,0.7,2.4,0.9
					c0.7,0.2,1.3,0.3,1.8,0.3c0.7,0,1.2-0.1,1.5-0.4s0.5-0.6,0.5-1.1c0-0.3-0.1-0.5-0.2-0.7c-0.2-0.2-0.4-0.4-0.7-0.6s-0.9-0.5-1.8-1
					c-0.9-0.4-1.5-0.8-1.9-1.2s-0.8-0.8-1-1.3C92.2,7.3,92,6.7,92,6c0-1.2,0.4-2.2,1.3-2.9c0.8-0.7,2-1.1,3.5-1.1
					c0.7,0,1.4,0.1,2.1,0.3s1.4,0.4,2.1,0.7l-1,2.3c-0.8-0.3-1.4-0.5-1.9-0.6s-1-0.2-1.4-0.2c-0.6,0-1,0.1-1.3,0.4s-0.5,0.6-0.5,1
					c0,0.3,0.1,0.5,0.2,0.7s0.3,0.4,0.6,0.6c0.3,0.2,0.9,0.5,1.9,1c1.3,0.6,2.2,1.3,2.7,1.9C100.8,10.7,101,11.5,101,12.4z"/>
				<path d="M115.1,16.3h-3v-6.1h-5.6v6.1h-3V2.2h3v5.5h5.6V2.2h3V16.3z"/>
				<path d="M134.5,9.2c0,2.3-0.6,4.1-1.7,5.4c-1.2,1.3-2.8,1.9-5,1.9s-3.8-0.6-5-1.9s-1.7-3-1.7-5.4s0.6-4.1,1.7-5.4
					c1.2-1.2,2.8-1.9,5-1.9s3.8,0.6,5,1.9C133.9,5.1,134.5,6.9,134.5,9.2z M124.2,9.2c0,1.6,0.3,2.8,0.9,3.6c0.6,0.8,1.5,1.2,2.7,1.2
					c2.4,0,3.6-1.6,3.6-4.7c0-3.2-1.2-4.8-3.6-4.8c-1.2,0-2.1,0.4-2.7,1.2C124.5,6.5,124.2,7.7,124.2,9.2z"/>
				<path d="M149.9,16.3h-3.8L140,5.6h-0.1c0.1,1.9,0.2,3.2,0.2,4v6.6h-2.7v-14h3.8l6.1,10.5h0.1c-0.1-1.8-0.1-3.1-0.1-3.9V2.2h2.7
					v14.1H149.9z"/>
			</g>
			<g>
				<path d="M96.5,23.7c0,1.6-0.4,2.8-1.3,3.6c-0.9,0.8-2.2,1.2-3.9,1.2h-2.7V19h3c1.6,0,2.8,0.4,3.6,1.2C96.1,21,96.5,22.2,96.5,23.7
					z M94.5,23.7c0-2-0.9-3.1-2.7-3.1h-1.1v6.2h0.9C93.5,26.8,94.5,25.8,94.5,23.7z"/>
				<path d="M104,28.5h-5.5V19h5.5v1.7h-3.5v2.1h3.2v1.7h-3.2v2.4h3.5V28.5z"/>
				<path d="M106,28.5V19h2v7.8h3.9v1.7H106z"/>
				<path d="M113.5,28.5V19h2v9.5H113.5z"/>
				<path d="M123.3,19h2l-3.2,9.5h-2.2l-3.2-9.5h2l1.8,5.7c0.1,0.3,0.2,0.7,0.3,1.2c0.1,0.4,0.2,0.8,0.2,0.9c0-0.4,0.2-1.1,0.5-2.1
					L123.3,19z"/>
				<path d="M132,28.5h-5.5V19h5.5v1.7h-3.5v2.1h3.2v1.7h-3.2v2.4h3.5V28.5z"/>
				<path d="M136,24.9v3.6h-2V19h2.8c1.3,0,2.2,0.2,2.9,0.7c0.6,0.5,0.9,1.2,0.9,2.1c0,0.6-0.2,1.1-0.5,1.5s-0.7,0.8-1.3,1
					c1.4,2.1,2.4,3.5,2.8,4.1h-2.2l-2.3-3.6L136,24.9L136,24.9z M136,23.2h0.6c0.6,0,1.1-0.1,1.4-0.3c0.3-0.2,0.5-0.5,0.5-1
					s-0.2-0.8-0.5-1s-0.8-0.3-1.4-0.3H136V23.2z"/>
				<path d="M145.7,22.9l2-3.9h2.2l-3.2,5.8v3.7h-2v-3.6l-3.2-5.9h2.2L145.7,22.9z"/>
			</g>
			<g>
				<path d="M70.9,25.7h-6.1c-0.4,0-0.7,0.3-0.7,0.7c0,0.4,0.3,0.7,0.7,0.7h6.1c0.4,0,0.7-0.3,0.7-0.7C71.6,26.1,71.3,25.7,70.9,25.7z
					"/>
				<path d="M71.6,22.8H67c-0.4,0-0.7,0.3-0.7,0.7c0,0.4,0.3,0.7,0.7,0.7h4.6c0.4,0,0.7-0.3,0.7-0.7C72.4,23.1,72,22.8,71.6,22.8z"/>
				<path d="M73.1,20.5c0-0.4-0.3-0.7-0.7-0.7h-3.1c-0.4,0-0.7,0.3-0.7,0.7c0,0.4,0.3,0.7,0.7,0.7h3.1C72.8,21.3,73.1,20.9,73.1,20.5z
					"/>
				<path d="M85.3,18.6C85,18.2,84.6,18,84.1,18h-8.5c-0.8,0-1.4,0.6-1.6,1.3l-1.2,7.8c-0.1,0.5,0.1,0.9,0.4,1.3s0.7,0.6,1.2,0.6h8.5
					c0.8,0,1.4-0.6,1.6-1.3l1.2-7.8C85.7,19.4,85.6,18.9,85.3,18.6z M83,27.4c0,0.1-0.1,0.1-0.1,0.1h-8.5h-0.1v-0.1l1.2-7.8
					c0-0.1,0.1-0.1,0.1-0.1h2.7L78,21.4c0,0.1,0,0.3,0.1,0.4s0.2,0.2,0.4,0.2h1.7c0.2,0,0.4-0.2,0.5-0.4l0.4-2.1h3h0.1v0.1L83,27.4z"
					/>
				<path fill="#FFD24A" d="M83,27.4c0,0.1-0.1,0.1-0.1,0.1h-8.5h-0.1v-0.1l1.2-7.8c0-0.1,0.1-0.1,0.1-0.1h2.7L78,21.4
					c0,0.1,0,0.3,0.1,0.4s0.2,0.2,0.4,0.2h1.7c0.2,0,0.4-0.2,0.5-0.4l0.4-2.1h3h0.1v0.1L83,27.4z"/>
			</g>
		</g>
	</g>
</svg>
