<?xml version="1.0" encoding="utf-8"?>
<!DOCTYPE svg PUBLIC "-//W3C//DTD SVG 1.1//EN" "http://www.w3.org/Graphics/SVG/1.1/DTD/svg11.dtd">
<svg version="1.1" id="Layer_1" xmlns="http://www.w3.org/2000/svg" xmlns:xlink="http://www.w3.org/1999/xlink" x="0px" y="0px" class="Svg__icon" 
	 viewBox="0 0 46 30" enable-background="new 0 0 46 30" xml:space="preserve">
	<g id="Page-1_2_">
		<g id="american-express" transform="translate(-1.000000, 0.000000)">
			<g>
				<path fill="#306FC5" d="M1.1,30h46V0C44.6,0,14,0,1.1,0V30z"/>
				<path fill="#306FC5" d="M47,0L47,0"/>
			</g>
			<path id="Shape_5_" fill="#FFFFFF" d="M5.2,11L4.3,8.7L3.4,11H5.2z M24.8,10.1c-0.2,0.1-0.4,0.1-0.7,0.1h-1.6V8.9h1.6
				c0.2,0,0.5,0,0.6,0.1c0.2,0.1,0.3,0.3,0.3,0.5C25.1,9.8,25,10,24.8,10.1C24.8,10.1,25,10,24.8,10.1L24.8,10.1L24.8,10.1z M36.1,11
				l-0.9-2.3L34.3,11H36.1L36.1,11L36.1,11L36.1,11z M15.1,13.4h-1.3V9l-1.9,4.4h-1.1L8.8,9v4.4H6.2l-0.5-1.3H3l-0.5,1.3H1.1l2.3-5.7
				h1.9l2.2,5.4V7.8h2.1l1.7,3.8l1.6-3.8h2.2L15.1,13.4L15.1,13.4L15.1,13.4L15.1,13.4z M20.4,13.4h-4.3V7.8h4.3v1.2h-3v1h3v1.2h-3
				v1.1h3V13.4L20.4,13.4L20.4,13.4L20.4,13.4z M26.5,9.3c0,0.9-0.6,1.4-0.9,1.5c0.3,0.1,0.5,0.3,0.6,0.5c0.2,0.3,0.2,0.5,0.2,1.1
				v1.1h-1.3v-0.7c0-0.3,0-0.8-0.2-1.1c-0.2-0.2-0.5-0.2-0.9-0.2h-1.4v2.1h-1.3V7.8h3c0.7,0,1.1,0,1.6,0.3
				C26.3,8.3,26.5,8.6,26.5,9.3C26.5,9.3,26.5,8.6,26.5,9.3L26.5,9.3L26.5,9.3z M28.6,13.4h-1.3V7.8h1.3V13.4L28.6,13.4L28.6,13.4
				L28.6,13.4z M44,13.4h-1.8l-2.5-4.3v4.3h-2.6l-0.5-1.3h-2.7l-0.5,1.3h-1.5c-0.6,0-1.4-0.1-1.9-0.6c-0.5-0.5-0.7-1.1-0.7-2.2
				c0-0.8,0.1-1.6,0.7-2.2c0.4-0.5,1.1-0.7,2-0.7h1.3V9h-1.2c-0.5,0-0.7,0.1-1,0.3c-0.2,0.2-0.4,0.7-0.4,1.3c0,0.6,0.1,1,0.3,1.3
				c0.2,0.2,0.6,0.3,0.9,0.3h0.6l1.8-4.5h2l2.2,5.4V7.8h2l2.3,4v-4H44V13.4L44,13.4L44,13.4L44,13.4z M1.1,14.6h2.2l0.5-1.3h1.1
				l0.5,1.3h4.4v-1l0.4,1h2.3l0.4-1v1h10.9v-2.1h0.2c0.1,0,0.2,0,0.2,0.3v1.8h5.6v-0.5c0.5,0.2,1.1,0.5,2.1,0.5h2.4l0.5-1.3h1.1
				l0.5,1.3h4.6v-1.2l0.7,1.2h3.6V6.6h-3.6v0.9L41,6.6h-3.7v0.9l-0.5-0.9h-5c-0.8,0-1.6,0.1-2.2,0.4V6.6h-3.4v0.4
				c-0.4-0.4-0.9-0.4-1.5-0.4H12.1l-0.8,2l-0.9-2h-4v0.9L6,6.6H2.6l-1.6,3.8V14.6L1.1,14.6z M47,18.8h-2.4c-0.2,0-0.4,0-0.5,0.1
				c-0.1,0.1-0.2,0.2-0.2,0.4c0,0.2,0.1,0.4,0.3,0.4c0.1,0.1,0.3,0.1,0.5,0.1l0.7,0c0.7,0,1.2,0.1,1.5,0.4c0.1,0,0.1,0.1,0.1,0.2
				L47,18.8L47,18.8z M47,22.5c-0.3,0.5-0.9,0.7-1.8,0.7h-2.5V22h2.5c0.3,0,0.4,0,0.5-0.2c0.1-0.1,0.1-0.2,0.1-0.4
				c0-0.2-0.1-0.3-0.2-0.4C45.7,21,45.5,21,45.3,21c-1.2,0-2.8,0-2.8-1.8c0-0.8,0.5-1.7,1.9-1.7H47v-1.1h-2.4c-0.7,0-1.3,0.2-1.6,0.4
				v-0.4h-3.6c-0.6,0-1.2,0.1-1.6,0.4v-0.4h-6.3v0.4c-0.5-0.4-1.4-0.4-1.8-0.4h-4.2v0.4c-0.4-0.4-1.3-0.4-1.8-0.4H19L18,17.6l-1-1.2
				h-7v7.9h6.9l1.1-1.2l1,1.2h4.3v-1.9h0.4c0.6,0,1.2,0,1.8-0.3v2.1H29v-2.1h0.2c0.2,0,0.2,0,0.2,0.2v1.8H40c0.7,0,1.4-0.2,1.8-0.5
				v0.5h3.4c0.7,0,1.4-0.1,1.9-0.4L47,22.5L47,22.5L47,22.5L47,22.5z M41.8,20.2c0.3,0.3,0.4,0.6,0.4,1.2c0,1.2-0.7,1.8-2,1.8h-2.5
				V22h2.5c0.3,0,0.4,0,0.5-0.2c0.1-0.1,0.1-0.2,0.1-0.4c0-0.2-0.1-0.3-0.2-0.4C40.6,21,40.4,21,40.2,21c-1.2,0-2.7,0-2.7-1.8
				c0-0.8,0.5-1.7,1.9-1.7H42v1.2h-2.4c-0.2,0-0.4,0-0.5,0.1c-0.1,0.1-0.2,0.2-0.2,0.4c0,0.2,0.1,0.4,0.3,0.4
				c0.1,0.1,0.3,0.1,0.5,0.1l0.7,0C41,19.8,41.5,19.9,41.8,20.2C41.8,20.2,41.5,19.9,41.8,20.2L41.8,20.2L41.8,20.2z M30.1,19.9
				C29.9,20,29.7,20,29.5,20h-1.6v-1.3h1.6c0.2,0,0.5,0,0.6,0.1c0.2,0.1,0.3,0.3,0.3,0.5C30.4,19.6,30.3,19.8,30.1,19.9
				C30.1,19.9,30.3,19.8,30.1,19.9L30.1,19.9L30.1,19.9z M30.9,20.6c0.3,0.1,0.5,0.3,0.6,0.5c0.2,0.3,0.2,0.5,0.2,1v1.1h-1.3v-0.8
				c0-0.3,0-0.8-0.2-1.1c-0.2-0.2-0.5-0.2-0.9-0.2h-1.4v2.1h-1.3v-5.7h3c0.7,0,1.1,0,1.6,0.3c0.4,0.3,0.7,0.6,0.7,1.3
				C31.8,20,31.2,20.4,30.9,20.6C30.9,20.6,31.2,20.4,30.9,20.6L30.9,20.6L30.9,20.6z M32.5,17.5h4.3v1.2h-3v1h3v1.2h-3V22h3v1.2
				h-4.3V17.5L32.5,17.5L32.5,17.5L32.5,17.5z M23.7,20.2h-1.7v-1.4h1.7c0.5,0,0.8,0.2,0.8,0.7C24.6,19.9,24.2,20.2,23.7,20.2
				L23.7,20.2L23.7,20.2L23.7,20.2z M20.8,22.7l-2-2.3l2-2.3V22.7L20.8,22.7L20.8,22.7L20.8,22.7z M15.6,22h-3.2v-1.1h2.8v-1.2h-2.8
				v-1h3.3l1.4,1.6L15.6,22L15.6,22L15.6,22L15.6,22z M26,19.4c0,1.6-1.1,1.9-2.3,1.9h-1.6v1.9h-2.5l-1.6-1.9l-1.7,1.9h-5.2v-5.7h5.2
				l1.6,1.9l1.7-1.9h4.1C24.8,17.5,26,17.8,26,19.4C26,19.4,26,17.8,26,19.4L26,19.4L26,19.4z"/>
		</g>
	</g>
</svg>
