<?xml version="1.0" encoding="utf-8"?>
<!DOCTYPE svg PUBLIC "-//W3C//DTD SVG 1.1//EN" "http://www.w3.org/Graphics/SVG/1.1/DTD/svg11.dtd">
<svg version="1.1" id="Layer_1" xmlns="http://www.w3.org/2000/svg" xmlns:xlink="http://www.w3.org/1999/xlink" x="0px" y="0px" class="Svg__icon"
	 viewBox="0 0 46 30" enable-background="new 0 0 46 30" xml:space="preserve">
	<g>
		<rect fill="#FFFFFF" width="46" height="30"/>
		<g id="XMLID_21_">
			
				<linearGradient id="XMLID_7_" gradientUnits="userSpaceOnUse" x1="9.1538" y1="19.76" x2="36.9253" y2="19.76" gradientTransform="matrix(1 0 0 -1 0 32)">
				<stop  offset="0" style="stop-color:#949494"/>
				<stop  offset="5.501115e-02" style="stop-color:#A6A6A6"/>
				<stop  offset="0.165" style="stop-color:#D5D5D5"/>
				<stop  offset="0.2527" style="stop-color:#FFFFFF"/>
				<stop  offset="0.3697" style="stop-color:#CACACA"/>
				<stop  offset="0.5142" style="stop-color:#8F8F8F"/>
				<stop  offset="0.621" style="stop-color:#6A6A6A"/>
				<stop  offset="0.6774" style="stop-color:#5C5C5C"/>
				<stop  offset="0.7181" style="stop-color:#636464"/>
				<stop  offset="0.7796" style="stop-color:#787878"/>
				<stop  offset="0.8543" style="stop-color:#9A9A9A"/>
				<stop  offset="0.9386" style="stop-color:#C9C9C9"/>
				<stop  offset="1" style="stop-color:#EFF0F0"/>
			</linearGradient>
			<path id="XMLID_6_" fill="url(#XMLID_7_)" d="M37.7,12.2c0,4.9-6.5,8.8-14.5,8.8c-8,0-14.5-3.9-14.5-8.8c0-4.8,6.5-8.8,14.5-8.8
				C31.2,3.5,37.7,7.4,37.7,12.2z"/>
			<g id="XMLID_22_">
				<g>
					<defs>
						<ellipse id="SVGID_1_" cx="23.2" cy="11.4" rx="14.5" ry="8.9"/>
					</defs>
					<clipPath id="SVGID_2_">
						<use xlink:href="#SVGID_1_"  overflow="visible"/>
					</clipPath>
					
						<linearGradient id="XMLID_8_" gradientUnits="userSpaceOnUse" x1="23.2013" y1="30.4263" x2="23.2013" y2="10.9684" gradientTransform="matrix(1 0 0 -1 0 32)">
						<stop  offset="0" style="stop-color:#C1C3C5"/>
						<stop  offset="0.2361" style="stop-color:#E0E1E2"/>
						<stop  offset="0.4462" style="stop-color:#FFFFFF"/>
						<stop  offset="0.7296" style="stop-color:#CACBCD"/>
						<stop  offset="1" style="stop-color:#9C9EA1"/>
					</linearGradient>
					
						<ellipse id="XMLID_5_" clip-path="url(#SVGID_2_)" fill="url(#XMLID_8_)" stroke="#C4C4C5" stroke-width="0.1306" stroke-miterlimit="10" cx="23.2" cy="11.4" rx="14.5" ry="8.9"/>
				</g>
				<g>
					<defs>
						<ellipse id="SVGID_3_" cx="23.2" cy="11.4" rx="14.5" ry="8.9"/>
					</defs>
					<clipPath id="SVGID_4_">
						<use xlink:href="#SVGID_3_"  overflow="visible"/>
					</clipPath>
					<g id="XMLID_24_" clip-path="url(#SVGID_4_)">
						<path id="XMLID_4_" fill="#E8232A" d="M27.8,20c-0.4,0.1-0.8,0.1-1.1,0.2c-0.8,0.1-1.7,0.2-2.5,0.2c-0.2,0-0.4,0-0.5,0
							c0,0-0.1,0-0.1-0.1c-1.8-1.7-3.5-3.6-4.9-5.7c-0.4-0.7-0.8-1.3-1.1-2.1c-0.5-1.2-0.3-2.3,0.4-3.4c0.5-0.8,1.3-1.5,2.1-2.1
							c1.2-0.9,2.5-1.6,3.8-2.3c1.5-0.7,3-1.3,4.6-1.9c0.1,0,0.2,0,0.3,0c0.3,0.1,0.7,0.2,1,0.3c-0.3,0.1-0.5,0.2-0.7,0.3
							c-1.8,0.7-3.5,1.5-5.1,2.5c-0.9,0.6-1.7,1.2-2.3,2c-0.5,0.6-0.9,1.2-1.1,2c-0.1,0.6-0.1,1.3,0.2,1.9c0.3,0.8,0.8,1.5,1.4,2.3
							c1,1.3,2.1,2.5,3.3,3.6c0.8,0.8,1.6,1.4,2.4,2.2C27.7,19.9,27.7,19.9,27.8,20z"/>
						<path id="XMLID_3_" fill="#214595" d="M22.1,20.4c-0.3,0-0.6,0-0.9,0c-0.6-0.1-1.1-0.1-1.7-0.2c-0.7-0.1-1.5-0.3-2.2-0.4
							c0,0-0.1,0-0.1-0.1c-1.3-1.6-2.5-3.2-3.4-5.1c-0.3-0.7-0.6-1.4-0.7-2.2c-0.1-0.9,0.1-1.6,0.5-2.4c0.5-0.8,1.1-1.4,1.8-2
							c1.1-0.9,2.2-1.6,3.4-2.3c2.4-1.3,4.9-2.3,7.5-3.2c0.4-0.1,0.7-0.1,1.1,0c0.2,0,0.3,0.1,0.5,0.1c-0.3,0.1-0.5,0.2-0.8,0.3
							c-2,0.8-4.1,1.7-5.9,2.8c-1.1,0.6-2.1,1.3-3,2.2c-0.5,0.5-0.9,1-1.3,1.5c-0.6,1-0.7,2-0.3,3.1c0.3,1,0.9,1.9,1.4,2.8
							c1,1.5,2.1,2.8,3.3,4.2C21.6,19.8,21.8,20.1,22.1,20.4z"/>
						<path id="XMLID_2_" fill="#08974A" d="M32.5,18.4c-0.4,0.1-0.7,0.3-1,0.5c-0.8,0.3-1.6,0.6-2.4,0.8c-0.1,0-0.1,0-0.2,0
							c-1.7-1.4-3.4-2.8-4.9-4.4c-0.8-0.9-1.6-1.8-2.2-2.8c-0.2-0.5-0.4-0.9-0.5-1.3c-0.1-0.8,0-1.5,0.3-2.2c0.4-0.7,0.9-1.3,1.5-1.8
							c1-0.9,2.2-1.6,3.5-2.3c1.1-0.6,2.3-1.1,3.4-1.5c0.1,0,0.2,0,0.3,0c0.3,0.1,0.6,0.2,1,0.4c-0.4,0.2-0.7,0.3-1,0.4
							c-1.4,0.6-2.6,1.2-3.8,2.2c-0.7,0.5-1.3,1.2-1.8,1.9c-0.3,0.6-0.5,1.3-0.5,2c0,0.5,0.3,1,0.5,1.5c0.5,0.8,1,1.4,1.6,2
							c1.2,1.2,2.6,2.3,3.9,3.2c0.7,0.5,1.4,1,2.1,1.4C32.5,18.3,32.5,18.3,32.5,18.4z"/>
					</g>
				</g>
			</g>
		</g>
		<g>
			<path d="M4.9,22.3h1.2c1.4,0,2.2,0.9,2.2,2.7c0,1.8-0.8,2.7-2.2,2.7H4.9C4.9,27.7,4.9,22.3,4.9,22.3z M6.1,27c0.9,0,1.4-0.6,1.4-2
				S7,23.1,6.1,23.1H5.7V27H6.1z"/>
			<path d="M9.3,22.3h1.5c0.9,0,1.6,0.3,1.6,1.4c0,0.5-0.2,1-0.6,1.2v0c0.5,0.1,0.9,0.6,0.9,1.3c0,1.1-0.7,1.6-1.8,1.6H9.3V22.3z
				M10.7,24.5c0.6,0,0.9-0.3,0.9-0.8c0-0.5-0.3-0.7-0.9-0.7h-0.6v1.5L10.7,24.5L10.7,24.5z M10.8,27c0.7,0,1.1-0.3,1.1-0.9
				c0-0.6-0.4-0.8-1.1-0.8h-0.7V27H10.8z"/>
			<path d="M13.5,22.3h1.5c0.9,0,1.6,0.3,1.6,1.4c0,0.5-0.2,1-0.6,1.2v0c0.5,0.1,0.9,0.6,0.9,1.3c0,1.1-0.7,1.6-1.8,1.6h-1.6V22.3z
				M14.9,24.5c0.6,0,0.9-0.3,0.9-0.8c0-0.5-0.3-0.7-0.9-0.7h-0.6v1.5L14.9,24.5L14.9,24.5z M15,27c0.7,0,1.1-0.3,1.1-0.9
				c0-0.6-0.4-0.8-1.1-0.8h-0.7V27H15z"/>
			<path d="M17.7,22.3h0.8v4.6h1.9v0.8h-2.7L17.7,22.3L17.7,22.3z"/>
			<path d="M22.6,22.3h0.8l1.4,3.1l0.5,1.1h0c0-0.6-0.1-1.3-0.1-1.9v-2.4H26v5.4h-0.8l-1.4-3.1l-0.5-1.1h0c0,0.6,0.1,1.2,0.1,1.8v2.4
				h-0.8V22.3z"/>
			<path d="M27.2,22.3h2.8v0.8h-2v1.4h1.6v0.8H28v1.6h2v0.8h-2.8C27.2,27.7,27.2,22.3,27.2,22.3z"/>
			<path d="M31.7,24.9l-1.2-2.6h0.9l0.5,1.2c0.1,0.2,0.2,0.5,0.3,0.8h0c0.1-0.3,0.2-0.6,0.3-0.8l0.5-1.2H34L32.8,25l1.3,2.8h-0.9
				l-0.5-1.3c-0.1-0.3-0.2-0.6-0.4-0.9h-0.1c-0.1,0.3-0.2,0.6-0.3,0.9l-0.5,1.3h-0.9L31.7,24.9z"/>
			<path d="M34.6,25.4v-3.1h0.8v3.1c0,1.2,0.4,1.6,0.9,1.6c0.5,0,0.9-0.4,0.9-1.6v-3.1h0.8v3.1c0,1.8-0.7,2.5-1.7,2.5
				C35.3,27.8,34.6,27.1,34.6,25.4z"/>
			<path d="M38.9,27l0.5-0.7c0.3,0.4,0.8,0.6,1.2,0.6c0.5,0,0.8-0.3,0.8-0.7c0-0.4-0.3-0.6-0.7-0.8L40,25.1c-0.5-0.2-0.9-0.7-0.9-1.4
				c0-0.9,0.6-1.5,1.6-1.5c0.5,0,1.1,0.3,1.4,0.7l-0.4,0.6c-0.3-0.3-0.6-0.5-1-0.5c-0.4,0-0.7,0.2-0.7,0.6c0,0.4,0.3,0.6,0.7,0.8
				l0.6,0.3c0.5,0.3,0.9,0.7,0.9,1.5c0,0.9-0.6,1.6-1.6,1.6C39.9,27.8,39.3,27.5,38.9,27z"/>
		</g>
	</g>
</svg>
