<?xml version="1.0" encoding="utf-8"?>
<!DOCTYPE svg PUBLIC "-//W3C//DTD SVG 1.1//EN" "http://www.w3.org/Graphics/SVG/1.1/DTD/svg11.dtd">
<svg version="1.1" id="Layer_1" xmlns="http://www.w3.org/2000/svg" xmlns:xlink="http://www.w3.org/1999/xlink" x="0px" y="0px" class="Svg__icon" 
	 viewBox="0 0 46 30" enable-background="new 0 0 46 30" xml:space="preserve">
	<g id="Page-1_1_">
		<g id="Master" transform="translate(-1.000000, 0.000000)">
			<g>
				<path fill="#265697" d="M1,30h46V0C44.6,0,13.9,0,1,0V30z"/>
				<path fill="#265697" d="M47,0L47,0"/>
			</g>
			<path id="path2268" fill="#DFAC16" d="M44,15.1c0,7-5.3,12.6-12,12.6s-12-5.6-12-12.6l0,0c0-7,5.3-12.6,12-12.6
				C38.6,2.5,44,8.2,44,15.1L44,15.1L44,15.1L44,15.1L44,15.1z"/>
			<path id="path1350" fill="#BF3126" d="M15.9,2.5C9.3,2.6,4,8.2,4,15.1c0,7,5.3,12.6,12,12.6c3.1,0,5.9-1.3,8.1-3.3l0,0l0,0
				c0.4-0.4,0.8-0.9,1.2-1.4h-2.4c-0.3-0.4-0.6-0.8-0.9-1.3h4.2c0.3-0.4,0.5-0.9,0.7-1.4h-5.6c-0.2-0.4-0.3-0.9-0.5-1.3h6.6
				c0.4-1.3,0.6-2.6,0.6-4c0-0.9-0.1-1.8-0.3-2.7h-7.3c0.1-0.4,0.2-0.9,0.3-1.3h6.6c-0.1-0.4-0.3-0.9-0.5-1.4h-5.6
				c0.2-0.4,0.4-0.9,0.7-1.3h4.2c-0.3-0.5-0.6-0.9-0.9-1.3h-2.4c0.4-0.4,0.8-0.9,1.2-1.3c-2.1-2-4.9-3.3-8-3.3
				C15.9,2.5,15.9,2.5,15.9,2.5C15.9,2.5,15.9,2.5,15.9,2.5L15.9,2.5L15.9,2.5z"/>
			<path id="path4157" fill="#FFFFFF" d="M20.3,18.4l0.2-1.1c-0.1,0-0.2,0-0.3,0c-0.4,0-0.5-0.2-0.5-0.4l0.3-2.3h0.7l0.2-1.3h-0.6
				l0.1-0.8h-1.3c0,0-0.7,4.4-0.7,4.9c0,0.8,0.4,1.1,1,1.1C19.8,18.5,20.1,18.4,20.3,18.4C20.3,18.4,20.1,18.4,20.3,18.4L20.3,18.4
				L20.3,18.4z"/>
			<path id="path4155" fill="#FFFFFF" d="M20.7,16.2c0,1.9,1.2,2.3,2.2,2.3c0.9,0,1.4-0.2,1.4-0.2l0.2-1.3c0,0-0.7,0.3-1.4,0.3
				c-1.4,0-1.1-1.1-1.1-1.1h2.6c0,0,0.2-0.9,0.2-1.2c0-0.9-0.4-1.9-1.8-1.9C21.6,13.1,20.7,14.6,20.7,16.2
				C20.7,16.2,20.7,14.6,20.7,16.2L20.7,16.2L20.7,16.2z M22.9,14.3c0.7,0,0.6,0.8,0.6,0.9h-1.4C22.1,15.1,22.2,14.3,22.9,14.3
				C22.9,14.3,22.2,14.3,22.9,14.3L22.9,14.3L22.9,14.3z"/>
			<path id="path4151" fill="#FFFFFF" d="M31,18.4l0.2-1.5c0,0-0.6,0.3-1.1,0.3c-0.9,0-1.3-0.7-1.3-1.5c0-1.6,0.8-2.5,1.6-2.5
				c0.7,0,1.2,0.4,1.2,0.4l0.2-1.4c0,0-0.8-0.3-1.4-0.3c-1.5,0-2.9,1.4-2.9,3.9c0,1.7,0.8,2.8,2.3,2.8C30.3,18.5,31,18.4,31,18.4
				L31,18.4L31,18.4L31,18.4z"/>
			<path id="path4149" fill="#FFFFFF" d="M13.3,13.1c-0.9,0-1.6,0.3-1.6,0.3l-0.2,1.2c0,0,0.5-0.2,1.4-0.2c0.5,0,0.8,0.1,0.8,0.4
				c0,0.2,0,0.3,0,0.3s-0.4,0-0.5,0c-1.1,0-2.3,0.5-2.3,2c0,1.2,0.7,1.4,1.2,1.4c0.9,0,1.3-0.6,1.3-0.6l0,0.5h1.1l0.5-3.7
				C15,13.2,13.7,13.1,13.3,13.1L13.3,13.1L13.3,13.1L13.3,13.1z M13.5,16.1c0,0.2-0.1,1.3-0.9,1.3c-0.4,0-0.5-0.3-0.5-0.5
				c0-0.4,0.2-0.8,1.1-0.8C13.5,16.1,13.5,16.1,13.5,16.1C13.5,16.1,13.5,16.1,13.5,16.1L13.5,16.1L13.5,16.1z"/>
			<path id="path4145" fill="#FFFFFF" d="M16.2,18.5c0.3,0,1.9,0.1,1.9-1.7c0-1.7-1.5-1.3-1.5-2c0-0.3,0.3-0.4,0.7-0.4
				c0.2,0,0.9,0.1,0.9,0.1l0.2-1.2c0,0-0.5-0.1-1.2-0.1c-0.9,0-1.9,0.4-1.9,1.7c0,1.5,1.6,1.4,1.6,2c0,0.4-0.5,0.5-0.8,0.5
				c-0.6,0-1.1-0.2-1.1-0.2l-0.2,1.2C14.8,18.4,15.1,18.5,16.2,18.5C16.2,18.5,15.1,18.5,16.2,18.5L16.2,18.5L16.2,18.5z"/>
			<path id="path4139" fill="#FFFFFF" d="M41.5,12l-0.3,1.8c0,0-0.5-0.7-1.2-0.7c-1.2,0-2.1,1.5-2.1,3.2c0,1.1,0.5,2.2,1.6,2.2
				c0.8,0,1.2-0.6,1.2-0.6l-0.1,0.5h1.2l1-6.4H41.5L41.5,12L41.5,12L41.5,12z M40.9,15.5c0,0.7-0.3,1.7-1,1.7c-0.5,0-0.7-0.4-0.7-1.1
				c0-1,0.4-1.7,1-1.7C40.7,14.4,40.9,14.8,40.9,15.5C40.9,15.5,40.9,14.8,40.9,15.5L40.9,15.5L40.9,15.5z"/>
			<path id="path4133" fill="#FFFFFF" d="M6.4,18.4l0.8-4.8l0.1,4.8h0.9l1.6-4.8l-0.7,4.8h1.3l1-6.4h-2L8.1,16L8,12H6.1l-1,6.4H6.4
				L6.4,18.4L6.4,18.4L6.4,18.4z"/>
			<path id="path4131" fill="#FFFFFF" d="M26,18.5c0.4-2.2,0.4-4,1.3-3.7c0.1-0.9,0.3-1.2,0.5-1.6c0,0-0.1,0-0.3,0
				c-0.6,0-1,0.8-1,0.8l0.1-0.8h-1.2l-0.8,5.2H26L26,18.5L26,18.5L26,18.5z"/>
			<path id="path4149_1_" fill="#FFFFFF" d="M33.9,13.1c-0.9,0-1.6,0.3-1.6,0.3l-0.2,1.2c0,0,0.5-0.2,1.4-0.2c0.5,0,0.8,0.1,0.8,0.4
				c0,0.2,0,0.3,0,0.3s-0.4,0-0.5,0c-1.1,0-2.3,0.5-2.3,2c0,1.2,0.7,1.4,1.2,1.4c0.9,0,1.3-0.6,1.3-0.6l0,0.5h1.1l0.5-3.7
				C35.7,13.2,34.4,13.1,33.9,13.1L33.9,13.1L33.9,13.1L33.9,13.1z M34.2,16.1c0,0.2-0.1,1.3-0.9,1.3c-0.4,0-0.5-0.3-0.5-0.5
				c0-0.4,0.2-0.8,1.1-0.8C34.1,16.1,34.1,16.1,34.2,16.1C34.2,16.1,34.1,16.1,34.2,16.1L34.2,16.1L34.2,16.1z"/>
			<path id="path4131_1_" fill="#FFFFFF" d="M36.7,18.5c0.4-2.2,0.4-4,1.3-3.7c0.1-0.9,0.3-1.2,0.5-1.6c0,0-0.1,0-0.3,0
				c-0.6,0-1,0.8-1,0.8l0.1-0.8h-1.2l-0.8,5.2H36.7L36.7,18.5L36.7,18.5L36.7,18.5z"/>
		</g>
	</g>
</svg>

