<svg xmlns="http://www.w3.org/2000/svg" xmlns:xlink="http://www.w3.org/1999/xlink"  width="30" height="30" viewBox="0 0 30 30">
  <g transform="translate(-77 -610)">
    <g>
      <g transform="translate(81.493 610)">
        <path d="M22.941,42.843A17.854,17.854,0,0,0,33.781,39.2c-.547-6.923-7.47-8.2-7.47-8.2l-3.371.729L19.57,31s-6.923,1.275-7.47,8.2A17.854,17.854,0,0,0,22.941,42.843Z" transform="translate(-12.1 -12.843)" fill="#783392"/>
        <path d="M23.457,36.466a5.356,5.356,0,0,0,5.375-4.828A11.106,11.106,0,0,0,27.01,31a3.578,3.578,0,0,1-3.644,3.553A3.637,3.637,0,0,1,19.722,31a11.105,11.105,0,0,0-1.822.638A5.673,5.673,0,0,0,23.457,36.466Z" transform="translate(-12.616 -12.827)" fill="#53166a"/>
        <path d="M30.576,22.366A1.366,1.366,0,1,1,29.209,21a1.4,1.4,0,0,1,1.366,1.366m-11.843,0a1.366,1.366,0,1,0-1.366,1.366,1.4,1.4,0,0,0,1.366-1.366" transform="translate(-12.447 -11.911)" fill="#ffa726"/>
        <path d="M23.644,34.288C20,34.288,20,30.644,20,30.644V27h7.288v3.644S27.288,34.288,23.644,34.288Z" transform="translate(-12.803 -12.464)" fill="#ff9800"/>
        <path d="M29.754,18.372C29.754,13,17,14.911,17,18.372v4.008a6.377,6.377,0,0,0,12.754,0Z" transform="translate(-12.536 -11.358)" fill="#ffb74d"/>
        <path d="M23.288,11A7.452,7.452,0,0,0,16,18.47v1.64l1.822,1.822V18.288L26.2,15.555l2.551,2.733v3.644l1.822-1.822v-.729c0-2.915-.729-6.195-4.373-6.923L25.474,11Z" transform="translate(-12.447 -11)" fill="#424242"/>
      </g>
    </g>
  </g>
</svg>