<svg xmlns="http://www.w3.org/2000/svg" xmlns:xlink="http://www.w3.org/1999/xlink"  width="112" height="16" viewBox="0 0 112 16">
    <g fill="#085da8">
        <g fill="#085da8">
            <path fill="#085da8" d="M0.5,0h11.4v16H7c0,0,0-2,0-3.2c0-1.5-1-2.8-2.3-3.2c0-1.3,0-2.5,0-3.3c-0.1-1.7,0.9-2,1.5-2
                c0.6,0,1.5,0.2,1.6,1.6c0.1,1.7-2.1,1.6-2.1,1.6v2c0,0,2.1-0.5,2.1,2c0,0.4,0,2.3,0,2.3H10v-3.1c0-1.9-1.2-2.4-1.2-2.4
                s1.2-0.5,1.2-2.7c0-0.9-0.5-3.5-3.6-3.5c-3.7,0-4,3.5-4,4.2v3c0,0-1.9,0-1.9,0V0z"/>
            <path fill="#085da8" d="M0.5,12.9c0-1.3,0.8-2.4,1.9-2.8v3.7h2.3c0,0,0-1.8,0.1-3.7c1.1,0.5,1.9,1.6,1.9,2.8
                c0,1.7-1.4,3.1-3.1,3.1C1.8,16,0.5,14.6,0.5,12.9z"/>
        </g>
        <g fill="#085da8">
            <polygon points="35,13.9 35,2.2 37.4,2.2 37.4,7 40,7 40,2.2 42.4,2.2 42.4,13.9 40,13.9 40,9.2 37.4,9.2 
                37.4,13.9 		"/>
            <rect x="44.4" y="2.2" width="2.1" height="11.7"/>
            <path fill="#085da8" d="M48.5,13.9c0,0,0-8.2,0-8.8c0-2.1,1.8-3,2.7-3c1,0,1.8,0.3,2.4,1c1.1-0.8,1.3-1,2.6-1
                c1.3,0,2.6,1.5,2.6,2.5c0,1,0,9.3,0,9.3h-2.4c0,0,0.1-8.4,0-8.8c0-0.4-0.3-0.8-0.7-0.8c-0.4,0-0.8,0.2-0.8,0.8c0,0.7,0,8.8,0,8.8
                h-2.4c0,0,0-8.3,0-8.8c0-0.5-0.4-0.8-0.8-0.8c-0.4,0-0.9,0.2-0.9,0.8c0,0.6,0,8.8,0,8.8H48.5z"/>
            <path fill="#085da8" d="M26.1,13.9c0,0,0-8.3,0-8.9c0-0.5,0.9-2.8,3.7-2.8c2.4,0,3.5,1.9,3.5,3c0,0.5,0,8.6,0,8.6H31v-2.5h-2.7
                v2.5H26.1 M31,9.1c0,0,0-3.2,0-3.6c0-0.4-0.2-1.3-1.4-1.3c-0.9,0-1.3,0.9-1.3,1.3c0,0.3,0,3.6,0,3.6H31z"/>
            <path fill="#085da8" d="M60.6,13.9c0,0,0-8.3,0-8.9c0-0.5,0.9-2.8,3.7-2.8c2.4,0,3.5,1.9,3.5,3c0,0.5,0,8.6,0,8.6h-2.3v-2.5h-2.8
                v2.5H60.6 M65.5,9.1c0,0,0-3.2,0-3.6c0-0.4-0.2-1.3-1.4-1.3c-0.9,0-1.3,0.9-1.3,1.3c0,0.3,0,3.6,0,3.6H65.5z"/>
            <path fill="#085da8" d="M77.4,13.9c0,0,0-6.7,0-7.4c0-0.8,0.3-4.2,4-4.2c3.2,0,3.6,2.6,3.6,3.5c0,2.2-1.2,2.7-1.2,2.7
                S85,8.9,85,10.8c0,0.5,0,3.1,0,3.1h-2.1c0,0,0-1.9,0-2.3c-0.1-2.5-2.2-2-2.2-2V7.6c0,0,2.2,0.1,2.1-1.6c-0.1-1.5-1-1.6-1.6-1.6
                c-0.6,0-1.6,0.3-1.5,2c0.1,2,0,7.6,0,7.6H77.4z"/>
            <path fill="#085da8" d="M16.6,13.9c0,0,0-6.7,0-7.4c0-0.8,0.3-4.2,4-4.2c3.2,0,3.6,2.6,3.6,3.5c0,2.2-1.2,2.7-1.2,2.7
                s1.2,0.5,1.2,2.4c0,0.5,0,3.1,0,3.1h-2.1c0,0,0-1.9,0-2.3c-0.1-2.5-2.1-2-2.1-2V7.6c0,0,2.2,0.1,2.1-1.6c-0.1-1.5-1-1.6-1.6-1.6
                c-0.6,0-1.6,0.3-1.5,2c0.1,2,0,7.6,0,7.6H16.6z"/>
            <path fill="#085da8" d="M69.7,13.9c0,0,0-7.4,0-8.5c0-1.1,0.6-3.2,3.5-3.2c2,0.1,2.8,1.2,3.1,1.8c-0.2,0.2-1.1,1-1.3,1.4
                c-0.4-0.7-0.8-1.1-1.6-1.1c-0.8,0-1.4,0.4-1.4,1.1c0,1,0,2.6,0,2.6h2.4v2.2h-2.4v3.8H69.7z"/>
            <polygon points="104.2,4.5 104.2,2.2 111.5,2.2 111.5,4.1 107.1,11.7 111.5,11.7 111.5,13.9 104.1,13.9 
                104.1,11.5 108.4,4.5 		"/>
            <path fill="#085da8" d="M86.6,5.9c0-0.7,0.2-3.6,3.6-3.6c3.4,0,3.6,3.3,3.6,3.8c0,0.5-0.1,3.3-0.1,4.3c0,1.1-0.2,3.4-3.7,3.4
                c-2.9,0-3.4-2.5-3.4-3.8C86.6,9.3,86.5,6.6,86.6,5.9 M89,10.5c0,0.5,0.3,1.3,1.2,1.3c1,0,1.1-0.8,1.1-1.2c0-0.4,0-4.1,0-4.7
                c0-0.6-0.1-1.5-1.1-1.6c-1,0-1.1,1.1-1.1,1.6C89,6.6,89,10.1,89,10.5z"/>
            <path fill="#085da8" d="M95.4,5.9c0-0.7,0.2-3.6,3.6-3.6c3.4,0,3.6,3.3,3.6,3.8c0,0.5-0.1,3.3-0.1,4.3c0,1.1-0.2,3.4-3.7,3.4
                c-2.9,0-3.4-2.5-3.4-3.8C95.4,9.3,95.4,6.6,95.4,5.9 M97.9,10.5c0,0.5,0.3,1.3,1.2,1.3c1,0,1.1-0.8,1.1-1.2c0-0.4,0-4.1,0-4.7
                c0-0.6-0.1-1.5-1.1-1.6c-0.9,0-1.1,1.1-1.1,1.6C97.9,6.6,97.9,10.1,97.9,10.5z"/>
        </g>
    </g>
</svg>
