<svg xmlns="http://www.w3.org/2000/svg" xmlns:xlink="http://www.w3.org/1999/xlink" width="80" height="80" viewBox="0 0 80 80">
  <g transform="translate(-1801 -3043)">
    <g transform="translate(1811 3047)">
      <g transform="translate(0)">
        <g>
          <g transform="translate(0 62.768)">
            <path fill="#e2b9a8" d="M364.64,350.471s.392,1.331,1.383,1.331a23.608,23.608,0,0,0,6.133-2.14c.183-.348-1.5-.9-1.5-.9l-3.219-.1Z" transform="translate(-361.128 -338.57)"/>
            <path fill="#f7d2bf" d="M363.862,337.06s-2.575,2.74-3.019,5.089-.226,4.123.183,4.628,2.027,2.7,2.827,2.714,5.046-.879,5.046-.879.783-.183.713-1.453a9.535,9.535,0,0,0-.557-2.531Z" transform="translate(-360.602 -337.06)"/>
          </g>
          <g transform="translate(48.956 62.768)">
            <path fill="#e2b9a8" d="M424.814,350.471s-.391,1.331-1.383,1.331a23.609,23.609,0,0,1-6.133-2.14c-.183-.348,1.5-.9,1.5-.9l3.219-.1Z" transform="translate(-417.284 -338.57)"/>
            <path fill="#f7d2bf" d="M425.369,337.06s2.575,2.74,3.019,5.089.226,4.123-.183,4.628-2.027,2.7-2.827,2.714-5.045-.879-5.045-.879-.783-.183-.713-1.453a9.54,9.54,0,0,1,.557-2.531Z" transform="translate(-417.587 -337.06)"/>
          </g>
          <path fill="#b74ede" d="M391.988,317.5l24.574-1.261a73.022,73.022,0,0,1-1.572-9.909c-.207-3.984-2.09-5.02-4.777-7.134s-12.257-5.315-12.257-5.315l-5.951-1.488v-.087l-.164.044-.164-.044v.087l-5.951,1.488s-9.57,3.193-12.257,5.315-4.569,3.149-4.776,7.134a73.024,73.024,0,0,1-1.572,9.909l24.574,1.261v.018l.147-.009.147.009Z" transform="translate(-361.45 -266.219)"/>
          <path fill="#783392" d="M388.336,293.159l-2.766,1.557s1.383,4.976,4.576,6.159a15.922,15.922,0,0,1,2.923-3.227l3.193-.079a9.1,9.1,0,0,1,2.984,3.315s3.7-2.54,4.306-5.794l-2.932-1.94Z" transform="translate(-364.031 -265.805)"/>
          <path fill="#081628" d="M405.162,274.295l-.818,1.9-.774-1.853.774-2.018A3.179,3.179,0,0,1,405.162,274.295Z" transform="translate(-366.416 -261.24)"/>
          <path fill="#e1b8a6" d="M388.23,283.929a9.976,9.976,0,0,1,.461,2.766c.061,1.653,0,5,0,5a7.509,7.509,0,0,0,6.524,3.193,6.85,6.85,0,0,0,5.768-3.219L400.9,287.1s-.078-2.871.078-4.393-4.054-.383-4.054-.383l-4.967,3.1C391.962,285.434,389.5,283.016,388.23,283.929Z" transform="translate(-364.374 -263.819)"/>
          <rect fill="#783392" width="3.271" height="12.031" transform="translate(28.926 30.823)"/>
          <path fill="#e3b9a7" d="M385.923,276.626s-.861-1.479-1.653-.774.383,1.366.7,3.027.9,1.461,1.409.992S385.923,276.626,385.923,276.626Z" transform="translate(-363.77 -262.526)"/>
          <path fill="#e3b9a7" d="M404.115,276.325s.678-1.575,1.548-.966-.209,1.409-.339,3.088S404.6,280,404.045,279.6,404.115,276.325,404.115,276.325Z" transform="translate(-366.451 -262.446)"/>
          <path fill="#081628" d="M384.83,274.642a4.2,4.2,0,0,0,.879,1.766c.583.522,1.157-2.062,1.157-2.062l-1.157-2.166Z" transform="translate(-363.881 -261.222)"/>
          <path fill="#f7d2bf" d="M394.479,262.556v-.426s-.209.069-.548.209c-.339-.13-.548-.209-.548-.209v.426c-2.679,1.1-9.291,4.21-8.142,7.525,0,0,.679,7.977,1.183,9.482a6.551,6.551,0,0,0,2.74,3.932c1.835,1.348,2.531,2.036,4.21,2.07v.009h1.088v-.009c1.679-.035,2.383-.722,4.21-2.07a6.514,6.514,0,0,0,2.74-3.932c.5-1.505,1.183-9.482,1.183-9.482C403.778,266.767,397.167,263.661,394.479,262.556Z" transform="translate(-363.966 -259.915)"/>
          <path fill="#b74ede" d="M384.795,273a19.911,19.911,0,0,1-.183-4.254c.183-1.984.548-5.376,1.644-6.211s5.715-3.367,7.716-2.9,7.455,1.8,7.951,4.567,1.279,6.29.757,8.421c0,0-.783-3.341-5.3-5.376s-9.125.992-10.378,2.349S385.526,270.837,384.795,273Z" transform="translate(-363.893 -259.584)"/>
          <path fill="#ffd10f" d="M417.2,344.832H365.276a1.24,1.24,0,0,1-1.236-1.244V318.264a1.24,1.24,0,0,1,1.236-1.244H417.2a1.24,1.24,0,0,1,1.236,1.244v25.324A1.24,1.24,0,0,1,417.2,344.832Z" transform="translate(-361.049 -271.685)"/>
          <path fill="#f9b01d" d="M376.655,343.4h-8.116a.477.477,0,0,1-.479-.479v-23.5a.477.477,0,0,1,.479-.478h8.116a.477.477,0,0,1,.478.478v23.506A.481.481,0,0,1,376.655,343.4Z" transform="translate(-361.573 -271.936)"/>
        </g>
        <g transform="translate(25.102 53.738)">
          <path fill="#783392" d="M392.377,335.658a2.915,2.915,0,0,1-2.279-.722,3.219,3.219,0,0,1-.322-2.566l.044-.287a4.464,4.464,0,0,1,1.087-2.61,3.617,3.617,0,0,1,2.418-.679h.226c.191,0,.592.017,1.183.061a.22.22,0,0,0,.279-.2l.252-1.453a.578.578,0,0,1,.618-.522h.687a.455.455,0,0,1,.383.165.489.489,0,0,1,.078.418l-1.166,6.472a2.53,2.53,0,0,1-.435,1.114,1.848,1.848,0,0,1-.957.609,5.979,5.979,0,0,1-1.757.2Zm.409-1.566a3.438,3.438,0,0,0,.87-.087.623.623,0,0,0,.383-.226,1.125,1.125,0,0,0,.174-.487l.409-2.34c.052-.27-.035-.426-.261-.487a3.709,3.709,0,0,0-.922-.1h-.165a1.524,1.524,0,0,0-1.148.348,2.881,2.881,0,0,0-.5,1.375l-.052.3a2.086,2.086,0,0,0,.035,1.366c.148.235.487.348,1.026.348l.157-.009Z" transform="translate(-389.679 -326.68)"/>
          <path fill="#783392" d="M400.529,338.007a8.38,8.38,0,0,1-2.21-.244.561.561,0,0,1-.461-.7l.061-.409a.569.569,0,0,1,.609-.513c.044,0,.3.061.774.183a5.4,5.4,0,0,0,1.357.183h.1a2.347,2.347,0,0,0,1.061-.183.858.858,0,0,0,.426-.635.352.352,0,0,0-.009-.244c-.035-.044-.113-.061-.244-.052a7.14,7.14,0,0,1-.966.078h-.2a2.9,2.9,0,0,1-2.236-.722,2.776,2.776,0,0,1-.331-2.375l.052-.287a3.928,3.928,0,0,1,1.079-2.366,3.781,3.781,0,0,1,2.418-.626h.3a3.848,3.848,0,0,1,2.279.478,1.386,1.386,0,0,1,.444,1.444l-.757,4.358a3.112,3.112,0,0,1-1.018,2.07,3.963,3.963,0,0,1-2.34.565Zm2.21-7.238a3.244,3.244,0,0,0-.861-.1h-.156a1.722,1.722,0,0,0-1.183.313,2.2,2.2,0,0,0-.487,1.227l-.044.226a1.624,1.624,0,0,0,.078,1.192c.157.2.513.3,1.079.3h.165a3.5,3.5,0,0,0,.939-.1.574.574,0,0,0,.452-.513l.339-1.836a.9.9,0,0,0,0-.487A.5.5,0,0,0,402.738,330.769Z" transform="translate(-390.741 -326.993)"/>
        </g>
      </g>
      <path fill="#783392" d="M385.18,271.3s.148.748.7.67,2.01-3.793,8.047-4.219v-1A11.966,11.966,0,0,0,385.18,271.3Z" transform="translate(-363.945 -260.516)"/>
      <path fill="#783392" d="M403.943,271.3s-.148.748-.7.67-2.009-3.793-8.047-4.219v-1A11.966,11.966,0,0,1,403.943,271.3Z" transform="translate(-365.308 -260.516)"/>
    </g>
  </g>
</svg>
