<svg xmlns="http://www.w3.org/2000/svg" xmlns:xlink="http://www.w3.org/1999/xlink" width="80" height="80" viewBox="0 0 80 80">
  <g transform="translate(-1760 -3043)">
    <g transform="translate(1766 3051)">
      <rect fill="#ffd10f" width="49.706" height="42.006" transform="translate(9.493 14.484)"/>
      <path fill="#783392" d="M367.66,332.361h0a2.223,2.223,0,0,1-2.22-2.22v-37.2a2.224,2.224,0,0,1,2.22-2.22h0a2.224,2.224,0,0,1,2.22,2.22v37.2A2.23,2.23,0,0,1,367.66,332.361Z" transform="translate(-358.168 -276.374)"/>
      <path fill="#783392" d="M423.15,332.941h0a2.224,2.224,0,0,1-2.22-2.22v-37.2a2.224,2.224,0,0,1,2.22-2.22h0a2.224,2.224,0,0,1,2.22,2.22v37.2A2.224,2.224,0,0,1,423.15,332.941Z" transform="translate(-364.88 -276.381)"/>
      <path fill="#783392" d="M365.4,277.48l-7.332,9.67h14.8l4.588-9.67Z" transform="translate(-358.07 -270.928)"/>
      <path fill="#c3cfe6" d="M377.658,277.48h12.463l-2.26,9.67H373.07Z" transform="translate(-359.823 -270.928)"/>
      <path fill="#783392" d="M425.389,277.48l7.331,9.67H417.988l-4.6-9.67Z" transform="translate(-364.78 -270.928)"/>
      <path fill="#c3cfe6" d="M413.227,277.48H401.06l1.934,9.67h14.831Z" transform="translate(-363.071 -270.928)"/>
      <path fill="#783392" d="M390.32,277.48l-2.26,9.67h14.762l-1.934-9.67Z" transform="translate(-361.454 -270.928)"/>
      <path fill="#b74ede" d="M420.239,340.9H363.428a1.682,1.682,0,0,1-1.588-1.747V332.4a1.682,1.682,0,0,1,1.588-1.747h56.811a1.682,1.682,0,0,1,1.588,1.747v6.759A1.683,1.683,0,0,1,420.239,340.9Z" transform="translate(-358.12 -276.903)"/>
      <path fill="#f1f6fb" d="M415.422,317.141H402.593a1.845,1.845,0,0,1-1.973-1.668v-2.585a1.845,1.845,0,0,1,1.973-1.668h12.829a1.845,1.845,0,0,1,1.973,1.668v2.585A1.845,1.845,0,0,1,415.422,317.141Z" transform="translate(-365.081 -272.775)"/>
      <path fill="#f1f6fb" d="M415.422,307.451H402.593a1.845,1.845,0,0,1-1.973-1.668V303.2a1.845,1.845,0,0,1,1.973-1.668h12.829a1.845,1.845,0,0,1,1.973,1.668v2.585A1.845,1.845,0,0,1,415.422,307.451Z" transform="translate(-365.081 -270.829)"/>
      <path fill="#f1f6fb" d="M415.422,326.821H402.593a1.845,1.845,0,0,1-1.973-1.668v-2.585a1.845,1.845,0,0,1,1.973-1.668h12.829a1.845,1.845,0,0,1,1.973,1.668v2.585A1.845,1.845,0,0,1,415.422,326.821Z" transform="translate(-365.081 -274.721)"/>
      <path fill="#b74ede" d="M388.621,330.581H375.927a1.712,1.712,0,0,1-1.547-1.827v-25.4a1.712,1.712,0,0,1,1.547-1.828h12.694a1.712,1.712,0,0,1,1.547,1.828v25.4A1.712,1.712,0,0,1,388.621,330.581Z" transform="translate(-358.185 -270.429)"/>
      <path fill="#783392" d="M364.809,270.84l-6.739,9.67h68l-6.794-9.67Z" transform="translate(-358.07 -270.84)"/>
      <rect fill="#b74ede" width="67.931" height="16.666" transform="translate(0 9.847)"/>
      <g transform="translate(26.583 10.411)">
        <path fill="#f7bb18" d="M391.169,292.653a3.307,3.307,0,0,1-2.585-.819,3.651,3.651,0,0,1-.365-2.911l.049-.326a5.064,5.064,0,0,1,1.233-2.96,4.1,4.1,0,0,1,2.743-.77h.257c.217,0,.671.02,1.342.069a.249.249,0,0,0,.316-.227l.286-1.648a.656.656,0,0,1,.7-.592h.78a.515.515,0,0,1,.434.188.554.554,0,0,1,.089.474l-1.322,7.341a2.868,2.868,0,0,1-.493,1.263,2.1,2.1,0,0,1-1.085.691,6.787,6.787,0,0,1-1.993.227Zm.464-1.776a3.891,3.891,0,0,0,.987-.1.706.706,0,0,0,.434-.256,1.275,1.275,0,0,0,.2-.553l.464-2.654c.059-.306-.039-.483-.3-.552a4.206,4.206,0,0,0-1.046-.109h-.187a1.728,1.728,0,0,0-1.3.395,3.267,3.267,0,0,0-.572,1.559l-.059.336a2.367,2.367,0,0,0,.039,1.549c.168.266.553.395,1.164.395h.178Z" transform="translate(-388.109 -282.47)"/>
        <path fill="#f7bb18" d="M399.319,294.994a9.509,9.509,0,0,1-2.506-.276.637.637,0,0,1-.523-.8l.069-.464a.646.646,0,0,1,.691-.582c.049,0,.335.069.878.207a6.132,6.132,0,0,0,1.539.207h.118a2.664,2.664,0,0,0,1.2-.207.973.973,0,0,0,.483-.72.4.4,0,0,0-.01-.276c-.04-.049-.128-.069-.276-.059a8.084,8.084,0,0,1-1.1.089h-.227a3.284,3.284,0,0,1-2.536-.819,3.149,3.149,0,0,1-.375-2.694l.059-.326a4.457,4.457,0,0,1,1.224-2.684,4.29,4.29,0,0,1,2.743-.711h.345a4.365,4.365,0,0,1,2.585.543,1.573,1.573,0,0,1,.5,1.638L403.355,292a3.531,3.531,0,0,1-1.154,2.348,4.5,4.5,0,0,1-2.654.641Zm2.506-8.21a3.682,3.682,0,0,0-.977-.118h-.178a1.954,1.954,0,0,0-1.342.355,2.5,2.5,0,0,0-.553,1.391l-.049.257a1.841,1.841,0,0,0,.089,1.352c.178.227.582.345,1.224.345h.187a3.972,3.972,0,0,0,1.066-.118.651.651,0,0,0,.513-.582l.385-2.082a1.018,1.018,0,0,0,0-.553A.566.566,0,0,0,401.826,286.784Z" transform="translate(-388.217 -282.502)"/>
      </g>
    </g>
  </g>
</svg>
