<svg xmlns="http://www.w3.org/2000/svg" xmlns:xlink="http://www.w3.org/1999/xlink"  width="108" height="34" viewBox="0 0 108 34">
  <path fill="#783392" d="M5.9 27.1c-2.4 0-4.1-.5-5-1.6-.9-1-1.1-2.9-.7-5.6l.1-.6c.5-2.8 1.3-4.7 2.4-5.7 1.1-1 2.9-1.5 5.3-1.5h.5c.4 0 1.3 0 2.6.1.3.1.5-.1.6-.4l.6-3.2c.1-.8.6-1.1 1.4-1.1h1.5c.4 0 .6.1.8.4.2.2.2.5.2.9l-2.5 14.1c-.2 1-.5 1.9-.9 2.4-.4.6-1.1 1-2.1 1.3-1 .3-2.2.4-3.8.4h-1zm.9-3.5c.8 0 1.4-.1 1.9-.2.4-.1.7-.3.8-.5.2-.2.3-.6.4-1.1l.9-5.1c.1-.6-.1-.9-.6-1.1-.6-.1-1.3-.2-2-.2h-.3c-1.2 0-2 .3-2.5.8s-.8 1.5-1.1 3l-.1.6c-.3 1.5-.3 2.5.1 3 .3.5 1.1.8 2.3.8h.2zM22 27.1c-2.5 0-4.2-.5-5-1.6-.9-1.1-1.1-3-.6-5.6l.1-.7c.5-2.7 1.3-4.6 2.4-5.6 1.1-1 2.9-1.5 5.3-1.5h.3c2.4 0 4.1.4 5 1.3.9.9 1.2 2.3.8 4.4l-.1.8c-.1.8-.4 1.3-.8 1.6-.4.3-1 .5-1.8.5h-7c-.3 0-.5.2-.6.5-.2.9-.1 1.6.3 2 .3.4 1.1.6 2.2.6h.4c.9 0 2-.1 3-.4 1.1-.2 1.7-.4 1.8-.4.4 0 .6.1.8.4.2.2.2.5.2.9l-.2.8c-.1.4-.2.7-.4.9-.2.2-.5.3-1 .5-1.4.3-3 .5-4.6.5H22zm-1.4-9.4c-.1.3.1.5.4.5h5c.3 0 .5-.2.6-.5.2-1.1.1-1.8-.2-2.2-.3-.4-1-.5-2.2-.5h-.4c-1 0-1.8.2-2.2.6-.5.4-.8 1.1-1 2.1M33.6 26.9h-1.5c-.4 0-.6-.1-.8-.4-.2-.2-.2-.5-.2-.9l3-17.1c.1-.8.6-1.1 1.3-1.1H37c.4 0 .6.1.8.3.2.3.2.6.2.9l-3 17.2c-.2.7-.6 1.1-1.4 1.1M41.3 25.8c-.1.7-.6 1.1-1.3 1.1h-1.5c-.4 0-.6-.1-.8-.4-.2-.2-.2-.5-.2-.9l2.1-12.3c.1-.8.6-1.2 1.3-1.2h1.5c.4 0 .6.1.8.3.2.2.2.4.2.7l-2.1 12.7zm2.9-16.4c-.1 1-.6 1.5-1.4 1.5h-1.5c-.4 0-.6-.1-.8-.4-.2-.2-.3-.5-.2-.9l.2-1.4c.1-.8.6-1.1 1.4-1.1h1.5c.4 0 .7.1.8.3.2.2.2.4.2.7l-.2 1.3zM49.6 31.5c-1.9 0-3.5-.2-4.8-.5-.8-.2-1.1-.7-1-1.5l.1-.9c.1-.7.6-1.1 1.3-1.1.1 0 .7.1 1.7.4 1 .3 2 .4 3 .4h.2c1.1 0 1.8-.1 2.3-.4.5-.3.8-.7.9-1.4.1-.3 0-.4 0-.5-.1-.1-.2-.1-.5-.1-.8 0-1.5.1-2.1.1h-.4c-2.3 0-4-.5-4.9-1.6-.9-1-1.2-2.8-.7-5.2l.1-.6c.5-2.5 1.3-4.3 2.4-5.2 1.1-.9 2.9-1.4 5.3-1.4h.7c2.4 0 4.1.3 5 1 .9.7 1.2 1.7 1 3.1l-1.6 9.5c-.4 2.2-1.1 3.7-2.2 4.5-1.1.8-2.8 1.2-5.1 1.2h-.7zm4.8-15.8c-.5-.1-1.2-.2-1.9-.2h-.3c-1.2 0-2.1.2-2.6.7-.5.5-.8 1.3-1.1 2.7l-.1.5c-.2 1.3-.2 2.2.2 2.6.3.4 1.1.7 2.4.7h.4c.8 0 1.5-.1 2.1-.2.6-.1.9-.5 1-1.1l.7-4c.1-.5.1-.8 0-1.1-.2-.3-.4-.5-.8-.6M62.3 26.9h-1.6c-.3 0-.6-.1-.7-.3-.2-.2-.2-.5-.2-.8l1.8-10.2c.2-1.2.5-2 .9-2.4.4-.4 1.1-.7 2.1-.9.8-.2 1.7-.3 2.7-.3h.2c1.3 0 2.3.1 2.9.3.8.2 1.2.7 1.1 1.4l-.2 1.1c-.1.7-.6 1.1-1.3 1.1-.1 0-.5-.1-1-.2s-1.1-.2-1.6-.2h-.1c-.3 0-.7 0-1.2.1-.3.1-.5.2-.6.3-.1.2-.2.4-.3.8l-1.6 9.1c-.1.3-.2.6-.5.8-.2.2-.5.3-.8.3M73.7 16.2c-.4 0-.6-.1-.8-.3-.2-.2-.3-.5-.2-.9l.2-.8c.1-.8.6-1.2 1.4-1.4 1.5-.4 3.1-.6 4.8-.6 2.5 0 4.1.5 4.9 1.4.8 1 1 2.8.5 5.5l-.7 3.7c-.3 1.6-.9 2.7-1.9 3.4-1 .7-2.7 1-5 1h-.8c-2.1 0-3.6-.4-4.5-1.1-.9-.8-1.2-1.9-.9-3.6l.1-.6c.2-1.4.8-2.4 1.8-2.9.9-.6 2.3-.9 4.1-.9h.7c1 0 1.9.1 2.8.2.4.1.6-.1.6-.5.2-.9.1-1.5-.2-1.9-.3-.3-1-.5-2-.5-.9 0-1.8.1-2.9.4-1.2.2-1.8.4-2 .4m6.4 5.4c.1-.3.1-.5 0-.7-.1-.1-.3-.2-.6-.3-.5-.1-1.2-.2-2-.2h-.3c-.9 0-1.5.1-1.9.4-.4.2-.6.7-.7 1.3v.2c-.1.6 0 1.1.3 1.4.3.3.9.4 1.8.4h.3c.8 0 1.4 0 1.9-.1.4-.1.7-.2.8-.4.2-.2.3-.5.4-.9v-1.1zM86.5 26.9c-.4 0-.6-.1-.8-.4-.2-.2-.2-.5-.2-.9l1.8-10.3c.1-.9.4-1.6.8-2 .4-.4 1.1-.7 2-.8 2.1-.3 4.8-.5 8.2-.5 1.3 0 2.3 0 3.3.1.9.1 1.8.2 2.5.3.8.1 1.4.3 1.9.6s.9.6 1.2.9c.3.4.6.8.7 1.3.1.5.2 1.1.2 1.8 0 .6-.1 1.4-.3 2.3l-1.1 6.5c-.2.8-.6 1.1-1.3 1.1h-1.5c-.4 0-.6-.1-.8-.4-.2-.2-.2-.5-.2-.9l.9-5.3c.3-1.3.4-2.3.3-3.1-.1-.7-.4-1.2-.9-1.4-.5-.2-1.4-.4-2.8-.4-.3 0-.5.2-.6.5L98 25.8c-.1.7-.6 1.1-1.4 1.1h-1.5c-.4 0-.6-.1-.8-.4-.2-.2-.2-.5-.2-.9l1.7-9.7c.1-.4-.1-.5-.5-.5-1.1 0-2.2.1-3.2.2-.4.1-.8.2-.9.4-.2.2-.3.5-.4 1l-1.5 8.8c-.1.7-.6 1.1-1.3 1.1h-1.5z"/>
</svg>