<svg xmlns="http://www.w3.org/2000/svg" xmlns:xlink="http://www.w3.org/1999/xlink" width="125" height="58" viewBox="0 0 125 58">
  <defs>
    <filter id="Rectangle_1499" x="1" y="20" width="123" height="38" filterUnits="userSpaceOnUse">
      <feOffset dy="1" input="SourceAlpha"/>
      <feGaussianBlur stdDeviation="3" result="blur"/>
      <feFlood flood-opacity="0.161"/>
      <feComposite operator="in" in2="blur"/>
      <feComposite in="SourceGraphic"/>
    </filter>
  </defs>
  <g id="mastercard" transform="translate(-1193 -119)">
    <rect id="Rectangle_3" data-name="Rectangle 3" width="125" height="58" transform="translate(1193 119)" opacity="0"/>
    <g id="mastercard-2" data-name="mastercard" transform="translate(133)">
      <g id="icon-offerBkash20percentCashBack" transform="translate(-4108 5005)">
        <g id="Group_460" data-name="Group 460" transform="translate(5178 -4864.138)">
          <g transform="matrix(1, 0, 0, 1, -10, -21.86)" filter="url(#Rectangle_1499)">
            <path id="Rectangle_1499-2" data-name="Rectangle 1499" d="M4,6.138H105v16a4,4,0,0,1-4,4H4a4,4,0,0,1-4-4v-12a4,4,0,0,1,4-4Z" transform="translate(10 21.86)" fill="#fff"/>
          </g>
        </g>
        <g id="Group_461" data-name="Group 461" transform="translate(616.55 -161.88)">
          <path id="Path_218" data-name="Path 218" d="M89.774,45.361l-1.2-.253L94.638,35.5l1.248.253Zm.976-6.123a1.869,1.869,0,0,1-1.4-.595,1.969,1.969,0,0,1-.574-1.416,1.886,1.886,0,0,1,.584-1.4,1.94,1.94,0,0,1,1.4-.576,1.852,1.852,0,0,1,1.376.6,1.969,1.969,0,0,1-.011,2.791,1.877,1.877,0,0,1-1.385.595m-.04-2.894a.819.819,0,0,0-.618.285.92.92,0,0,0-.265.639.9.9,0,0,0,.9.9.828.828,0,0,0,.628-.275.92.92,0,0,0,.255-.648.9.9,0,0,0-.9-.9m3.111,9.3a2.1,2.1,0,0,1-2.085-2.092A1.93,1.93,0,0,1,92.36,42.1a2.1,2.1,0,0,1,2.951,0,2.026,2.026,0,0,1-.01,2.933,2.084,2.084,0,0,1-1.489.606M93.8,42.625a.954.954,0,0,0-.683.286.92.92,0,0,0-.293.68.906.906,0,0,0,.3.68.983.983,0,0,0,.694.285.951.951,0,0,0,.683-.285.93.93,0,0,0,.293-.679.919.919,0,0,0-.293-.69,1,1,0,0,0-.7-.276" transform="translate(4496.757 -4726.449)" fill="#ff5f00"/>
          <path id="Path_36" data-name="Path 36" d="M4.709,0A.393.393,0,0,1,4.42-.119.393.393,0,0,1,4.3-.408V-9.214L1.717-7.225a.36.36,0,0,1-.238.085.407.407,0,0,1-.34-.187L.425-8.245A.486.486,0,0,1,.34-8.5a.407.407,0,0,1,.187-.34l3.808-2.941A.677.677,0,0,1,4.76-11.9h1.5a.4.4,0,0,1,.3.111.4.4,0,0,1,.11.3V-.408a.409.409,0,0,1-.11.289A.386.386,0,0,1,6.26,0Zm8.738.17a4.274,4.274,0,0,1-3.375-1.258,5.2,5.2,0,0,1-1.216-3.3Q8.84-4.845,8.84-5.95q0-1.122.017-1.6a5.009,5.009,0,0,1,1.224-3.264,4.311,4.311,0,0,1,3.366-1.258,4.334,4.334,0,0,1,3.383,1.258A4.939,4.939,0,0,1,18.037-7.55q.034.476.034,1.6,0,1.105-.034,1.564a5.13,5.13,0,0,1-1.2,3.3A4.3,4.3,0,0,1,13.447.17Zm0-1.955a1.866,1.866,0,0,0,1.6-.706,3.411,3.411,0,0,0,.561-1.98q.034-.986.034-1.5,0-.561-.034-1.479a3.422,3.422,0,0,0-.561-1.972,1.857,1.857,0,0,0-1.6-.714,1.861,1.861,0,0,0-1.59.714,3.381,3.381,0,0,0-.569,1.972q-.017.459-.017,1.479,0,1,.017,1.5a3.37,3.37,0,0,0,.569,1.98A1.871,1.871,0,0,0,13.447-1.785Z" transform="translate(4566.45 -4680.12)" fill="#ff5f00"/>
        </g>
        <path id="Path_284" data-name="Path 284" d="M64.524-5.723a.279.279,0,0,0,.361-.058c0-.012.023-.023.047-.082l.536-1.119L66-5.863c.023.058.047.07.047.082a.279.279,0,0,0,.361.058L66.79-6a.26.26,0,0,0,.058-.35c0-.012-.023-.035-.07-.082l-.9-.828L67.1-7.424l.093-.023a.277.277,0,0,0,.163-.326L67.2-8.216a.264.264,0,0,0-.315-.163.291.291,0,0,0-.093.047l-1.084.594L65.95-8.95a.437.437,0,0,0,.012-.093.267.267,0,0,0-.256-.256H65.24a.267.267,0,0,0-.256.256A.437.437,0,0,0,65-8.95l.221,1.2-1.072-.583a.291.291,0,0,0-.093-.047.264.264,0,0,0-.315.163l-.152.443a.277.277,0,0,0,.163.326l.093.023,1.212.152-.886.839c-.047.047-.07.07-.07.082a.26.26,0,0,0,.058.35Z" transform="translate(5212 -4844.7)" fill="#050605"/>
        <path id="Path_1" data-name="Path 1" d="M1.224,0a.278.278,0,0,1-.2-.084.278.278,0,0,1-.084-.2V-8.1a.3.3,0,0,1,.078-.216.273.273,0,0,1,.21-.084H4.152q3.528,0,3.6,3.264.024.7.024.936t-.024.924A3.387,3.387,0,0,1,6.852-.8a3.755,3.755,0,0,1-2.64.8ZM4.152-1.38A1.979,1.979,0,0,0,5.6-1.83a2.132,2.132,0,0,0,.468-1.482q.024-.72.024-.9T6.072-5.1a2.038,2.038,0,0,0-.5-1.452A2.039,2.039,0,0,0,4.092-7.02H2.6v5.64ZM9.42,0a.278.278,0,0,1-.2-.084.278.278,0,0,1-.084-.2V-8.112a.273.273,0,0,1,.084-.21.289.289,0,0,1,.2-.078h1.128a.284.284,0,0,1,.21.078.284.284,0,0,1,.078.21V-.288a.289.289,0,0,1-.078.2.273.273,0,0,1-.21.084ZM15.4.12A4.709,4.709,0,0,1,13.56-.2,2.745,2.745,0,0,1,12.4-1.056a2,2,0,0,1-.42-1.14.244.244,0,0,1,.072-.18.244.244,0,0,1,.18-.072H13.3a.387.387,0,0,1,.222.054.554.554,0,0,1,.15.174,1.224,1.224,0,0,0,.552.684A2.168,2.168,0,0,0,15.4-1.26a2.369,2.369,0,0,0,1.284-.282.889.889,0,0,0,.432-.786.737.737,0,0,0-.222-.552,1.813,1.813,0,0,0-.66-.372q-.438-.156-1.3-.384a5,5,0,0,1-2.07-.894A1.975,1.975,0,0,1,12.2-6.12a2.1,2.1,0,0,1,.378-1.236,2.526,2.526,0,0,1,1.092-.852,4.121,4.121,0,0,1,1.662-.312,3.879,3.879,0,0,1,1.7.348,2.848,2.848,0,0,1,1.1.87,1.924,1.924,0,0,1,.4,1.038.244.244,0,0,1-.072.18.244.244,0,0,1-.18.072H17.172a.348.348,0,0,1-.348-.228.972.972,0,0,0-.48-.642,1.85,1.85,0,0,0-1.008-.258,1.909,1.909,0,0,0-1.056.252.822.822,0,0,0-.384.732.8.8,0,0,0,.192.552,1.615,1.615,0,0,0,.606.384,10.289,10.289,0,0,0,1.194.372,8.3,8.3,0,0,1,1.686.54,2.214,2.214,0,0,1,.93.756,2.079,2.079,0,0,1,.3,1.164,2.173,2.173,0,0,1-.426,1.338,2.646,2.646,0,0,1-1.2.87A4.908,4.908,0,0,1,15.4.12Zm7.788,0a3.6,3.6,0,0,1-2.562-.852,3.322,3.322,0,0,1-.966-2.4q-.012-.324-.012-1.056t.012-1.08a3.3,3.3,0,0,1,.978-2.394,3.589,3.589,0,0,1,2.55-.858,4.4,4.4,0,0,1,1.86.366,2.933,2.933,0,0,1,1.224,1,2.6,2.6,0,0,1,.456,1.422v.024a.2.2,0,0,1-.078.162.263.263,0,0,1-.174.066h-1.14a.331.331,0,0,1-.216-.06A.461.461,0,0,1,25-5.772a1.751,1.751,0,0,0-.636-1.062,2.059,2.059,0,0,0-1.188-.306q-1.728,0-1.8,1.932-.012.324-.012,1t.012,1.02q.072,1.932,1.8,1.932a2.058,2.058,0,0,0,1.194-.312A1.711,1.711,0,0,0,25-2.628a.381.381,0,0,1,.114-.228.358.358,0,0,1,.222-.06h1.14a.265.265,0,0,1,.186.072.2.2,0,0,1,.066.18,2.6,2.6,0,0,1-.456,1.422,2.933,2.933,0,0,1-1.224,1A4.4,4.4,0,0,1,23.184.12Zm7.956,0A3.648,3.648,0,0,1,28.6-.708a3.3,3.3,0,0,1-.96-2.46q-.012-.348-.012-1.02t.012-1.032a3.284,3.284,0,0,1,.984-2.448,3.6,3.6,0,0,1,2.52-.852,3.623,3.623,0,0,1,2.526.852,3.273,3.273,0,0,1,.99,2.448q.024.7.024,1.032t-.024,1.02a3.332,3.332,0,0,1-.972,2.46A3.648,3.648,0,0,1,31.14.12Zm0-1.38a1.723,1.723,0,0,0,1.284-.486,2.149,2.149,0,0,0,.516-1.482q.024-.72.024-.972,0-.276-.024-.972a2.149,2.149,0,0,0-.516-1.482A1.723,1.723,0,0,0,31.14-7.14a1.708,1.708,0,0,0-1.272.486,2.149,2.149,0,0,0-.516,1.482q-.012.348-.012.972t.012.972a2.166,2.166,0,0,0,.51,1.482A1.7,1.7,0,0,0,31.14-1.26ZM39.36.12a3.584,3.584,0,0,1-2.52-.828,3.245,3.245,0,0,1-.9-2.508V-8.1a.3.3,0,0,1,.078-.216.273.273,0,0,1,.21-.084H37.32a.273.273,0,0,1,.21.084.3.3,0,0,1,.078.216v4.884a2.043,2.043,0,0,0,.456,1.446,1.691,1.691,0,0,0,1.3.486,1.671,1.671,0,0,0,1.29-.486,2.061,2.061,0,0,0,.45-1.446V-8.1a.292.292,0,0,1,.084-.216A.292.292,0,0,1,41.4-8.4h1.08a.273.273,0,0,1,.21.084.3.3,0,0,1,.078.216v4.884a3.257,3.257,0,0,1-.894,2.508A3.562,3.562,0,0,1,39.36.12ZM44.616,0a.278.278,0,0,1-.2-.084.278.278,0,0,1-.084-.2V-8.1a.3.3,0,0,1,.078-.216.273.273,0,0,1,.21-.084h.924a.358.358,0,0,1,.216.054.623.623,0,0,1,.132.138l3.456,5.376V-8.1a.3.3,0,0,1,.078-.216.273.273,0,0,1,.21-.084H50.64a.292.292,0,0,1,.216.084.292.292,0,0,1,.084.216V-.3a.292.292,0,0,1-.084.216.278.278,0,0,1-.2.084h-.936a.424.424,0,0,1-.348-.192L45.924-5.448v5.16a.273.273,0,0,1-.084.21A.3.3,0,0,1,45.624,0ZM54.708,0a.278.278,0,0,1-.2-.084.278.278,0,0,1-.084-.2V-6.924H52.2a.278.278,0,0,1-.2-.084.278.278,0,0,1-.084-.2V-8.1a.3.3,0,0,1,.078-.216A.273.273,0,0,1,52.2-8.4h6.12a.292.292,0,0,1,.216.084.292.292,0,0,1,.084.216v.888a.278.278,0,0,1-.084.2.292.292,0,0,1-.216.084H56.112V-.288a.278.278,0,0,1-.084.2A.292.292,0,0,1,55.812,0Z" transform="translate(5213.8 -4843.4)" fill="#050605"/>
      </g>
      <g id="Group_5" data-name="Group 5" transform="translate(-276 -23)">
        <rect id="Rectangle_1502" data-name="Rectangle 1502" width="105" height="20" rx="4" transform="translate(1346 147)" fill="#fff"/>
        <g id="Mastercard-logo" transform="translate(2919.623 -819.748)">
          <g id="Group_1" data-name="Group 1" transform="translate(-1537.87 972.114)">
            <path id="Path_1-2" data-name="Path 1" d="M-120.879-14.175v.141h.13a.137.137,0,0,0,.071-.018.062.062,0,0,0,.026-.053.06.06,0,0,0-.026-.052.125.125,0,0,0-.071-.018Zm.132-.1a.241.241,0,0,1,.156.045.15.15,0,0,1,.055.123.142.142,0,0,1-.044.108.214.214,0,0,1-.125.052l.173.2h-.134l-.16-.2h-.052v.2h-.112v-.528Zm-.034.71a.417.417,0,0,0,.171-.036.45.45,0,0,0,.14-.1.441.441,0,0,0,.095-.141.452.452,0,0,0,.034-.173.452.452,0,0,0-.034-.173.456.456,0,0,0-.095-.141.45.45,0,0,0-.14-.1.439.439,0,0,0-.171-.033.458.458,0,0,0-.174.033.447.447,0,0,0-.143.1.43.43,0,0,0-.093.141.427.427,0,0,0-.034.173.427.427,0,0,0,.034.173.416.416,0,0,0,.093.141.447.447,0,0,0,.143.1.435.435,0,0,0,.174.036m0-1.013a.57.57,0,0,1,.226.045.574.574,0,0,1,.184.122.558.558,0,0,1,.123.181.544.544,0,0,1,.045.221.544.544,0,0,1-.045.221.589.589,0,0,1-.123.181.623.623,0,0,1-.184.122.57.57,0,0,1-.226.045.578.578,0,0,1-.229-.045.6.6,0,0,1-.185-.122.589.589,0,0,1-.123-.181.544.544,0,0,1-.045-.221.544.544,0,0,1,.045-.221.558.558,0,0,1,.123-.181.551.551,0,0,1,.185-.122.578.578,0,0,1,.229-.045m-53.431-2.034a1.719,1.719,0,0,1,.467-1.3,1.719,1.719,0,0,1,1.271-.536,1.717,1.717,0,0,1,1.263.541,1.717,1.717,0,0,1,.462,1.293,1.717,1.717,0,0,1-.462,1.293,1.717,1.717,0,0,1-1.263.541,1.719,1.719,0,0,1-1.271-.536,1.719,1.719,0,0,1-.467-1.3m4.637,0v-2.863h-1.245v.7a2.171,2.171,0,0,0-1.809-.839,2.87,2.87,0,0,0-2.076.89,2.87,2.87,0,0,0-.789,2.117,2.87,2.87,0,0,0,.789,2.116,2.87,2.87,0,0,0,2.075.891,2.171,2.171,0,0,0,1.809-.839v.7h1.245Zm42.08,0a1.719,1.719,0,0,1,.467-1.3,1.719,1.719,0,0,1,1.271-.536,1.716,1.716,0,0,1,1.263.54,1.716,1.716,0,0,1,.462,1.294,1.716,1.716,0,0,1-.462,1.294,1.716,1.716,0,0,1-1.263.54,1.719,1.719,0,0,1-1.271-.536,1.719,1.719,0,0,1-.467-1.3m4.638,0v-5.163H-124.1v3a2.171,2.171,0,0,0-1.809-.839,2.871,2.871,0,0,0-2.076.891,2.871,2.871,0,0,0-.789,2.116,2.87,2.87,0,0,0,.789,2.117,2.87,2.87,0,0,0,2.076.89,2.171,2.171,0,0,0,1.809-.839v.7h1.247ZM-154.119-18.5a1.423,1.423,0,0,1,1.45,1.389h-2.972a1.475,1.475,0,0,1,1.522-1.389m.025-1.115a2.8,2.8,0,0,0-2.092.872,2.8,2.8,0,0,0-.761,2.135,2.825,2.825,0,0,0,.8,2.159,2.825,2.825,0,0,0,2.139.849,3.481,3.481,0,0,0,2.348-.8l-.61-.923a2.739,2.739,0,0,1-1.666.6,1.591,1.591,0,0,1-1.713-1.4h4.253c.012-.155.025-.311.025-.479a2.746,2.746,0,0,0-.7-2.1,2.746,2.746,0,0,0-2.022-.9m15.036,3.007a1.719,1.719,0,0,1,.467-1.3,1.719,1.719,0,0,1,1.271-.536,1.717,1.717,0,0,1,1.263.541,1.717,1.717,0,0,1,.462,1.293,1.717,1.717,0,0,1-.462,1.293,1.717,1.717,0,0,1-1.263.541,1.719,1.719,0,0,1-1.271-.536,1.719,1.719,0,0,1-.467-1.3m4.637,0v-2.863h-1.245v.7a2.173,2.173,0,0,0-1.809-.839,2.871,2.871,0,0,0-2.076.891,2.871,2.871,0,0,0-.789,2.116,2.87,2.87,0,0,0,.789,2.117,2.87,2.87,0,0,0,2.076.89,2.173,2.173,0,0,0,1.809-.839v.7h1.245Zm-11.669,0a2.893,2.893,0,0,0,.861,2.18,2.893,2.893,0,0,0,2.194.827,3,3,0,0,0,2.06-.683l-.6-1.007a2.517,2.517,0,0,1-1.5.516,1.711,1.711,0,0,1-1.265-.539,1.711,1.711,0,0,1-.46-1.3,1.711,1.711,0,0,1,.46-1.3,1.711,1.711,0,0,1,1.265-.539,2.517,2.517,0,0,1,1.5.516l.6-1.007a3,3,0,0,0-2.06-.683,2.893,2.893,0,0,0-2.194.827,2.893,2.893,0,0,0-.861,2.18m16.055-3.007a1.69,1.69,0,0,0-1.51.839v-.7h-1.234v5.727h1.247v-3.21c0-.948.407-1.474,1.222-1.474a2.019,2.019,0,0,1,.779.144l.384-1.174a2.652,2.652,0,0,0-.887-.156m-33.381.6a4.283,4.283,0,0,0-2.336-.6c-1.451,0-2.385.7-2.385,1.834,0,.934.7,1.51,1.976,1.69l.588.084c.683.1,1.005.276,1.005.6,0,.443-.455.7-1.306.7a3.05,3.05,0,0,1-1.9-.6l-.587.97a4.131,4.131,0,0,0,2.479.743c1.654,0,2.613-.779,2.613-1.869,0-1.007-.754-1.533-2-1.713l-.587-.085c-.539-.071-.971-.178-.971-.562,0-.42.407-.671,1.09-.671a3.7,3.7,0,0,1,1.786.491Zm16.067-.6a1.687,1.687,0,0,0-1.509.839v-.7h-1.234v5.727h1.245v-3.21c0-.948.407-1.474,1.222-1.474a2.019,2.019,0,0,1,.779.144l.384-1.174a2.652,2.652,0,0,0-.887-.156m-10.627.144h-2.037v-1.738h-1.259v1.738h-1.162v1.138h1.162v2.613c0,1.329.516,2.12,1.989,2.12a2.923,2.923,0,0,0,1.558-.443l-.359-1.067a2.305,2.305,0,0,1-1.1.324c-.623,0-.826-.384-.826-.959v-2.588h2.037Zm-18.62,5.727v-3.594a2.132,2.132,0,0,0-.611-1.648,2.132,2.132,0,0,0-1.642-.629,2.217,2.217,0,0,0-2.013,1.019,2.1,2.1,0,0,0-1.893-1.019,1.894,1.894,0,0,0-1.677.85v-.706h-1.247v5.727h1.258v-3.175a1.34,1.34,0,0,1,.341-1.091,1.34,1.34,0,0,1,1.059-.431c.827,0,1.245.539,1.245,1.51v3.187h1.259v-3.175a1.351,1.351,0,0,1,.346-1.087,1.351,1.351,0,0,1,1.054-.435c.85,0,1.258.539,1.258,1.51v3.187Z" transform="translate(185.679 21.774)" fill="#231f20"/>
          </g>
          <g id="Group_7" data-name="Group 7" transform="translate(-1569.623 968.748)">
            <g id="Group_6" data-name="Group 6">
              <g id="Group_2" data-name="Group 2" transform="translate(25.632 12.986)">
                <path id="Path_2" data-name="Path 2" d="M-4.515-2.078V-2.4H-4.6l-.1.219L-4.8-2.4h-.084v.319h.059v-.24l.09.207h.061l.09-.208v.241Zm-.527,0v-.264h.107V-2.4h-.272v.054H-5.1v.264Z" transform="translate(5.207 2.397)" fill="#f79410"/>
              </g>
              <path id="Path_3" data-name="Path 3" d="M3350.192,2160.489H3343v-12.918h7.188Z" transform="translate(-3333.311 -2145.814)" fill="#ff5f00"/>
              <g id="Group_3" data-name="Group 3">
                <path id="Path_4" data-name="Path 4" d="M-66.238-53.594A8.2,8.2,0,0,1-63.1-60.053a8.179,8.179,0,0,0-5.077-1.757A8.215,8.215,0,0,0-76.391-53.6a8.215,8.215,0,0,0,8.215,8.216A8.179,8.179,0,0,0-63.1-47.135a8.2,8.2,0,0,1-3.137-6.459" transform="translate(76.392 61.809)" fill="#eb001b"/>
              </g>
            </g>
            <g id="Group_4" data-name="Group 4" transform="translate(13.283)">
              <path id="Path_5" data-name="Path 5" d="M-86.709-53.594a8.215,8.215,0,0,1-8.214,8.215A8.182,8.182,0,0,1-100-47.135a8.2,8.2,0,0,0,3.138-6.459A8.2,8.2,0,0,0-100-60.053a8.182,8.182,0,0,1,5.077-1.757A8.215,8.215,0,0,1-86.709-53.6" transform="translate(100.001 61.809)" fill="#f79e1b"/>
            </g>
          </g>
        </g>
      </g>
    </g>
  </g>
</svg>
