<svg xmlns="http://www.w3.org/2000/svg" xmlns:xlink="http://www.w3.org/1999/xlink" width="400" height="180" viewBox="0 0 400 180">
  <defs>
    <clipPath id="clip-path">
      <rect id="Rectangle_113" data-name="Rectangle 113" width="170" height="410"/>
    </clipPath>
    <clipPath id="clip-modal-hero-login">
      <rect width="400" height="180"/>
    </clipPath>
  </defs>
  <g id="modal-hero-login" clip-path="url(#clip-modal-hero-login)">
    <rect width="400" height="180" fill="#fff"/>
    <g id="Group_456" data-name="Group 456">
      <rect id="Rectangle_114" data-name="Rectangle 114" width="400" height="180" fill="#783392"/>
      <g id="elements-img" transform="translate(230 -115)">
        <g id="Group_455" data-name="Group 455" clip-path="url(#clip-path)">
          <path id="Path_179" data-name="Path 179" d="M226.1,339.7,126.4,240a32.291,32.291,0,0,1,0-45.5h0a32.291,32.291,0,0,1,45.5,0l99.7,99.7a32.291,32.291,0,0,1,0,45.5h0A32.291,32.291,0,0,1,226.1,339.7Z" fill="#ee3d60"/>
          <path id="Path_180" data-name="Path 180" d="M154.7,345.8,59.2,250.3a41.947,41.947,0,0,1,0-59.2h0a41.947,41.947,0,0,1,59.2,0l95.5,95.5a41.947,41.947,0,0,1,0,59.2h0A41.947,41.947,0,0,1,154.7,345.8Z" fill="#f7bb18"/>
          <g id="XMLID_327_">
            <g id="Group_435" data-name="Group 435">
              <path id="Path_181" data-name="Path 181" d="M154,181.5a14.794,14.794,0,0,0-9.1,1.3,18.012,18.012,0,0,0-7.9,8.4l4.3,2.7-5.1-.9a49.572,49.572,0,0,0-2.5,8.4c-.3,1.7-.7,3.3-1.1,4.9l4.7,2.4-5.5.2a50.513,50.513,0,0,1-4.1,9.7l4.1,4.3-5.6-1.7a30.167,30.167,0,0,1-8.3,8.7l1.7,4.8-4-3.5c-5.2,2.6-11.1,3.1-17.7,1.4a3.008,3.008,0,0,0-1.6,5.8,33.116,33.116,0,0,0,12.4,1l-.3-5.1L111,239a28.37,28.37,0,0,0,9.6-3.8,32.967,32.967,0,0,0,6.2-5.1l-3.2-4.1,4.8,2.4a41.054,41.054,0,0,0,4.3-6.3,45.108,45.108,0,0,0,2.2-4.4l-4.3-3.8,5.2,1.5a69.445,69.445,0,0,0,3.7-12.9.367.367,0,0,1,.1-.3l-4.9-3.6,5.5,1.1a27.674,27.674,0,0,1,3-7.3,11.985,11.985,0,0,1,1.7-2.1l-2.6-4.7,4.4,3.3c.3-.2.5-.3.8-.5a8.279,8.279,0,0,1,5-.8Z" fill="#f27321"/>
              <path id="Path_182" data-name="Path 182" d="M155.7,188.2a3,3,0,0,0,4-1.4.367.367,0,0,0,.1-.3l.1-.6a2.954,2.954,0,0,0-1.6-3.1,15.324,15.324,0,0,0-4.2-1.3h-.2l-1.4,5.9A11.152,11.152,0,0,1,155.7,188.2Z" fill="#1e1e1e"/>
              <path id="Path_183" data-name="Path 183" d="M145,190.1a11.919,11.919,0,0,1,1.8-1.5l-4.4-3.3Z" fill="#1e1e1e"/>
              <path id="Path_184" data-name="Path 184" d="M137,191.2a14.166,14.166,0,0,0-.8,1.8l5.1.9Z" fill="#1e1e1e"/>
              <path id="Path_185" data-name="Path 185" d="M139.7,202.1c.2-.9.4-1.7.6-2.5l-5.5-1.1Z" fill="#1e1e1e"/>
              <path id="Path_186" data-name="Path 186" d="M135,217.7a21.4,21.4,0,0,1,1-2.2l-5.2-1.5Z" fill="#1e1e1e"/>
              <path id="Path_187" data-name="Path 187" d="M126.9,230c.5-.6,1-1.1,1.5-1.7l-4.8-2.4Z" fill="#1e1e1e"/>
              <path id="Path_188" data-name="Path 188" d="M108.8,239.3h.6c.6-.1,1.1-.2,1.7-.3l-2.6-4.7Z" fill="#1e1e1e"/>
              <path id="Path_189" data-name="Path 189" d="M132.6,206.2a19.752,19.752,0,0,1-.8,2.6l5.5-.2Z" fill="#1e1e1e"/>
              <path id="Path_190" data-name="Path 190" d="M127.8,218.5c-.5.9-1,1.7-1.5,2.6l5.6,1.7Z" fill="#1e1e1e"/>
              <path id="Path_191" data-name="Path 191" d="M118,229.8c-.2.1-.3.2-.5.3a16.18,16.18,0,0,1-1.8,1l4,3.5Z" fill="#1e1e1e"/>
            </g>
          </g>
          <path id="Path_192" data-name="Path 192" d="M295.1,374.7h0a6.1,6.1,0,0,0,0-8.5L138.6,209.7a6.1,6.1,0,0,0-8.5,0h0a6.1,6.1,0,0,0,0,8.5L286.6,374.7A6.1,6.1,0,0,0,295.1,374.7Z" fill="#40b667"/>
          <g id="Group_437" data-name="Group 437">
            <g id="Group_436" data-name="Group 436">
              <path id="Path_193" data-name="Path 193" d="M99.5,266a5.678,5.678,0,0,1,2.7,3,2.462,2.462,0,0,1,.1,1.2,22.5,22.5,0,0,1-.5,2.2c-.5,2.6.4,5.3.3,7.9a4.462,4.462,0,0,1-.9,3,3.837,3.837,0,0,1-2.5,1.1,5.5,5.5,0,0,1-2.2-.2c-2.5-.9-3.1-3.4-3.2-5.6a21.869,21.869,0,0,1,1.1-6.7c.5-1.4.8-3.4-.7-4.4a12.83,12.83,0,0,1,2.4-3.4C97.5,264.9,99,265.8,99.5,266Z" fill="#dbdcdd"/>
              <path id="Path_194" data-name="Path 194" d="M74.6,252.2a121.541,121.541,0,0,1,3.9-11.6,23.787,23.787,0,0,1,4.6-7.6c5.5-6.1,11.3,8.1,11.3,8.1-6.4,4.2-10.7,9.1-12.1,13.2-.4,1.2-.5,2.8.2,3.5,0,0,8.4,3.9,10.4,4.8.3.1.6.3.9.4.5.3,1.4.8,2.4,1.3a14.7,14.7,0,0,0-2.4,3.4c-.2-.1-.5-.2-.7-.3-3.1-.9-16.5-4.8-16.8-4.9-1.7-.4-3.2-.4-3.4-2.5C72.7,257.4,73.9,254.5,74.6,252.2Z" fill="#dbdcdd"/>
            </g>
            <path id="Path_195" data-name="Path 195" d="M88.1,246.1s-3.3-6.1-8.9-8.1l-.8,2s4.3,1.5,8.6,7.2Z" fill="#bababa"/>
            <path id="Path_196" data-name="Path 196" d="M84.9,249.8a16.24,16.24,0,0,0-8.3-4.7l.7-2c4.6,1,8.5,5.6,8.5,5.6Z" fill="#bababa"/>
            <path id="Path_197" data-name="Path 197" d="M83.8,251.4l-.6,1.2s-3.8-3-8.1-2.8l.6-1.8C75.7,247.9,79.1,247.7,83.8,251.4Z" fill="#bababa"/>
            <path id="Path_198" data-name="Path 198" d="M101.5,269.9c-.4-.4-1.3-1-2.8,0a1.6,1.6,0,0,0-.7.9c-.6,2.6-3,13.1,1.5,12.2,0,0,2.1-.3,2-3.8s-.9-5.7-.4-7.1l.6-1.8C101.6,270.3,101.6,270.1,101.5,269.9Z" fill="#201d1e" opacity="0.3"/>
            <path id="Path_199" data-name="Path 199" d="M102.1,275.8c0-.1-.1-.1-.2-.1-.5.1-2.5.8-3.9,1.2a3.018,3.018,0,0,1-2.1-.2c-1.1-.5-2.4-1.4-2.5-2,0-.9-3,9.5,4.4,10.4,0,0,4.8.3,5.1-3.8v-.4Z" fill="#f27321"/>
            <path id="Path_200" data-name="Path 200" d="M90.7,261.5s-2.2,2.8-1.6,4.6l-1.2-.3a5.219,5.219,0,0,1,1.4-4.9Z" fill="#7b59a4"/>
          </g>
          <g id="Group_446" data-name="Group 446">
            <path id="Path_201" data-name="Path 201" d="M117.5,189.7s2.8,1.4,3.4,2.4L114,207.4l-2-.1Z"/>
            <path id="Path_202" data-name="Path 202" d="M113.3,208.1l6.8-17.9s11.6,9.8,14,22.7l-10.7.4C123.3,213.4,119.8,208,113.3,208.1Z" fill="#dcdcdc"/>
            <path id="Path_203" data-name="Path 203" d="M49.2,203.9s-4.5-4.1-7.9-3.9-10.4,3.1-9.3,4.2,5.7,0,5.7,0-1.9,4,1.3,5,4.1.9,4.8.2.6-1,.6-1l4,.1Z" fill="#f27321"/>
            <path id="Path_204" data-name="Path 204" d="M44.7,203.8s-6.1,5.5-4.7,6.6c1.4,1,6.6-.9,6.6-3.1C46.6,205,46.1,202.8,44.7,203.8Z" fill="#f27321"/>
            <path id="Path_205" data-name="Path 205" d="M62.1,219.9s-5.3,3-15-10.8l2-5.8s11.4,8,12.8,6.9C62,210.1,68.2,217.4,62.1,219.9Z" fill="#dcdcdc"/>
            <path id="Path_206" data-name="Path 206" d="M58.2,219.8s-1.7-6.5,3.2-9.5l.6-.1s5.8,6.7.4,9.6C62.4,219.8,61.3,220.8,58.2,219.8Z" fill="#7b59a4"/>
            <path id="Path_207" data-name="Path 207" d="M72.6,195.5s16.2-18.2,46.3-6.1c0,0-6.4,21.8-10,26.1,0,0-11.3,11.7-26.7,4.3C82.2,219.7,72,212.3,72.6,195.5Z" fill="#dcdcdc"/>
            <path id="Path_208" data-name="Path 208" d="M82.2,219.7s7.2-9.4,27-4.9l-2.9,18.1s-8.7,10.3-16.4,9.1-6.2-9.5-6.2-9.5S86.5,224.3,82.2,219.7Z" fill="#dcdcdc"/>
            <path id="Path_209" data-name="Path 209" d="M92.6,241.8" fill="none" stroke="#fff" stroke-miterlimit="10" stroke-width="0.083"/>
            <path id="Path_210" data-name="Path 210" d="M77.8,214.8l5.3-.3,1.5,2.9,1.7-.2.1,1.1-2.2.2-1.9-3.2-3.9.5Z" fill="#c6b1d6"/>
            <path id="Path_211" data-name="Path 211" d="M122.6,212.7s.2-3.2,4.2-3.8,7.9,3.2,7.9,3.2S125.7,208.2,122.6,212.7Z" fill="#b7b7b7"/>
            <path id="Path_212" data-name="Path 212" d="M91.3,216.6l3.1-.4,1.3-4,16.6-3.2-.9,2-14.8,2.3-1.3,4-3.8.4Z" fill="#c6b1d6"/>
            <path id="Path_213" data-name="Path 213" d="M71.8,196.3s6.4,2,7,10.8c0,0,.1,5-1.6,7.3l-14.4,5.3c-1.1.4-2.1-.6-2.6-1.7-.5-1.2-.4-2.4.7-5.5C63.5,205.7,71.8,196.3,71.8,196.3Z" fill="#dcdcdc"/>
            <path id="Path_214" data-name="Path 214" d="M72,197.2l1.3-1.2s6.1,12.8,4.1,16.7l-1.7.7C75.7,213.5,70.7,205.9,72,197.2Z"/>
            <path id="Path_215" data-name="Path 215" d="M121.7,214c.2-.5,4.5-9,13.3-1.8C148.2,223,119.5,221.4,121.7,214Z" fill="#dcdcdc"/>
            <path id="Path_216" data-name="Path 216" d="M72.6,195.5s-.8,10.9,5.1,19.4l5.4-.3,1.5,2.9,1.7-.2s3.8,22.7,2.8,24.6c0,0,1.1.7,3.6-.2,0,0,.7-17.7-1.4-25l3.1-.4,1.4-4,16.5-3.2s5.1-13.4,6.6-19.6C118.9,189.3,92.1,177,72.6,195.5Z" fill="#f0f0f0"/>
            <path id="Path_217" data-name="Path 217" d="M121.3,214.3c2.3-4.1,8.1-2.7,11.6-1.5,1.7.6,7.2,1.8,5.4,4.5s-7.4,2.4-10.1,2.4C128.2,219.7,118.7,219,121.3,214.3Z" fill="#7b59a4"/>
            <path id="Path_218" data-name="Path 218" d="M122.2,214.2s2-2.7,6.8-1.7a59.2,59.2,0,0,1,6.2,1.6c2.4.6,5.2,2.1,5,4.4s-3.6,7.7-6.5,4.6c0,0-4.8,1.5-4.5-1.9l-5-3.2s-5.2,3.1-7.7,1.7-2.9-4-.6-4.4C118.1,214.9,121.7,214.5,122.2,214.2Z" fill="#f27321"/>
            <path id="Path_219" data-name="Path 219" d="M129.4,219.3a1.268,1.268,0,0,0-.1-.6c0-.1-.1-.2-.1-.3s-.1-.2,0-.3.2.1.3.2a5.918,5.918,0,0,1,.5,1.9,3.749,3.749,0,0,1-.1,1.1,1.422,1.422,0,0,1-.2.6c0,.1-.1.2-.1.4,0,.1-.2.3-.1.3l-.1-.2a1.645,1.645,0,0,1-.1-1v-.2h0a2.966,2.966,0,0,0,.2-1.6C129.4,219.4,129.4,219.4,129.4,219.3Z" fill="#c35126"/>
            <path id="Path_220" data-name="Path 220" d="M122.8,218.7a3.326,3.326,0,0,1,1-1.6,2.316,2.316,0,0,0-1.8,2Z" fill="#c35126"/>
            <circle id="Ellipse_10" data-name="Ellipse 10" cx="3.7" cy="3.7" r="3.7" transform="translate(122.2 216.4)" fill="#f27321"/>
            <path id="Path_221" data-name="Path 221" d="M68.1,200.7s1.3,10.7,3.4,15.8l-2.3.9s-3.6-6.7-4.2-12.5Z" fill="#7b59a4"/>
            <path id="Path_222" data-name="Path 222" d="M117.7,209s7.3-6.5,9-11.7a45.731,45.731,0,0,1,3.6,5.6,43.8,43.8,0,0,1-10.8,7A9.75,9.75,0,0,0,117.7,209Z" fill="#7b59a4"/>
            <path id="Path_223" data-name="Path 223" d="M83.3,209.9a9.6,9.6,0,0,0,4.2,2.6s2-.9,3.8-4.3Z" fill="#7b59a4"/>
            <path id="Path_224" data-name="Path 224" d="M85.2,210.3l3.5-.7L87,211.4Z" fill="#c6b1d6"/>
            <path id="Path_225" data-name="Path 225" d="M73.2,194.9l.3.6,4.4-3-.4-.9Z" fill="#c6b1d6"/>
            <path id="Path_226" data-name="Path 226" d="M108.7,186.2l-1,1.4,7.6,1.6.8-1.1-2.1-.7C112.3,187.1,110.2,186.5,108.7,186.2Z" fill="#c6b1d6"/>
            <path id="Path_227" data-name="Path 227" d="M87.6,217l1.9-.3s2.5,20.8,2.3,23.7l-1.4.2S89.5,225,87.6,217Z" fill="#c6b1d6"/>
            <path id="Path_228" data-name="Path 228" d="M47.3,209.9l3.2-6.4-1.4-1-2.5,6.9Z" fill="#7b59a4"/>
            <path id="Path_229" data-name="Path 229" d="M79.7,193.1s8.4,1.8,23.2-4.3l1.9,1.6s-11.6,4.8-18.6,5.1-8.1-1.2-8.1-1.2Z" fill="#c6b1d6"/>
            <g id="Group_438" data-name="Group 438">
              <circle id="Ellipse_11" data-name="Ellipse 11" cx="0.8" cy="0.8" r="0.8" transform="translate(84.4 215.1)" fill="#7b59a4"/>
              <circle id="Ellipse_12" data-name="Ellipse 12" cx="0.5" cy="0.5" r="0.5" transform="translate(84.7 215.4)" fill="#dcdcdc"/>
              <circle id="Ellipse_13" data-name="Ellipse 13" cx="0.3" cy="0.3" r="0.3" transform="translate(84.9 215.6)" fill="#c6b1d6"/>
            </g>
            <g id="Group_439" data-name="Group 439">
              <circle id="Ellipse_14" data-name="Ellipse 14" cx="1.1" cy="1.1" r="1.1" transform="translate(91.8 213.6)" fill="#7b59a4"/>
              <circle id="Ellipse_15" data-name="Ellipse 15" cx="0.7" cy="0.7" r="0.7" transform="translate(92.2 214)" fill="#dcdcdc"/>
              <circle id="Ellipse_16" data-name="Ellipse 16" cx="0.4" cy="0.4" r="0.4" transform="translate(92.5 214.3)" fill="#c6b1d6"/>
            </g>
            <path id="Path_230" data-name="Path 230" d="M124.4,194.6a37,37,0,0,1-3.9,6.4l1.3.7a17.827,17.827,0,0,0,3.9-5.4Z" fill="#c6b1d6"/>
            <path id="Path_231" data-name="Path 231" d="M68.8,199.9l1.2-1.4s.1,4.7,1,6.9l-.9.7A18.135,18.135,0,0,1,68.8,199.9Z" fill="#c6b1d6"/>
            <path id="Path_232" data-name="Path 232" d="M79,191.2a12.692,12.692,0,0,0,6.7.4c4.2-.7,21.4-5.7,21.4-5.7l-.3-3.9s-15.2-2.9-28.3,5.9Z" fill="#7b59a4"/>
            <path id="Path_233" data-name="Path 233" d="M79.4,187.9s11.7-8,26.6-5.4C106,182.5,84.8,190.2,79.4,187.9Z"/>
            <path id="Path_234" data-name="Path 234" d="M133.7,223.1s1.5-1.1.9-3.7c0-.1.1-.1.1,0a5.037,5.037,0,0,1-.3,4.3l-.4-.3Z" fill="#c35126"/>
            <path id="Path_235" data-name="Path 235" d="M40,208.8s.8-3,2.4-3.7l1,1.1C43.5,206.2,40.5,207.8,40,208.8Z" fill="#c35126"/>
            <path id="Path_236" data-name="Path 236" d="M125,216.5s-1.7.8-1.2,1,5.1.9,4.9.4a4.535,4.535,0,0,0-2.1-1.5A2.786,2.786,0,0,0,125,216.5Z" fill="#f89c49"/>
            <g id="Group_441" data-name="Group 441">
              <g id="Group_440" data-name="Group 440">
                <path id="Path_237" data-name="Path 237" d="M85,208c-.5.1-.8.1-1-.1a1.932,1.932,0,0,1-.4-1.1v-.1a2.872,2.872,0,0,1,.2-1.2,1.865,1.865,0,0,1,1-.5h.1a1.087,1.087,0,0,0,.5-.1c.1,0,.1,0,.1-.1v-.6c0-.2.1-.2.2-.3l.3-.1h.2a.349.349,0,0,1,.1.2l.1,2.9a.749.749,0,0,1-.1.5,1.38,1.38,0,0,1-.4.3,1.445,1.445,0,0,1-.7.2Zm0-.7c.2,0,.3-.1.4-.1a.1.1,0,0,0,.1-.1v-1.2a.215.215,0,0,0-.2-.2h-.5a.764.764,0,0,0-.5.2c-.1.1-.1.3-.1.6v.1c0,.3,0,.5.1.6a.616.616,0,0,0,.7.1Z" fill="#c6b1d6"/>
                <path id="Path_238" data-name="Path 238" d="M88.2,208.3a3.751,3.751,0,0,1-1,.1.265.265,0,0,1-.3-.3v-.2c0-.2.1-.2.2-.3H88c.2,0,.4-.1.4-.2a.367.367,0,0,0,.1-.3V207h-.1a.756.756,0,0,1-.4.1h-.1c-.5.1-.8.1-1-.1a1.327,1.327,0,0,1-.3-1v-.1a1.609,1.609,0,0,1,.3-1.1,1.865,1.865,0,0,1,1-.5H88a1.624,1.624,0,0,1,1,0,.6.6,0,0,1,.3.6l.1,1.9a1.493,1.493,0,0,1-.3,1c0,.2-.4.4-.9.5Zm.3-3.3H88a.764.764,0,0,0-.5.2c-.1.1-.1.3-.1.6v.1a2.034,2.034,0,0,0,.1.5c.1.1.2.1.5,0h.1c.2,0,.3-.1.4-.1.1-.1.2-.1.1-.3v-1Z" fill="#c6b1d6"/>
              </g>
            </g>
            <g id="Group_444" data-name="Group 444">
              <path id="XMLID_325_" d="M94.6,164.6s2.9-3.6,4.4-3.1,1.3,6.2.5,6.7C98.8,168.7,94.6,164.6,94.6,164.6Z" fill="#f27321"/>
              <path id="XMLID_323_" d="M81,168s-3.7-1.8-4.8-.9,1.2,5.4,2.1,5.5C79.2,172.8,81,168,81,168Z" fill="#f27321"/>
              <path id="XMLID_322_" d="M98.6,166.3s.2-3-.4-3.7-3.4,3.1-3.4,3.1Z" fill="#603813"/>
              <path id="XMLID_321_" d="M78.5,170.9s-1.8-2.1-1.7-2.9,4.4.5,4.4.5Z" fill="#603813"/>
              <path id="XMLID_319_" d="M104.6,174.9a16.827,16.827,0,0,0-15.4-11.8c-12.6-.9-13.6,17.7-13.6,17.7l.9-.5a3.528,3.528,0,0,0,.1,3.3l.6-.6a4.321,4.321,0,0,0,2.3,3.2l.4-.3s.2,1.9,3.5.7c3.4-1.2,10.3-1.1,12.5-1.8s4.3-1.1,5.6-2.7c0,0,1.5.7,1.5.9,0,0,.6-2.1.8-3.4a1.1,1.1,0,0,1,.5.5c.3-2.4.4-1.1.2-3a.988.988,0,0,1,.6.2A6.637,6.637,0,0,0,104.6,174.9Z" fill="#f27321"/>
              <path id="XMLID_318_" d="M95,169.6s.5,1.8-3.6,3.4C91.4,173,97.8,172.8,95,169.6Z" fill="#603813"/>
              <path id="XMLID_317_" d="M79.5,173.5s0,.8,1.9,1.1C81.3,174.6,78.6,175.1,79.5,173.5Z" fill="#603813"/>
              <path id="XMLID_316_" d="M82,179.5s1,3,2.5,6.8c1.3,3.3,6.8.1,8.4-1.3,1.9-1.7.4-8.4-1.3-9.6C90,174.2,81.7,176,82,179.5Z" fill="#fcd1b7"/>
              <path id="XMLID_315_" d="M97.5,171.2s.7,1.7-3.1,3.8C94.4,175,100.7,174,97.5,171.2Z" fill="#603813"/>
              <path id="XMLID_314_" d="M78.4,174.6a2.871,2.871,0,0,0,2.1,2.7C80.5,177.2,77.2,178.2,78.4,174.6Z" fill="#603813"/>
              <path id="XMLID_313_" d="M76.1,180.6l-1.4.7a53.468,53.468,0,0,1,3.5-10.8c-.1,1.1-.3,2.7-.4,3.3-.2.8-1.3,4-.4,6.7a12.581,12.581,0,0,0,5.5,6.4c-2.9.8-3.1-.9-3.1-.9l-2.6,1.8a14.8,14.8,0,0,0-.2-4.6l-1.5,1.6A13.044,13.044,0,0,1,76.1,180.6Z" fill="#fcd1b7"/>
              <path id="XMLID_312_" d="M99.1,169.6c-1.8-2.1-2-3.5-1.9-4.1,1.7,1,2.1,1.2,5.7,4.6a7.272,7.272,0,0,1,.9.8c.3.4,3.8,2.8,3.8,2.8s-2.2.9-2.3,1c0,.1,3,2.7,3,2.8-1.7.3-1.8,1.1-3.2.5a12.2,12.2,0,0,1,.9,1.7,12.341,12.341,0,0,1,.6,1.7,16.912,16.912,0,0,1-2.6-1.1,15.052,15.052,0,0,0-.3,3.9,17.5,17.5,0,0,0-2-1.9c-1.3,1.6-3.3,2-5.6,2.7a9.684,9.684,0,0,1-2.2.4c.7-.9.6-2.2,3.5-4.2C101.7,178,102.1,173.1,99.1,169.6Z" fill="#fcd1b7"/>
              <path id="XMLID_311_" d="M81.7,182.4s.1-1.2-1.6-2.2-2.8-1.2-2.9-3.3c0,0-.5,5.2,2.4,7,2.1,1.3,3.1,1.2,3.1,1.2s-4.1-1.8-4.7-5.6a3.039,3.039,0,0,0,.5.7c.2.2.4.3.6.5a4.874,4.874,0,0,0,1.1.4,4.672,4.672,0,0,1,1,.5A1.344,1.344,0,0,1,81.7,182.4Z" fill="#603813"/>
              <path id="XMLID_310_" d="M94.8,179.3s-1-1,2-3.4c2.9-2.4,3.9-3.4,2.9-5.4,0,0,4.7,5.3,1.3,8.3a14.02,14.02,0,0,1-6.4,3.6s7.6-5.3,6.2-9.1a4.179,4.179,0,0,1-.4,1l-.9.9a14.29,14.29,0,0,1-2,1.4,20.278,20.278,0,0,0-1.8,1.3C95.3,178.3,94.7,178.8,94.8,179.3Z" fill="#603813"/>
              <path id="XMLID_309_" d="M82.8,172.3a.446.446,0,0,1-.3.4c-.2,0-.3-.2-.3-.4a.313.313,0,1,1,.6,0Z" fill="#1e1e1e"/>
              <path id="XMLID_308_" d="M82.5,172.1c0,.1-.1.2-.3.2-.1,0-.3-.1-.3-.2s.1-.2.3-.2C82.3,171.9,82.5,172,82.5,172.1Z" fill="#fff"/>
              <path id="XMLID_307_" d="M93.6,163.9l.9.3s-.3-2.6-1.7-3.2a6.626,6.626,0,0,1,1.4-2.1,2.773,2.773,0,0,0-2.3,1.3s-1.1-2.6-3.1-2.4a6.314,6.314,0,0,1,1.3,2.8s-2.9-.5-5.8-1.2c-2.5-.6-3.1-.8-3.9-1.5a12.521,12.521,0,0,0,1.7,3.1s-4.6-.6-5.6-1.5c0,0,1.4,3.5,3,4.2a7.535,7.535,0,0,1-2.7.5s1.9,1.5,3.2,1.4a4.747,4.747,0,0,0-.6,3.1,18.177,18.177,0,0,1,3.3-2.7,5.3,5.3,0,0,0-1.4,2.3s4.6-3.1,7.7-3.3l-.7,2.6c0,.1,3.4.4,5.3-3.7Z" fill="#3b2f2c"/>
              <g id="XMLID_306_">
                <path id="Path_239" data-name="Path 239" d="M89.5,179.8c2.8-1.3,4.2-3.8.9-6.6a5.622,5.622,0,0,0-8.3.8c-.8,1.4-1.9,3.3-1.3,4.9a3.164,3.164,0,0,0,4.8,1.3A5.617,5.617,0,0,0,89.5,179.8Z" fill="#fcd1b7"/>
                <path id="Path_240" data-name="Path 240" d="M83.7,180.9a3.553,3.553,0,0,1-1-.2,3.087,3.087,0,0,1-1.9-1.8c-.6-1.6.4-3.4,1.3-4.9a5.732,5.732,0,0,1,3.7-2.2,5.641,5.641,0,0,1,4.7,1.4c1.4,1.2,2.1,2.4,1.9,3.6a4.283,4.283,0,0,1-2.9,3,5.667,5.667,0,0,1-3.9.4A3.7,3.7,0,0,1,83.7,180.9Zm3-9.1a2.768,2.768,0,0,0-.9.1,5.669,5.669,0,0,0-3.6,2.1c-.9,1.5-1.8,3.3-1.3,4.9a3.023,3.023,0,0,0,1.8,1.7,3.368,3.368,0,0,0,2.9-.4h0a5.292,5.292,0,0,0,3.8-.4,4.4,4.4,0,0,0,2.8-2.9c.2-1.1-.5-2.4-1.9-3.5A4.8,4.8,0,0,0,86.7,171.8Z" fill="#603813"/>
              </g>
              <path id="XMLID_305_" d="M83.1,179.5a2.2,2.2,0,0,0-.8.1,4.875,4.875,0,0,0-.7.3,2.652,2.652,0,0,0-.6.5l-.3.3c-.1.1-.2.2-.2.3.1-.1.1-.2.2-.3l.3-.3.6-.6a2.506,2.506,0,0,1,.7-.4,2.2,2.2,0,0,1,.8-.1c.1.1.1.1,0,.2Z" fill="#603813"/>
              <path id="XMLID_304_" d="M81.5,178a1.689,1.689,0,0,0-1-.3H79.4a2.959,2.959,0,0,0-1,.2l-.5.2-.5.2.5-.2.5-.2c.3-.1.7-.2,1-.3a2.054,2.054,0,0,1,1.1,0,.749.749,0,0,1,.5.1c.2.1.3.1.5.2.1,0,.1,0,0,.1Z" fill="#603813"/>
              <path id="XMLID_303_" d="M81.7,176.3a1.205,1.205,0,0,0-.5-.5,1.493,1.493,0,0,0-.7-.3,1.854,1.854,0,0,0-.7-.2l-.4-.1-.4-.1h.4l.4.1c.2.1.5.1.7.2s.5.2.7.3c.1.1.2.1.3.2l.3.3c0,.1,0,.1-.1.1Z" fill="#603813"/>
              <path id="XMLID_302_" d="M90.5,177.5a2.353,2.353,0,0,1,.8-.2h.8c.3.1.5.1.8.2.1,0,.2.1.4.2.1.1.2.1.3.2-.1-.1-.2-.1-.4-.2-.1-.1-.2-.1-.4-.2a1.884,1.884,0,0,0-.8-.2h-.8a.908.908,0,0,0-.7.3h0c.1,0,0,0,0-.1Z" fill="#603813"/>
              <path id="XMLID_301_" d="M90.8,176a2.186,2.186,0,0,1,.5-.3c.2-.1.3-.2.5-.2a3.6,3.6,0,0,1,1.1-.2H94l.5.1.5.1-.5-.1-.5-.1H92.9a2.959,2.959,0,0,0-1,.2c-.5.2-.8.4-1.1.5Z" fill="#603813"/>
              <path id="XMLID_300_" d="M90,175.1c.1-.1.1-.2.2-.3l.3-.3c.2-.2.4-.3.6-.5a4.347,4.347,0,0,1,.7-.4l.3-.1.4-.1-.3.1-.3.2a2.092,2.092,0,0,0-.6.4,2.652,2.652,0,0,0-.6.5,2.092,2.092,0,0,0-.4.6h0c-.2,0-.2,0-.3-.1Z" fill="#603813"/>
              <path id="XMLID_299_" d="M85.7,179.9s-1.2-.4-.1-2.7A2.748,2.748,0,0,0,85.7,179.9Z" fill="#603813"/>
              <path id="XMLID_298_" d="M88.8,173.5s4.6-1,5.4-2.9c.7-1.9-4.6-4-5.7-2.9a5.874,5.874,0,0,0-1.3,4.1C87.4,172.3,88.5,173.6,88.8,173.5Z" fill="#fcd1b7"/>
              <path id="XMLID_297_" d="M87.5,169.5a4.112,4.112,0,0,1,4.7-1.4s-2.5-1.3-3.5-.7A3.019,3.019,0,0,0,87.5,169.5Z" fill="#603813"/>
              <path id="XMLID_296_" d="M83.2,174.6s-3,.2-3.7-1.3,2.2-4.6,3-3.9a5.78,5.78,0,0,1,1.4,3.3A4.2,4.2,0,0,1,83.2,174.6Z" fill="#fcd1b7"/>
              <path id="XMLID_295_" d="M80.4,170.4s1.7-1.2,2.7-.1c0,0-.3-.8-.6-.9S81.9,168.8,80.4,170.4Z" fill="#603813"/>
              <path id="XMLID_294_" d="M82.9,175.8v.2a2.223,2.223,0,0,0,.8,1.3,3.694,3.694,0,0,0,1.4.7,3.477,3.477,0,0,0,2.4-.6,3.147,3.147,0,0,0,1.3-1.7,4.025,4.025,0,0,0-.5-2.4,9.5,9.5,0,0,0-1-1.7,1.716,1.716,0,0,0-1.6-.8,2.315,2.315,0,0,0-1.4,1,3,3,0,0,0-.6,1.1,6.033,6.033,0,0,0-.6,1.9A1.644,1.644,0,0,0,82.9,175.8Z" fill="#a15a28"/>
              <path id="XMLID_293_" d="M82.9,175.8v-.3c.5.5,2.3,1.8,5.9-.6v.8a2.437,2.437,0,0,1-1.3,1.7,4.1,4.1,0,0,1-2.4.6,2.666,2.666,0,0,1-1.4-.7,2.577,2.577,0,0,1-.8-1.3C82.9,175.9,82.9,175.8,82.9,175.8Z" fill="#603813"/>
              <g id="XMLID_292_">
                <path id="Path_241" data-name="Path 241" d="M85.7,182.5a2.908,2.908,0,0,1-1.4-.3s-.1-.1,0-.1c0,0,.1-.1.1,0,0,0,1.2.7,3.6-.2a.1.1,0,0,1,0,.2A7.4,7.4,0,0,1,85.7,182.5Z" fill="#603813"/>
              </g>
              <g id="Group_442" data-name="Group 442">
                <path id="XMLID_291_" d="M88.6,170.4a3.508,3.508,0,0,1,.5-.8,2.349,2.349,0,0,1,1.4-.7,1.816,1.816,0,0,1,1.4.6,2.026,2.026,0,0,1,.4,1.5,1.589,1.589,0,0,1-.8,1,3.957,3.957,0,0,1-2.6.5c-.1,0-.5-.2-.6-.2a.764.764,0,0,1-.2-.5,2.354,2.354,0,0,1,.2-.8C88.5,170.8,88.5,170.6,88.6,170.4Z" fill="#fff"/>
                <circle id="XMLID_290_" cx="1" cy="1" r="1" transform="translate(89.716 169.5) rotate(-11.234)" fill="#502e1d"/>
                <circle id="XMLID_289_" cx="0.3" cy="0.3" r="0.3" transform="translate(90.9 169.6)" fill="#fff"/>
              </g>
              <g id="Group_443" data-name="Group 443">
                <path id="XMLID_288_" d="M82.8,171.5a2.092,2.092,0,0,0-.6-.4A1.672,1.672,0,0,0,81,171a1.085,1.085,0,0,0-.8.8,1.721,1.721,0,0,0,.2,1.2,1.374,1.374,0,0,0,.8.5,3.289,3.289,0,0,0,2-.4c.1,0,.3-.3.3-.3.1-.1,0-.3,0-.4a1,1,0,0,0-.4-.5A1.381,1.381,0,0,0,82.8,171.5Z" fill="#fff"/>
                <circle id="XMLID_287_" cx="0.7" cy="0.7" r="0.7" transform="translate(81.218 171.532) rotate(-17.614)" fill="#502e1d"/>
                <circle id="XMLID_3_" cx="0.2" cy="0.2" r="0.2" transform="translate(82.1 171.6)" fill="#fff"/>
              </g>
            </g>
            <g id="Group_445" data-name="Group 445">
              <path id="Path_242" data-name="Path 242" d="M62.1,212.6c.6-1.3,2.3-2.6,3.3-3.4a16.937,16.937,0,0,1-.6-3.8,32.576,32.576,0,0,0-2.4,4A6.951,6.951,0,0,0,62.1,212.6Z" fill="#00a564"/>
            </g>
          </g>
          <g id="Group_447" data-name="Group 447">
            <path id="Path_243" data-name="Path 243" d="M106.3,233.3s.6-1.9-2.2-2.7-10.6,2.4-12,6.5c-1.4,4.2-4.6,39.4-4.6,39.4s-11.1-3-11.7,5.3c0,0,7.2,4.1,16.7-1.7,0,0-.3-14.8,4.1-23.8C100.9,247.3,105.5,236.8,106.3,233.3Z" fill="#dbdcdd"/>
            <path id="Path_244" data-name="Path 244" d="M102.4,243.9s-7.2-4-11.6-1.4l-.3,2s6-1.7,10.9,1.8Z" fill="#bababa"/>
            <path id="Path_245" data-name="Path 245" d="M100.4,248.8s-5.9-3.8-10.1-2.1l-.1,1.4a15.67,15.67,0,0,1,9.2,2.8Z" fill="#bababa"/>
            <path id="Path_246" data-name="Path 246" d="M98.4,252.9l-.9,1.7s-4.3-3.2-7.8-2.3l.1-1.3S91.8,249.1,98.4,252.9Z" fill="#bababa"/>
            <path id="Path_247" data-name="Path 247" d="M93.7,266.7s-3.9.2-5.3-.7l-.2,1.3a7.348,7.348,0,0,0,5.4.6Z" fill="#7b59a4"/>
            <path id="Path_248" data-name="Path 248" d="M87.7,283.1s-.3-6.1-4.3-7.4c0,0-7.7-.5-8.1,6.2A17.139,17.139,0,0,0,87.7,283.1Z" fill="#f27321"/>
          </g>
          <path id="Path_249" data-name="Path 249" d="M187.3,402.7,59.5,274.9a16.479,16.479,0,0,1,0-23.1h0a16.479,16.479,0,0,1,23.1,0L210.5,379.7a16.479,16.479,0,0,1,0,23.1h0A16.509,16.509,0,0,1,187.3,402.7Z" fill="#76ccd8"/>
          <g id="Group_448" data-name="Group 448">
            <path id="Path_250" data-name="Path 250" d="M13.8,230.2l-.9-.3a.417.417,0,0,1,0-.8l.9-.3q.15,0,.3-.3l.4-1a.417.417,0,0,1,.8,0l.3,1q0,.15.3.3l1,.3a.417.417,0,0,1,0,.8l-1,.4q-.15,0-.3.3l-.3.9a.417.417,0,0,1-.8,0l-.3-.9Z" fill="#40b667"/>
          </g>
          <g id="Group_449" data-name="Group 449">
            <path id="Path_251" data-name="Path 251" d="M124.5,173.4l-1.1-.4a.539.539,0,0,1,0-1l1-.3a.319.319,0,0,0,.3-.3l.5-1.3a.539.539,0,0,1,1,0l.4,1.2q.15.3.3.3l1.2.4a.52.52,0,0,1,0,1l-1.3.5c-.1.1-.3.2-.3.3l-.3,1a.52.52,0,0,1-1,0l-.4-1.1Q124.8,173.55,124.5,173.4Z" fill="#f7bb18"/>
          </g>
          <g id="Group_450" data-name="Group 450">
            <path id="Path_252" data-name="Path 252" d="M25.2,290.6l-1.5-.5a.694.694,0,0,1,0-1.3l1.4-.4c.2-.1.4-.2.4-.4l.6-1.7a.694.694,0,0,1,1.3,0l.5,1.6c.1.2.2.4.4.4l1.6.5a.694.694,0,0,1,0,1.3l-1.7.6c-.2.1-.4.2-.4.4l-.4,1.4a.694.694,0,0,1-1.3,0l-.5-1.5C25.6,290.9,25.4,290.7,25.2,290.6Z" fill="#76ccd8"/>
          </g>
          <g id="Group_451" data-name="Group 451">
            <path id="Path_253" data-name="Path 253" d="M116.5,128h0a.619.619,0,0,0,.8.1c.6-.3,1.1.1,1.6.6s.9,1,.5,1.6a.755.755,0,0,0,.1.8h0a.722.722,0,0,0,1.1-.2,2.911,2.911,0,0,0-.6-3.5,3.089,3.089,0,0,0-3.5-.6A1.054,1.054,0,0,0,116.5,128Z" fill="#40b667"/>
          </g>
          <g id="Group_452" data-name="Group 452">
            <path id="Path_254" data-name="Path 254" d="M157.4,153.2l-1.6-1.6a1.268,1.268,0,0,1,0-1.8l1.6-1.6a1.268,1.268,0,0,1,1.8,0l1.6,1.6a1.268,1.268,0,0,1,0,1.8l-1.6,1.6A1.268,1.268,0,0,1,157.4,153.2Zm1.9-3.4-.2-.2a1.04,1.04,0,0,0-1.6,0l-.2.2a1.04,1.04,0,0,0,0,1.6l.2.2a1.04,1.04,0,0,0,1.6,0l.2-.2A1.04,1.04,0,0,0,159.3,149.8Z" fill="#ee3d60"/>
          </g>
          <g id="Group_453" data-name="Group 453">
            <path id="Path_255" data-name="Path 255" d="M48.1,165.1l1.9-3.3a.653.653,0,0,1,1.1,0l1.9,3.3a.626.626,0,0,1-.5.9H48.7C48.1,166,47.8,165.5,48.1,165.1Zm3.4-.4-.6-1.1a.385.385,0,0,0-.7,0l-.6,1.1c-.1.1,0,.2.1.2h1.7C51.5,164.9,51.6,164.8,51.5,164.7Z" fill="#ee3d60"/>
          </g>
          <g id="Group_454" data-name="Group 454">
            <path id="Path_256" data-name="Path 256" d="M35,256.3l-.5-1.7a1.661,1.661,0,0,1,.6-1.8l1.8-1.4a1.521,1.521,0,0,1,2,0l1.8,1.4a1.929,1.929,0,0,1,.6,1.8l-.5,1.7a1.712,1.712,0,0,1-1.6,1.2H36.6A1.712,1.712,0,0,1,35,256.3Zm4.5-.8.3-.9a.67.67,0,0,0-.3-.8l-1.1-.9a.908.908,0,0,0-1,0l-1.1.9a.67.67,0,0,0-.3.8l.3.9a.871.871,0,0,0,.8.6h1.7A.858.858,0,0,0,39.5,255.5Z" fill="#f7bb18"/>
          </g>
        </g>
      </g>
      <g id="logo-img" transform="translate(110.038 75.4)">
        <path id="Path_257" data-name="Path 257" d="M6.5,23.4c-2.7,0-4.5-.6-5.5-1.7C0,20.5-.3,18.5.2,15.5l.1-.7C.9,11.6,1.7,9.5,3,8.4S6.2,6.7,8.9,6.7h.6c.5,0,1.4.1,2.9.2.3.1.5-.1.6-.5l.6-3.5a1.5,1.5,0,0,1,1.5-1.3h1.7a.975.975,0,0,1,.9.4,1.163,1.163,0,0,1,.2,1L15,18.8a6.941,6.941,0,0,1-1,2.7A4.869,4.869,0,0,1,11.7,23a16.346,16.346,0,0,1-4.3.5H6.5Zm1-3.8a10.611,10.611,0,0,0,2.1-.2,1.934,1.934,0,0,0,.9-.5,3.374,3.374,0,0,0,.4-1.2l1-5.7a.971.971,0,0,0-.6-1.2,7.845,7.845,0,0,0-2.2-.2H8.7a3.616,3.616,0,0,0-2.8.9,6.644,6.644,0,0,0-1.2,3.3l-.1.7c-.3,1.6-.3,2.8.1,3.3.4.6,1.2.8,2.5.8h.3Z" fill="#f7bb18"/>
        <path id="Path_258" data-name="Path 258" d="M24.4,23.4c-2.8,0-4.6-.6-5.6-1.8s-1.2-3.3-.7-6.2l.1-.8c.6-3,1.4-5.1,2.7-6.2,1.2-1.1,3.2-1.6,5.9-1.6h.3c2.7,0,4.6.5,5.6,1.4,1,1,1.3,2.6.9,4.9l-.2.9a3.083,3.083,0,0,1-.9,1.8,2.981,2.981,0,0,1-2,.5H22.7a.53.53,0,0,0-.6.6c-.2,1.1-.1,1.8.3,2.2a3.475,3.475,0,0,0,2.4.6h.5a13.689,13.689,0,0,0,3.4-.4,12.306,12.306,0,0,1,2.1-.4.975.975,0,0,1,.9.4,1.163,1.163,0,0,1,.2,1l-.2.9c-.1.5-.2.8-.5,1a2.257,2.257,0,0,1-1.1.5,21.208,21.208,0,0,1-5.2.6h-.5ZM22.8,13.1c-.1.4.1.5.4.5h5.5c.4,0,.6-.2.6-.5a3.352,3.352,0,0,0-.2-2.4q-.45-.6-2.4-.6h-.5a4.183,4.183,0,0,0-2.5.6A6.308,6.308,0,0,0,22.8,13.1Z" fill="#f7bb18"/>
        <path id="Path_259" data-name="Path 259" d="M37.3,23.3H35.6a.975.975,0,0,1-.9-.4,1.163,1.163,0,0,1-.2-1L37.8,3a1.5,1.5,0,0,1,1.5-1.3H41a.975.975,0,0,1,.9.4.959.959,0,0,1,.2.9L38.8,22A1.316,1.316,0,0,1,37.3,23.3Z" fill="#f7bb18"/>
        <path id="Path_260" data-name="Path 260" d="M45.9,22a1.418,1.418,0,0,1-1.5,1.2H42.8a.975.975,0,0,1-.9-.4,1.163,1.163,0,0,1-.2-1L44.1,8.2a1.423,1.423,0,0,1,1.5-1.3h1.7a1.222,1.222,0,0,1,.9.3.778.778,0,0,1,.2.8Z" fill="#f7bb18"/>
        <path id="Path_261" data-name="Path 261" d="M49.1,4.2c-.2,1.1-.7,1.7-1.5,1.7H45.9a.975.975,0,0,1-.9-.4,1.163,1.163,0,0,1-.2-1l.3-1.6a1.5,1.5,0,0,1,1.5-1.3h1.7a1.222,1.222,0,0,1,.9.3.618.618,0,0,1,.2.7Z" fill="#f7bb18"/>
        <path id="Path_262" data-name="Path 262" d="M55.1,28.4a21.18,21.18,0,0,1-5.4-.6,1.293,1.293,0,0,1-1.1-1.7l.2-1a1.418,1.418,0,0,1,1.5-1.2,15.16,15.16,0,0,1,1.9.4,12.423,12.423,0,0,0,3.3.4h.2a5.88,5.88,0,0,0,2.6-.4,2.053,2.053,0,0,0,1-1.5q.15-.45,0-.6c-.1-.1-.3-.1-.6-.1-.9.1-1.7.2-2.3.2h-.5c-2.6,0-4.4-.6-5.4-1.7-1-1.2-1.3-3.1-.8-5.8l.1-.7c.5-2.8,1.4-4.7,2.6-5.8,1.2-1,3.2-1.5,5.9-1.5H59c2.7,0,4.6.4,5.5,1.2,1,.8,1.3,1.9,1.1,3.5L63.8,22c-.4,2.4-1.2,4.1-2.5,5-1.2.9-3.1,1.4-5.7,1.4Zm5.4-17.6a6.816,6.816,0,0,0-2.1-.2H58a4.369,4.369,0,0,0-2.9.8,6.114,6.114,0,0,0-1.2,3l-.1.6c-.2,1.4-.2,2.4.2,2.9s1.2.7,2.6.7H57a14.042,14.042,0,0,0,2.3-.2,1.5,1.5,0,0,0,1.1-1.2l.8-4.4a2.4,2.4,0,0,0,0-1.2A.858.858,0,0,0,60.5,10.8Z" fill="#f7bb18"/>
        <path id="Path_263" data-name="Path 263" d="M69.2,23.3H67.4a.909.909,0,0,1-.8-.4.9.9,0,0,1-.2-.9l2-11.3a5.844,5.844,0,0,1,1-2.7,4.51,4.51,0,0,1,2.4-1,13.855,13.855,0,0,1,3-.3H75a12.217,12.217,0,0,1,3.2.3q1.35.3,1.2,1.5l-.2,1.2A1.423,1.423,0,0,1,77.7,11c-.2,0-.6-.1-1.2-.2a11.019,11.019,0,0,0-1.8-.2h-.1a6.882,6.882,0,0,0-1.3.2c-.3.1-.6.2-.7.4a6.891,6.891,0,0,0-.3.8L70.6,22a1.346,1.346,0,0,1-.5.9A1.222,1.222,0,0,1,69.2,23.3Z" fill="#f7bb18"/>
        <path id="Path_264" data-name="Path 264" d="M81.8,11.3a.975.975,0,0,1-.9-.4,1.232,1.232,0,0,1-.2-1.1l.2-.8a2.028,2.028,0,0,1,1.6-1.6,23.278,23.278,0,0,1,5.3-.6c2.7,0,4.5.5,5.4,1.6s1.1,3.1.5,6.1l-.7,4a5.284,5.284,0,0,1-2.1,3.8c-1.1.7-2.9,1.1-5.5,1.1h-.8c-2.3,0-4-.4-5-1.3-1-.8-1.3-2.2-1-4l.1-.6a4.712,4.712,0,0,1,2-3.3,9.234,9.234,0,0,1,4.6-1H86a30.285,30.285,0,0,1,3.1.2c.4.1.6-.1.7-.5a2.273,2.273,0,0,0-.3-2.1,3.174,3.174,0,0,0-2.3-.6,12.193,12.193,0,0,0-3.2.4A6.328,6.328,0,0,1,81.8,11.3Zm7.1,6.1a.82.82,0,0,0,0-.7.6.6,0,0,0-.6-.3,12.734,12.734,0,0,0-2.2-.2h-.3a3.694,3.694,0,0,0-2.1.4,1.96,1.96,0,0,0-.8,1.4v.2a1.71,1.71,0,0,0,.3,1.5,2.973,2.973,0,0,0,1.9.4h.3a12.482,12.482,0,0,0,2.1-.2,1.884,1.884,0,0,0,.9-.4,1.88,1.88,0,0,0,.4-1Z" fill="#f7bb18"/>
        <path id="Path_265" data-name="Path 265" d="M96.1,23.3a.975.975,0,0,1-.9-.4,1.163,1.163,0,0,1-.2-1l2-11.5a5.027,5.027,0,0,1,.9-2.2,3.44,3.44,0,0,1,2.2-.9,57.486,57.486,0,0,1,9.1-.5c1.4,0,2.6,0,3.6.1s2,.2,2.8.3a10.33,10.33,0,0,1,2.1.7,4.486,4.486,0,0,1,1.3,1,3.606,3.606,0,0,1,.8,1.5,11.245,11.245,0,0,1,.2,2,8.082,8.082,0,0,1-.4,2.5l-1.2,7.2a1.5,1.5,0,0,1-1.5,1.3h-1.6a.975.975,0,0,1-.9-.4,1.163,1.163,0,0,1-.2-1l1-5.9a11.294,11.294,0,0,0,.3-3.4,2.065,2.065,0,0,0-1-1.6,7.644,7.644,0,0,0-3.1-.4.53.53,0,0,0-.6.6l-2,10.7a1.3,1.3,0,0,1-1.5,1.2h-1.6a.975.975,0,0,1-.9-.4,1.163,1.163,0,0,1-.2-1l1.9-10.7q.15-.6-.6-.6c-1.3,0-2.4.1-3.5.2a1.88,1.88,0,0,0-1,.4,2.3,2.3,0,0,0-.4,1.1L99.2,22a1.418,1.418,0,0,1-1.5,1.2H96.1Z" fill="#f7bb18"/>
      </g>
    </g>
  </g>
</svg>
