<?xml version="1.0" encoding="utf-8"?>
<!DOCTYPE svg PUBLIC "-//W3C//DTD SVG 1.1//EN" "http://www.w3.org/Graphics/SVG/1.1/DTD/svg11.dtd">
<svg version="1.1" id="Layer_1" xmlns="http://www.w3.org/2000/svg" xmlns:xlink="http://www.w3.org/1999/xlink" x="0px" y="0px" class="Svg__icon"
	 viewBox="0 0 46 30" enable-background="new 0 0 46 30" xml:space="preserve">
	<g>
		<rect x="0.1" y="0" fill="#8B3392" width="46" height="30"/>
		<polygon fill="#FFFFFF" points="32.1,5.2 26.7,10.9 27,14.1 28,11.9 31.1,16.1 35.5,2.1 21,8.4 24.9,10.5 	"/>
		<g>
			<path fill="#FFFFFF" d="M27.4,15.2c0,0-4.6,0-5.7,0c-4.4,0.7-4.8,7.4-0.1,8.3h5.8v-6c1.9,0.1,2.3,2.6,0.9,3.5
				c0.3,0.4,1.4,1.7,1.4,1.7C32.7,19.9,31,15.5,27.4,15.2z M25.2,21.2c0,0-3,0-3.2,0c-2,0.1-2.6-3.3-0.2-3.8c0.7,0,3.4,0,3.4,0
				L25.2,21.2L25.2,21.2z"/>
		</g>
		<path fill="#FFFFFF" d="M39.4,18.2c-0.9,0-2.1,0-2.1,0l-0.9,2.2c0,0,2.4,0,2.7,0c0.5,0,0.6,0.8,0,0.8c-0.7,0-4.7,0-4.7,0v-3.8h7.2
			v-2.3c0,0-1,0-1.1,0c-0.3-4.7-5.6-4.8-7-2.3c0.3,0.2,1.6,1.4,1.6,1.4c0.8-1.3,3-1.3,3.4,0.8h-6.1v8.3h6.9c1.6,0,2.3-1.2,2.4-2.3
			C41.7,19.6,40.7,18.5,39.4,18.2z"/>
		<path fill="#FFFFFF" d="M18.9,15.2h-2.8c-0.9,1.1-2.4,5.7,0.6,9.1c0,0,1.3-1.2,1.6-1.4C17.4,22,15.8,18.1,18.9,15.2z"/>
		<ellipse fill="#FFFFFF" cx="10.1" cy="24.4" rx="1.8" ry="1.8"/>
		<g>
			<g>
				<path fill="#FFFFFF" d="M8.1,15.2c-4.4,0.7-4.8,7.4-0.1,8.3h0.1c0.3-0.8,1.1-1.4,2-1.4s1.6,0.5,2,1.4h1.8c0-0.3,0-8.3,0-8.3
					S9.2,15.2,8.1,15.2z M11.7,21.2c0,0-3,0-3.2,0c-2,0.1-2.6-3.3-0.2-3.8c0.7,0,3.4,0,3.4,0L11.7,21.2L11.7,21.2z"/>
			</g>
		</g>
		<g>
			<g>
				<g>
					<path fill="#FFFFFF" d="M10.2,13.3c0.7-0.1,1.1-1.7-0.1-2c-0.1,0-1.9,0-1.9,0v2.9H9v-0.9l0.9,0.9H11L10.2,13.3z M10.1,12.3
						c0,0.1-0.1,0.2-0.2,0.2H9v-0.4h0.9C10,12.1,10.1,12.1,10.1,12.3L10.1,12.3z"/>
				</g>
			</g>
			<g>
				<g>
					<path fill="#FFFFFF" d="M12.3,11.2c-0.8,0-1.4,0.7-1.4,1.5s0.6,1.5,1.4,1.5s1.4-0.7,1.4-1.5S13.1,11.2,12.3,11.2z M12.3,13.3
						c-0.3,0-0.6-0.3-0.6-0.6c0-0.4,0.3-0.6,0.6-0.6c0.3,0,0.6,0.3,0.6,0.6C13,13.1,12.7,13.3,12.3,13.3z"/>
				</g>
			</g>
			<path fill="#FFFFFF" d="M20.3,12.1h1.3v-0.8h-1.1c-0.8,0-1.5,0.7-1.5,1.5s0.7,1.5,1.5,1.5h1.1v-0.8h-1.3c-0.2,0-0.3-0.1-0.5-0.2
				h1.7v-0.8h-1.7C19.9,12.2,20.1,12.1,20.3,12.1z"/>
			<g>
				<path fill="#FFFFFF" d="M15.3,13.3c-0.3,0-0.6-0.3-0.6-0.6v0c0-0.3,0.3-0.6,0.6-0.6h1.2v-0.8h-1.1c-0.8,0-1.5,0.7-1.5,1.5
					s0.7,1.5,1.5,1.5h1.1v-0.8L15.3,13.3L15.3,13.3z"/>
			</g>
			<polygon fill="#FFFFFF" points="24.4,11.3 21.7,11.3 21.7,12.1 22.7,12.1 22.7,14.1 23.5,14.1 23.5,12.1 24.4,12.1 		"/>
			<polygon fill="#FFFFFF" points="18,12.7 19.3,11.3 18.3,11.3 17.5,12.1 17.5,11.3 16.8,11.3 16.8,14.1 17.5,14.1 17.5,13.3 
				18.3,14.1 19.4,14.1 		"/>
		</g>
		<g>
			<path fill="#FFFFFF" d="M28.9,24.9c-0.1,0-0.2,0.1-0.3,0.2c-0.1,0.1-0.1,0.2-0.1,0.4c0,0.1,0,0.1,0.1,0.2c0,0.1,0.1,0.2,0.1,0.2
				c0,0,0.1,0,0.1-0.1l0.1,0.2c-0.1,0-0.1,0.1-0.2,0.1c-0.1,0-0.2,0-0.3-0.1c-0.1,0-0.1-0.1-0.1-0.2c0-0.1,0-0.1,0-0.2v-0.1
				c0-0.2,0.1-0.4,0.3-0.6c0,0,0.1-0.1,0.2-0.2H29L28.9,24.9C29,24.9,28.9,24.9,28.9,24.9z"/>
			<path fill="#FFFFFF" d="M30.1,24.9v1.2h-0.2v-0.2c0-0.1,0-0.1-0.1-0.2c-0.1-0.1-0.1-0.1-0.2-0.1c-0.1-0.1-0.1-0.1-0.2-0.1
				s-0.1,0-0.2,0.1v0c0,0,0,0.1,0.1,0.1s0.1,0,0.1,0c0,0,0.1,0,0.2-0.1l0.1,0.2C29.4,26,29.4,26,29.3,26s-0.1,0-0.2-0.1
				c-0.1,0-0.1-0.1-0.1-0.2c0,0,0-0.1,0-0.1c0-0.1,0.1-0.2,0.2-0.3c0.1-0.1,0.1-0.1,0.2-0.1h0c0,0,0-0.1-0.1-0.1
				c0-0.1-0.1-0.1-0.1-0.1h-0.3v-0.1h-0.1v-0.2h1.5v0.2L30.1,24.9L30.1,24.9z M29.9,24.9h-0.5c0.1,0.1,0.2,0.2,0.2,0.4
				c0.1,0,0.2,0.1,0.3,0.2V24.9z"/>
			<path fill="#FFFFFF" d="M30.6,24.9v1.2h-0.2v-1.2h-0.2v-0.2h0.5v0.2H30.6z"/>
			<path fill="#FFFFFF" d="M31.7,24.9h-1v-0.2H32v0.2h-0.1v1.2h-0.2c0-0.1-0.1-0.2-0.3-0.3c-0.1-0.1-0.2-0.1-0.3-0.2
				c-0.1-0.1-0.2-0.1-0.3-0.1l-0.1-0.2c0.1,0,0.2-0.1,0.4-0.2C31.3,25.1,31.4,25,31.7,24.9z M31.7,25.1c0,0-0.1,0-0.1,0.1
				c-0.1,0-0.2,0.1-0.4,0.2l-0.1,0c0.2,0.1,0.3,0.2,0.5,0.3c0,0,0,0,0.1,0L31.7,25.1L31.7,25.1z"/>
			<path fill="#FFFFFF" d="M32.3,24.9v1.2h-0.2v-1.2h-0.2v-0.2h0.5v0.2H32.3z"/>
			<path fill="#FFFFFF" d="M32.4,24.9v-0.2h0.7c0,0,0,0,0,0c0-0.1-0.1-0.2-0.1-0.2c0,0,0,0-0.1,0s-0.1,0-0.1,0c-0.1,0-0.1,0-0.1,0
				c0,0-0.1,0-0.1,0c0,0-0.1,0.1-0.1,0.1l-0.1-0.2c0.1-0.1,0.2-0.1,0.3-0.1c0.1,0,0.1,0,0.2,0c0.1,0,0.1,0,0.2,0.1
				c0.1,0.1,0.2,0.2,0.2,0.4h0.1v0.2H32.4z M33.2,26.3c-0.1-0.1-0.2-0.2-0.3-0.2c-0.1,0-0.1-0.1-0.3-0.1c-0.1,0-0.1-0.1-0.2-0.1v-0.3
				c0,0,0.1,0,0.1,0c0,0,0.1,0,0.1,0c0.1,0,0.2,0,0.3,0c0.1-0.1,0.2-0.1,0.2-0.2s0-0.1-0.1-0.1c-0.1,0-0.1-0.1-0.1-0.1h0
				c0,0-0.1,0-0.1,0c0,0-0.1,0-0.1,0.1c0,0.1,0.1,0.1,0.2,0.1l-0.1,0.2c-0.1,0-0.1,0-0.1-0.1c-0.1-0.1-0.1-0.2-0.1-0.2
				c0-0.1,0.1-0.2,0.1-0.2c0.1,0,0.2-0.1,0.3-0.1c0.1,0,0.1,0,0.1,0c0,0,0.1,0,0.1,0.1c0.1,0.1,0.2,0.2,0.2,0.4
				c0,0.1-0.1,0.2-0.1,0.3c-0.1,0.1-0.2,0.1-0.3,0.1c0,0,0.1,0.1,0.2,0.1c0.1,0.1,0.2,0.2,0.3,0.3L33.2,26.3z"/>
			<path fill="#FFFFFF" d="M34.8,24.9v1.2h-0.2v-0.5c0,0,0-0.1-0.1-0.1c0,0-0.1-0.1-0.1-0.1c0,0-0.1,0-0.1,0.1c0,0.1-0.1,0.1-0.1,0.1
				H34c0-0.1,0-0.1-0.1-0.2c0-0.1-0.1-0.1-0.1-0.1c0,0-0.1,0-0.1,0c0,0-0.1,0.1-0.1,0.1v0.1v0c0,0.1,0.1,0.2,0.2,0.2c0,0,0.1,0,0.1,0
				L33.8,26c-0.1,0-0.1,0-0.1,0c-0.1,0-0.2,0-0.3-0.1c0,0-0.1-0.1-0.1-0.2s0-0.1,0-0.2c0-0.1,0-0.2,0.1-0.3c0.1-0.1,0.2-0.1,0.3-0.1
				s0.2,0.1,0.3,0.2c0.1-0.1,0.2-0.2,0.3-0.2c0.1,0,0.1,0,0.1,0.1v-0.4h-1.2v-0.2h1.6V24.9L34.8,24.9L34.8,24.9z"/>
			<path fill="#FFFFFF" d="M36.5,24.9h-1v-0.2h1.4v0.2h-0.1v1.2h-0.2c0-0.1-0.1-0.2-0.3-0.3c-0.1-0.1-0.2-0.1-0.3-0.2
				c-0.1-0.1-0.2-0.1-0.3-0.1l-0.1-0.2c0.1,0,0.2-0.1,0.4-0.2C36.1,25.1,36.3,25,36.5,24.9z M36.5,25.1c0,0-0.1,0-0.1,0.1
				c-0.1,0-0.2,0.1-0.4,0.2l-0.1,0c0.2,0.1,0.3,0.2,0.5,0.3c0,0,0,0,0.1,0L36.5,25.1L36.5,25.1z"/>
			<path fill="#FFFFFF" d="M37.3,24.9c-0.1,0.1-0.1,0.2-0.1,0.3c0,0,0,0.2,0.1,0.4c0,0.1,0.1,0.2,0.1,0.3c0,0.1-0.1,0.2-0.2,0.3
				c-0.1,0-0.1,0-0.2,0l0-0.2c0.1,0,0.2-0.1,0.2-0.2s0-0.1-0.1-0.3c-0.1-0.1-0.1-0.2-0.1-0.3c0-0.1,0-0.2,0.1-0.3h-0.2v-0.2h0.6v0.2
				C37.4,24.9,37.3,24.9,37.3,24.9z"/>
			<path fill="#FFFFFF" d="M37.8,24.9v1.2h-0.2v-1.2h-0.2v-0.2h0.5v0.2H37.8z"/>
			<path fill="#FFFFFF" d="M38.3,25.4c-0.1,0-0.2,0-0.3-0.1c-0.1-0.1-0.1-0.2-0.1-0.3c0-0.1,0-0.2,0.1-0.3c0.1-0.1,0.1-0.1,0.3-0.1
				c0.1,0,0.2,0.1,0.3,0.2c0,0.1,0,0.1,0,0.2c0,0.1,0,0.2-0.1,0.2C38.5,25.4,38.4,25.4,38.3,25.4z M38.6,26.2
				c-0.3-0.2-0.5-0.4-0.6-0.5v-0.3c0.4,0.3,0.7,0.5,0.8,0.7v0.2L38.6,26.2z M38.3,25C38.3,24.9,38.3,24.9,38.3,25
				c-0.1,0-0.2,0-0.2,0.1c0,0,0,0.1,0,0.1c0,0,0.1,0.1,0.1,0.1h0c0.1,0,0.1-0.1,0.1-0.1C38.4,25.1,38.4,25,38.3,25z"/>
			<path fill="#FFFFFF" d="M40.2,24.5c-0.3-0.2-0.5-0.3-0.7-0.3c-0.2,0-0.3,0.1-0.4,0.2c0,0.1-0.1,0.1-0.1,0.2h0.2v0.2H39v1.2h-0.2
				v-1.2h-0.1v-0.2h0.1c0-0.2,0.1-0.3,0.2-0.4c0.1-0.1,0.2-0.2,0.4-0.2c0,0,0.1,0,0.1,0h0.1c0.1,0,0.3,0,0.4,0.1
				c0.1,0,0.2,0.1,0.4,0.2L40.2,24.5z"/>
			<path fill="#FFFFFF" d="M40,24.9L40,24.9c0.1,0,0.2,0,0.3,0.1c0.1,0.1,0.2,0.2,0.2,0.3c0,0.1,0,0.1-0.1,0.2
				c-0.1,0.1-0.1,0.1-0.2,0.1c-0.1,0-0.1,0-0.2,0v-0.2c0,0,0.1,0,0.1,0c0.1,0,0.2,0,0.2-0.1c0-0.1-0.1-0.2-0.3-0.2v1h-0.2
				c0-0.1-0.1-0.1-0.1-0.2c0,0,0-0.1-0.1-0.1c0,0,0-0.1-0.1-0.1c0,0-0.1-0.1-0.1-0.1c0,0,0,0-0.1,0c-0.1,0-0.2-0.1-0.2-0.1l-0.1-0.2
				c0.1,0,0.2-0.1,0.3-0.2c0,0,0.1,0,0.2-0.1c0,0,0.1-0.1,0.2-0.1v0h-0.7v-0.2h1.6v0.2C40.6,24.9,40,24.9,40,24.9z M39.8,25.2
				c0,0-0.1,0.1-0.2,0.1c0,0,0,0-0.1,0.1c0,0-0.1,0.1-0.1,0.1c0,0,0.1,0.1,0.1,0.1c0.1,0.1,0.1,0.1,0.2,0.2L39.8,25.2L39.8,25.2z"/>
			<path fill="#FFFFFF" d="M40.9,25.4c-0.1,0-0.2,0-0.3-0.1c-0.1-0.1-0.1-0.2-0.1-0.3c0-0.1,0-0.2,0.1-0.3c0.1-0.1,0.1-0.1,0.3-0.1
				c0.1,0,0.2,0.1,0.3,0.2c0,0.1,0,0.1,0,0.2c0,0.1,0,0.2-0.1,0.2C41.1,25.4,41,25.4,40.9,25.4z M41.2,26.2c-0.3-0.2-0.5-0.4-0.6-0.5
				v-0.3c0.4,0.3,0.7,0.5,0.8,0.7v0.2L41.2,26.2z M41,25C40.9,24.9,40.9,24.9,41,25c-0.1,0-0.2,0-0.2,0.1c0,0,0,0.1,0,0.1
				c0,0,0.1,0.1,0.1,0.1h0c0.1,0,0.1-0.1,0.1-0.1C41.1,25.1,41,25,41,25z"/>
		</g>
		<g>
			<polygon fill="#FFFFFF" points="15.8,26.2 16.2,26.3 16.4,26.2 15.9,26 		"/>
			<g>
				<path fill="#FFFFFF" d="M15.9,24.9v-0.3h-3.3v0.3h0.5v0.6c0,0,0.4,0,0.5,0c0,0,0.1-0.1,0.2-0.1c0,0.1,0,0.2,0,0.2
					c0,0.1-0.1,0.2-0.2,0.2s-0.7,0-0.7,0c0,0-0.1,0-0.1-0.2c0-0.2,0-0.6,0-0.6h-0.3c0,0,0,0.7,0,0.7c0,0.1,0,0.3,0.2,0.3
					c0.2,0,0.9,0,0.9,0c0.1,0,0.3-0.2,0.3-0.3c0-0.3,0-0.7,0-0.7h-0.2c0,0.1,0,0.2-0.1,0.2c-0.1,0-0.3,0-0.3,0v-0.4h0.8v1.1h0.3v-1.1
					h0.3v1.1c0,0,0.9,0,0.9,0c0.1,0,0.3-0.1,0.3-0.3s0-0.7,0-0.7h-0.2c0,0.1,0,0.2-0.1,0.2c-0.1,0-0.6,0-0.6,0v-0.3L15.9,24.9
					L15.9,24.9z M15.5,25.5c0,0,0.1-0.1,0.1-0.1c0,0.1,0,0.2,0,0.3c0,0.1-0.1,0.2-0.1,0.2c-0.1,0-0.6,0-0.6,0v-0.4
					C15,25.5,15.5,25.5,15.5,25.5z"/>
			</g>
			<rect x="16.2" y="25.3" fill="#FFFFFF" width="0.6" height="0.3"/>
			<g>
				<path fill="#FFFFFF" d="M17.1,24.7v0.3H18v0.1h-0.9c0,0,0,0.6,0,0.6c0,0.2,0.1,0.4,0.3,0.4c0.2,0,0.8,0,0.8,0v-1.1h0.2v1.1h0.3
					v-1.4H17.1z M18,25.9c0,0-0.5,0-0.6,0c-0.1,0-0.1-0.1-0.1-0.2s0-0.3,0-0.3H18V25.9z"/>
			</g>
			<path fill="#FFFFFF" d="M19.9,24.9h1.1v0.1c-0.1,0-0.3,0-0.3,0c0,0.1-0.2,0.2-0.2,0c-0.2,0-0.6,0-0.6,0s0,0.6,0,0.7
				c0,0.1,0,0.3,0.2,0.3c0.2,0,0.5,0,0.5,0v-0.2c0,0-0.3,0-0.3,0s-0.1,0-0.1-0.1c0-0.1,0-0.4,0-0.4h0.3v0.2h0.3v-0.2
				c0-0.1,0.3-0.1,0.3,0c0,0.1,0,0.7,0,0.7h0.3V25h0.2v1.1h0.3v-1.4h-1.8V24.9z"/>
			<g>
				<g>
					<path fill="#FFFFFF" d="M19.5,24.8c-0.1,0-0.6,0-0.6,0s0,0.3,0,0.4c0,0.1,0.1,0.3,0.3,0.3c0.2,0,0.5,0,0.5,0v-0.5
						C19.7,24.9,19.6,24.8,19.5,24.8z M19.4,25.1c-0.1,0-0.2,0-0.2-0.1c0-0.1,0.1-0.1,0.2-0.1c0.1,0,0.2,0,0.2,0.1
						C19.5,25.1,19.4,25.1,19.4,25.1z"/>
				</g>
			</g>
			<polygon fill="#FFFFFF" points="19,25.5 19,25.8 19.7,26.1 19.7,25.8 		"/>
			<g>
				<g>
					<path fill="#FFFFFF" d="M25.6,24.8c-0.1,0-0.6,0-0.6,0s0,0.3,0,0.4c0,0.1,0.1,0.3,0.3,0.3c0.2,0,0.5,0,0.5,0v-0.5
						C25.8,24.9,25.7,24.8,25.6,24.8z M25.4,25.1c-0.1,0-0.2,0-0.2-0.1c0-0.1,0.1-0.1,0.2-0.1c0.1,0,0.2,0,0.2,0.1
						C25.6,25.1,25.5,25.1,25.4,25.1z"/>
				</g>
			</g>
			<polygon fill="#FFFFFF" points="25,25.5 25,25.8 25.8,26.1 25.8,25.8 		"/>
			<path fill="#FFFFFF" d="M27.2,25.1V25h0.5v-0.3H26V25h0.9v0.1H26c0,0,0,0.6,0,0.6c0,0.2,0.1,0.4,0.3,0.4c0.2,0,0.8,0,0.8,0v-0.7
				h0.2c0,0,0.1,0,0.1,0s0,0.1,0,0.1c0,0.1,0,0.1-0.1,0.1c0,0-0.1,0-0.1,0v0.2h0.2c0.1,0,0.2-0.1,0.2-0.1c0-0.1,0-0.6,0-0.6
				L27.2,25.1L27.2,25.1z M26.9,25.9c0,0-0.5,0-0.6,0c-0.1,0-0.1-0.1-0.1-0.2s0-0.3,0-0.3h0.7v0l0,0L26.9,25.9L26.9,25.9z"/>
			<g>
				<path fill="#FFFFFF" d="M22.5,24.7v0.3h0.9v0.1h-0.9c0,0,0,0.6,0,0.6c0,0.2,0.1,0.4,0.3,0.4c0.2,0,0.8,0,0.8,0v-1.1h0.3l-0.1,0.2
					v0.1c0,0,0.2,0,0.2,0c0.1,0,0.1,0.1,0.1,0.3c0,0.1,0,0.2-0.1,0.2c-0.1,0-0.2,0-0.2,0V26c0,0,0.1,0,0.2,0c0.1,0,0.3,0,0.3-0.2
					c0-0.5,0.1-0.7-0.3-0.7l0.1-0.2h0.4V26h0.3v-1.4L22.5,24.7L22.5,24.7z M23.4,25.9c0,0-0.5,0-0.6,0c-0.1,0-0.1-0.1-0.1-0.2
					s0-0.3,0-0.3h0.7V25.9z"/>
			</g>
		</g>
	</g>
</svg>
