<svg xmlns="http://www.w3.org/2000/svg" xmlns:xlink="http://www.w3.org/1999/xlink" width="53" height="22" viewBox="0 0 53 22">
  <g>
    <path fill="#fff" d="M52.67,10.61l-.1.54a3.6,3.6,0,0,1-1.18,2.23,2.75,2.75,0,0,1,.18,1.71l-.11.54a3.068,3.068,0,0,1-.95,1.77,3.772,3.772,0,0,1-1.47.74.433.433,0,0,0-.05.01,15.981,15.981,0,0,1-3.61.39H45.1a6.756,6.756,0,0,1-4.34-1.23,2.774,2.774,0,0,1-2.55,1.51H37.17a2.706,2.706,0,0,1-2.16-1.04,2.747,2.747,0,0,1-.26-.4,2.832,2.832,0,0,1-2.6,1.45H31.12a2.718,2.718,0,0,1-2.17-1.03,2.961,2.961,0,0,1-.28-.44,2.825,2.825,0,0,1-2.57,1.47H25.06a1.765,1.765,0,0,1-.56-.08,2.573,2.573,0,0,1-1.61-.98,1.808,1.808,0,0,1-.19-.29,6.792,6.792,0,0,1-2.42.93c-.03.01-.06.01-.09.02a17.262,17.262,0,0,1-1.84.16h-.53a6.631,6.631,0,0,1-4.47-1.35,2.788,2.788,0,0,1-2.44,1.3H9.89a2.641,2.641,0,0,1-2.15-1.02,2.73,2.73,0,0,1-.5-2.21l.27-1.52-.5-.01-.42,2.36v.04a2.836,2.836,0,0,1-2.87,2.36H2.7A2.641,2.641,0,0,1,.55,17.52a2.767,2.767,0,0,1-.5-2.21L2.09,3.77a.037.037,0,0,1,.01-.03A2.819,2.819,0,0,1,4.96,1.35H6a2.678,2.678,0,0,1,2.08.93v.01a2.678,2.678,0,0,1,.57,2.18v.02L8.11,7.56l.5.01.66-3.8a.037.037,0,0,0,.01-.03,2.838,2.838,0,0,1,2.87-2.39h1.03a2.628,2.628,0,0,1,2.66,3.09v.05l-.1.58a8.615,8.615,0,0,1,3.5-.64h.72c2.19,0,3.72.52,4.69,1.6.05-.05.09-.1.14-.15a4.211,4.211,0,0,1,2.52-1.15,43.756,43.756,0,0,1,6.04-.35c.85,0,1.66.02,2.42.07h.04a17.01,17.01,0,0,1,1.98.24,6.5,6.5,0,0,1,1.87.63,4.726,4.726,0,0,1,1.4,1.09c.01.02.03.03.04.05a4.112,4.112,0,0,1,.53-.57,7.049,7.049,0,0,1,4.9-1.51h.19c2.21,0,3.77.46,4.79,1.42C52.65,6.87,53.04,8.49,52.67,10.61Z" transform="translate(0.001)"/>
    <g>
      <path fill="#fdc113" d="M373.724,255.566a.675.675,0,0,0-.547-.225h-1.036a.844.844,0,0,0-.9.773l-.9,5.1a.455.455,0,0,1-.456.376l-3.63-.077a.453.453,0,0,1-.437-.533l.855-4.85a.641.641,0,0,0-.679-.8h-1.036a.844.844,0,0,0-.9.773l-2.037,11.558a.739.739,0,0,0,.113.622.669.669,0,0,0,.566.245h1.019a.84.84,0,0,0,.905-.755l.646-3.664a.455.455,0,0,1,.456-.376l3.63.077a.453.453,0,0,1,.437.533l-.585,3.317a.739.739,0,0,0,.113.622.669.669,0,0,0,.566.245H370.9a.84.84,0,0,0,.906-.755l2.055-11.65A.683.683,0,0,0,373.724,255.566Z" transform="translate(-359.993 -251.994)"/>
      <path fill="#fdc113" d="M347.622,275.319q-.844-1.009-3.276-1.009h-.717a5.336,5.336,0,0,0-3.583,1.009,6.507,6.507,0,0,0-1.616,3.858l-.071.428q-.434,2.735.478,3.8t3.372,1.066h.525a14.387,14.387,0,0,0,1.555-.14,4.377,4.377,0,0,0,2.085-.926,6.043,6.043,0,0,0,1.63-3.8l.06-.428Q348.467,276.328,347.622,275.319Zm-2.218,3.862-.055.434a3.7,3.7,0,0,1-.659,2.023,1.689,1.689,0,0,1-.965.457,6.448,6.448,0,0,1-.91.06h-.031l-.1,0v0h-.09q-1.2,0-1.526-.517a3.136,3.136,0,0,1-.046-2.023l.077-.434a4.145,4.145,0,0,1,.747-2.031,2.267,2.267,0,0,1,1.7-.52h.19q1.214,0,1.542.52A3.407,3.407,0,0,1,345.4,279.182Z" transform="translate(-324.385 -267.883)"/>
      <path fill="#fdc113" d="M548.745,284.165q-2.528,0-3.422-1.113t-.424-3.79l.075-.472A6.685,6.685,0,0,1,546.6,275a5.285,5.285,0,0,1,3.573-1h.189a5.048,5.048,0,0,1,3.422.877q.934.877.557,3.007l-.094.547a1.636,1.636,0,0,1-.566,1.094,2,2,0,0,1-1.207.321h-4.751a.354.354,0,0,0-.377.34,1.616,1.616,0,0,0,.179,1.357,1.963,1.963,0,0,0,1.462.4h.3a9.283,9.283,0,0,0,2.045-.245,10.845,10.845,0,0,1,1.254-.245.648.648,0,0,1,.547.245.739.739,0,0,1,.113.623l-.113.566a1.05,1.05,0,0,1-.3.632,1.616,1.616,0,0,1-.66.311,13.812,13.812,0,0,1-3.149.34Zm-.961-6.316q-.057.321.264.321h3.375a.347.347,0,0,0,.377-.321,1.941,1.941,0,0,0-.113-1.462q-.3-.368-1.47-.368h-.283a2.283,2.283,0,0,0-1.5.4A2.415,2.415,0,0,0,547.784,277.848Z" transform="translate(-503.646 -267.622)"/>
      <path fill="#fdc113" d="M470.153,37.929a.709.709,0,0,1-.587-.255.764.764,0,0,1-.115-.638l1.276-7.238a2.474,2.474,0,0,1,.587-1.391,2.344,2.344,0,0,1,1.379-.574,40.987,40.987,0,0,1,5.757-.332c.881,0,1.647.026,2.3.064a16.2,16.2,0,0,1,1.762.217,4.584,4.584,0,0,1,1.3.421,2.91,2.91,0,0,1,.842.651,2.085,2.085,0,0,1,.472.932,4.7,4.7,0,0,1,.115,1.238,8.259,8.259,0,0,1-.23,1.6l-.779,4.532a.9.9,0,0,1-.932.791h-1.034a.683.683,0,0,1-.574-.255.764.764,0,0,1-.115-.638l.664-3.727a6.252,6.252,0,0,0,.191-2.145,1.193,1.193,0,0,0-.664-1.008,5.145,5.145,0,0,0-1.94-.255.386.386,0,0,0-.408.37l-1.213,6.893a.846.846,0,0,1-.957.779h-1.034a.709.709,0,0,1-.587-.255.764.764,0,0,1-.115-.638l1.2-6.778c.038-.243-.077-.37-.357-.37a15.356,15.356,0,0,0-2.234.153,1.251,1.251,0,0,0-.651.255,1.275,1.275,0,0,0-.255.7l-1.085,6.153a.865.865,0,0,1-.932.779h-1.047Z" transform="translate(-445.094 -21.122)"/>
    </g>
  </g>
</svg>
