<svg xmlns="http://www.w3.org/2000/svg" xmlns:xlink="http://www.w3.org/1999/xlink" width="60" height="22" viewBox="0 0 60 22">
  <g>
    <path fill="#fff" d="M59.69,11.68l-.08.43v.01a8.2,8.2,0,0,1-2.54,4.95,7.673,7.673,0,0,1-5.02,1.52h-.53a9.616,9.616,0,0,1-3.15-.41,4.274,4.274,0,0,1-1.43-.82,4.361,4.361,0,0,1-2.3.97c-.77.12-1.63.2-2.63.26h-.36a16.41,16.41,0,0,1-2.74-.22,6.405,6.405,0,0,1-1.84-.61,4.825,4.825,0,0,1-.96-.67,2.8,2.8,0,0,1-2.54,1.45H32.55a2.655,2.655,0,0,1-2.15-1.02,2.725,2.725,0,0,1-.49-2.21l.27-1.52-.5-.01-.42,2.36c0,.01-.01.03-.01.04a2.825,2.825,0,0,1-2.86,2.36H25.37a2.628,2.628,0,0,1-2.07-.93,5.425,5.425,0,0,1-1.81,2.49,7.623,7.623,0,0,1-4.64,1.22h-.32a14.412,14.412,0,0,1-3.8-.43,2.8,2.8,0,0,1-2.16-3.03,5.381,5.381,0,0,1-.85.34,10.672,10.672,0,0,1-3.2.4H5.99c-.04,0-.08-.01-.12-.01-2.21-.02-3.78-.6-4.77-1.76C.08,15.64-.22,13.87.17,11.41V11.4l.07-.43C.63,8.58,1.37,6.93,2.51,5.94a7.236,7.236,0,0,1,4.9-1.51h.34c.09,0,.23,0,.45.01l.13-.71V3.69A2.858,2.858,0,0,1,11.22,1.3h1.01a2.664,2.664,0,0,1,2.15,1.03,2.754,2.754,0,0,1,.49,2.21l-.04.25a8.748,8.748,0,0,1,3.62-.65h.45c2.16,0,3.62.36,4.61,1.13a4.038,4.038,0,0,1,.83.89l.42-2.39V3.74a2.836,2.836,0,0,1,2.87-2.39h1.03a2.663,2.663,0,0,1,2.08.93.01.01,0,0,0,.01.01,2.678,2.678,0,0,1,.57,2.18.035.035,0,0,0-.01.02l-.54,3.07.5.01.67-3.8c0-.01.01-.02.01-.03a2.835,2.835,0,0,1,2.86-2.39h1.04a2.678,2.678,0,0,1,2.08.93,2.711,2.711,0,0,1,.58,2.16.09.09,0,0,1-.01.05l-.02.1H39.5a2.622,2.622,0,0,1,2.15,1.03,2.731,2.731,0,0,1,.49,2.2L41.5,11.4a.292.292,0,0,1-.02.09,7.654,7.654,0,0,0-.14.85c.22-.01.43-.02.63-.04l.94-5.31c0-.01.01-.03.01-.04a2.828,2.828,0,0,1,2.87-2.36H46.8a2.509,2.509,0,0,1,.67.08l.15-.84a2.964,2.964,0,0,1,.98-1.78,2.924,2.924,0,0,1,1.98-.75h1.01a2.624,2.624,0,0,1,2.07.9,2.636,2.636,0,0,1,.54,2.2v.03h.07c2.3,0,3.86.58,4.8,1.77C59.99,7.39,60.19,9.13,59.69,11.68Z"/>
    <g transform="translate(1286 -3180.7)">
      <g transform="translate(-1284 3184)">
        <path fill="#bbb" d="M512.082,268.343a7.908,7.908,0,0,1-2.493-.3,1.683,1.683,0,0,1-1.1-.9,3.089,3.089,0,0,1-.047-1.652l1.706-9.577a1.013,1.013,0,0,1,.335-.621.948.948,0,0,1,.651-.245h1.012q.769,0,.641.773l-.391,2.151c-.035.237.068.336.308.3q1.354-.094,1.787-.094h.34q2.431,0,3.221,1.009t.233,3.858l-.083.428a6.427,6.427,0,0,1-1.841,3.8,5.775,5.775,0,0,1-3.754,1.066h-.527Zm.979-2.32a2.348,2.348,0,0,0,1.71-.517,3.887,3.887,0,0,0,.77-2.023l.079-.434a3.377,3.377,0,0,0-.019-2.031q-.3-.519-1.514-.52h-.242a6.454,6.454,0,0,0-1.416.148.812.812,0,0,0-.651.722l-.632,3.468a1.367,1.367,0,0,0-.008.726.6.6,0,0,0,.453.33,4.661,4.661,0,0,0,1.243.132Z" transform="translate(-462.559 -255.05)"/>
        <path fill="#bbb" d="M437.511,283.824a2.062,2.062,0,0,0,.462.9,3.026,3.026,0,0,0,.821.63,4.428,4.428,0,0,0,1.262.406,14.193,14.193,0,0,0,2.61.192c.923-.053,1.743-.132,2.457-.239a2.28,2.28,0,0,0,1.338-.556,2.468,2.468,0,0,0,.566-1.349l1.232-6.994a.739.739,0,0,0-.113-.623.669.669,0,0,0-.566-.245h-1.019a.84.84,0,0,0-.905.755l-1.047,5.941a1.248,1.248,0,0,1-.245.678,1.161,1.161,0,0,1-.624.245,13.932,13.932,0,0,1-1.638.138,3.85,3.85,0,0,1-1.343-.233,1.187,1.187,0,0,1-.638-.981,5.948,5.948,0,0,1,.189-2.074l.635-3.6a.744.744,0,0,0-.11-.623.652.652,0,0,0-.555-.245h-1a.872.872,0,0,0-.905.764l-.753,4.375a7.868,7.868,0,0,0-.226,1.542A4.451,4.451,0,0,0,437.511,283.824Z" transform="translate(-402.775 -272.664)"/>
        <path fill="#bbb" d="M373.724,255.566a.675.675,0,0,0-.547-.225h-1.036a.844.844,0,0,0-.9.773l-.9,5.1a.455.455,0,0,1-.456.376l-3.63-.077a.453.453,0,0,1-.437-.533l.855-4.85a.641.641,0,0,0-.679-.8h-1.036a.844.844,0,0,0-.9.773l-2.037,11.558a.739.739,0,0,0,.113.622.669.669,0,0,0,.566.245h1.019a.84.84,0,0,0,.905-.755l.646-3.664a.455.455,0,0,1,.456-.376l3.63.077a.453.453,0,0,1,.437.533l-.585,3.317a.739.739,0,0,0,.113.622.669.669,0,0,0,.566.245H370.9a.84.84,0,0,0,.906-.755l2.055-11.65A.683.683,0,0,0,373.724,255.566Z" transform="translate(-339.327 -255.294)"/>
      </g>
      <g transform="translate(-1284 3184.003)">
        <path fill="#888" d="M288.94,286.311a12.612,12.612,0,0,1-3.265-.358.816.816,0,0,1-.679-1.038l.094-.6a.838.838,0,0,1,.9-.755c.063,0,.443.091,1.144.274a7.972,7.972,0,0,0,2.008.273h.151a3.508,3.508,0,0,0,1.567-.264,1.265,1.265,0,0,0,.629-.943.453.453,0,0,0-.019-.358c-.05-.063-.17-.088-.357-.075a10.72,10.72,0,0,1-1.426.113h-.3a4.25,4.25,0,0,1-3.3-1.064q-.939-1.064-.487-3.513l.079-.426a5.838,5.838,0,0,1,1.6-3.509,5.588,5.588,0,0,1,3.586-.934h.451a5.785,5.785,0,0,1,3.38.706,2.057,2.057,0,0,1,.657,2.135l-1.118,6.447a4.573,4.573,0,0,1-1.511,3.061,5.858,5.858,0,0,1-3.462.832h-.322ZM292.2,275.6a4.887,4.887,0,0,0-1.28-.151h-.23a2.592,2.592,0,0,0-1.756.461,3.257,3.257,0,0,0-.725,1.813l-.06.338a2.464,2.464,0,0,0,.116,1.77q.342.446,1.6.445h.248a5.268,5.268,0,0,0,1.393-.151.853.853,0,0,0,.668-.755l.5-2.713a1.341,1.341,0,0,0,0-.717A.68.68,0,0,0,292.2,275.6Z" transform="translate(-274.414 -270.291)"/>
        <path fill="#888" d="M221.8,268.36q-2.462,0-3.372-1.066t-.478-3.8l.071-.428a6.507,6.507,0,0,1,1.616-3.858,5.333,5.333,0,0,1,3.583-1.009h.34q.434,0,1.753.094a.328.328,0,0,0,.415-.3l.38-2.151a.852.852,0,0,1,.918-.773h1.012a.665.665,0,0,1,.563.245.735.735,0,0,1,.112.621l-1.726,9.577a3.836,3.836,0,0,1-.638,1.652,2.737,2.737,0,0,1-1.418.9,9.023,9.023,0,0,1-2.6.3H221.8Zm.6-2.32a5.229,5.229,0,0,0,1.291-.132.968.968,0,0,0,.571-.33,1.641,1.641,0,0,0,.253-.726l.612-3.468q.113-.592-.391-.722a5.685,5.685,0,0,0-1.363-.148h-.242a2.26,2.26,0,0,0-1.7.52,4.145,4.145,0,0,0-.747,2.031l-.077.434a3.138,3.138,0,0,0,.046,2.023q.328.519,1.526.517Z" transform="translate(-217.809 -255.07)"/>
      </g>
    </g>
  </g>
</svg>
