<svg xmlns="http://www.w3.org/2000/svg" xmlns:xlink="http://www.w3.org/1999/xlink" width="126" height="22" viewBox="0 0 126 22">
  <g>
    <path d="M125.6,8.26a.219.219,0,0,0-.03.05l-7.69,11.94a2.707,2.707,0,0,1-2.36,1.35h-1.84a2.321,2.321,0,0,1-2.04-1.19,2.416,2.416,0,0,1,.1-2.46c0-.01,0-.01.01-.02l1.85-2.91-.67-4.07a2.863,2.863,0,0,1-.73.09,5.62,5.62,0,0,1-1.14-.17c-.1-.02-.19-.04-.28-.05l-.92,5.3a2.873,2.873,0,0,1-1.01,1.76,2.916,2.916,0,0,1-1.86.66h-1.07a2.6,2.6,0,0,1-2.04-.94v-.01l-.01-.01a3.7,3.7,0,0,1-1.22.56.433.433,0,0,0-.05.01,15.981,15.981,0,0,1-3.61.39h-.28c-2.31,0-3.99-.62-4.98-1.86a4.719,4.719,0,0,1-.98-2.49l-1.46,2.43a3.354,3.354,0,0,1-3.01,1.78H86.34a2.862,2.862,0,0,1-2.78-2.3c-.01-.05-.02-.11-.03-.16l-.08-.66-.12.7v.04a2.824,2.824,0,0,1-2.85,2.37h-1a2.615,2.615,0,0,1-1.79-.67,2.823,2.823,0,0,1-1.88.67h-1a2.667,2.667,0,0,1-1.9-.76,3.961,3.961,0,0,1-1.16.51.433.433,0,0,0-.05.01,15.981,15.981,0,0,1-3.61.39h-.28c-2.31,0-3.99-.62-4.98-1.86a3.387,3.387,0,0,1-.34-.5,5.007,5.007,0,0,1-.44.48,6.969,6.969,0,0,1-5.15,1.87H52.83a2.746,2.746,0,0,1-2.09-1.06.761.761,0,0,1-.12-.19.6.6,0,0,1-.11.12,3.772,3.772,0,0,1-1.47.74.433.433,0,0,0-.05.01,15.981,15.981,0,0,1-3.61.39H45.1a6.756,6.756,0,0,1-4.34-1.23,2.774,2.774,0,0,1-2.55,1.51H37.17a2.706,2.706,0,0,1-2.16-1.04,2.747,2.747,0,0,1-.26-.4,2.832,2.832,0,0,1-2.6,1.45H31.12a2.718,2.718,0,0,1-2.17-1.03,2.961,2.961,0,0,1-.28-.44,2.825,2.825,0,0,1-2.57,1.47H25.06a1.765,1.765,0,0,1-.56-.08,2.573,2.573,0,0,1-1.61-.98,1.808,1.808,0,0,1-.19-.29,6.792,6.792,0,0,1-2.42.93c-.03.01-.06.01-.09.02a17.262,17.262,0,0,1-1.84.16h-.53a6.631,6.631,0,0,1-4.47-1.35,2.788,2.788,0,0,1-2.44,1.3H9.89a2.641,2.641,0,0,1-2.15-1.02,2.73,2.73,0,0,1-.5-2.21l.27-1.52-.5-.01-.42,2.36v.04a2.836,2.836,0,0,1-2.87,2.36H2.7A2.641,2.641,0,0,1,.55,17.52a2.767,2.767,0,0,1-.5-2.21L2.09,3.77a.037.037,0,0,1,.01-.03A2.819,2.819,0,0,1,4.96,1.35H6a2.678,2.678,0,0,1,2.08.93v.01a2.678,2.678,0,0,1,.57,2.18v.02L8.11,7.56l.5.01.66-3.8a.037.037,0,0,0,.01-.03,2.838,2.838,0,0,1,2.87-2.39h1.03a2.628,2.628,0,0,1,2.66,3.09v.05l-.1.58a8.615,8.615,0,0,1,3.5-.64h.72c2.19,0,3.72.52,4.69,1.6.05-.05.09-.1.14-.15a4.211,4.211,0,0,1,2.52-1.15,43.756,43.756,0,0,1,6.04-.35c.85,0,1.66.02,2.42.07h.04a17.01,17.01,0,0,1,1.98.24,6.5,6.5,0,0,1,1.87.63,4.726,4.726,0,0,1,1.4,1.09c.01.02.03.03.04.05a4.112,4.112,0,0,1,.53-.57,7.049,7.049,0,0,1,4.9-1.51h.19c2.21,0,3.77.46,4.79,1.42.11.11.22.22.32.34l.38-2.23a2.867,2.867,0,0,1,2.76-2.54h3.87a6.967,6.967,0,0,1,5.02,2.42,5.353,5.353,0,0,1,.91,1.76,7.481,7.481,0,0,1,4.47-1.17h.19A7.26,7.26,0,0,1,73.86,5.5l.31-1.81V3.67a2.842,2.842,0,0,1,2.88-2.42h1.04a2.736,2.736,0,0,1,1.67.54A2.832,2.832,0,0,1,81.79,1h1.02a2.743,2.743,0,0,1,1.98.77,2.39,2.39,0,0,1,.65,2.28l-.08.43H86.6a2.429,2.429,0,0,1,2.48,2.18l.09.65.91-1.45a2.932,2.932,0,0,1,2.64-1.37h1.29c.03,0,.06.01.09.01a2.61,2.61,0,0,1,1.87.85,7.849,7.849,0,0,1,4.17-.97h.19c2.21,0,3.77.46,4.79,1.42a2.825,2.825,0,0,1,.33.37,2.04,2.04,0,0,1,.23-.27,4.585,4.585,0,0,1,2.46-1.19,10.146,10.146,0,0,1,2.25-.24h.11a9.826,9.826,0,0,1,2.47.24,2.776,2.776,0,0,1,.51.17,2.7,2.7,0,0,1,1.53-.43h1.35a2.415,2.415,0,0,1,2.43,2.02l.08.4.66-1.06a2.7,2.7,0,0,1,2.35-1.36h1.65a2.38,2.38,0,0,1,2.12,1.21A2.6,2.6,0,0,1,125.6,8.26Z" transform="translate(0.001)" fill="#fff"/>
    <g transform="translate(1168 -3180.7)">
      <g>
        <path fill="#fdc113" d="M.945,3.79H2.787A.709.709,0,0,0,3.435,3.4L11.156-8.583c.167-.278.125-.777-.353-.777H9.15a.68.68,0,0,0-.63.389L5.131-3.581,4.094-8.971a.424.424,0,0,0-.463-.389H2.274c-.72,0-.709.5-.653.777L2.964-.359.7,3.2C.519,3.493.649,3.79.945,3.79Z" transform="translate(-1055.269 3196.51)"/>
        <path fill="#fdc113" d="M610.532,284.679h-1.067a.608.608,0,0,1-.5-.217.636.636,0,0,1-.121-.538l1.214-6.881a3.333,3.333,0,0,1,.605-1.622,2.865,2.865,0,0,1,1.441-.623,8.349,8.349,0,0,1,1.824-.189h.113a8.4,8.4,0,0,1,1.979.17q.849.207.717.943l-.113.717a.809.809,0,0,1-.887.736,4.582,4.582,0,0,1-.707-.123,5.034,5.034,0,0,0-1.085-.123h-.038a4.228,4.228,0,0,0-.811.094.75.75,0,0,0-.424.234,1.166,1.166,0,0,0-.179.516l-1.064,6.148a.869.869,0,0,1-.31.549A.9.9,0,0,1,610.532,284.679Z" transform="translate(-1671.543 2912.564)"/>
        <path fill="#fdc113" d="M548.745,284.165q-2.528,0-3.422-1.113t-.424-3.79l.075-.472A6.685,6.685,0,0,1,546.6,275a5.285,5.285,0,0,1,3.573-1h.189a5.048,5.048,0,0,1,3.422.877q.934.877.557,3.007l-.094.547a1.636,1.636,0,0,1-.566,1.094,2,2,0,0,1-1.207.321h-4.751a.354.354,0,0,0-.377.34,1.616,1.616,0,0,0,.179,1.357,1.963,1.963,0,0,0,1.462.4h.3a9.283,9.283,0,0,0,2.045-.245,10.845,10.845,0,0,1,1.254-.245.648.648,0,0,1,.547.245.739.739,0,0,1,.113.623l-.113.566a1.05,1.05,0,0,1-.3.632,1.616,1.616,0,0,1-.66.311,13.812,13.812,0,0,1-3.149.34Zm-.961-6.316q-.057.321.264.321h3.375a.347.347,0,0,0,.377-.321,1.941,1.941,0,0,0-.113-1.462q-.3-.368-1.47-.368h-.283a2.283,2.283,0,0,0-1.5.4A2.415,2.415,0,0,0,547.784,277.848Z" transform="translate(-1618.036 2913.078)"/>
        <path fill="#fdc113" d="M3.553,0H5.489a1.382,1.382,0,0,0,1.23-.7l4.99-8.308a.552.552,0,0,0-.488-.9H9.962c-.63.011-.862.224-.958.4L5.136-3.392,4.3-9.506a.446.446,0,0,0-.5-.416H2.216a.621.621,0,0,0-.486.757l1,8.467A.852.852,0,0,0,3.553,0Z" transform="translate(-1085.209 3197.1)"/>
        <path fill="#fdc113" d="M208.691,12.733a.831.831,0,0,1-.884.761h-.994a.657.657,0,0,1-.552-.246.735.735,0,0,1-.11-.614l1.436-8.287a.848.848,0,0,1,.909-.786h1.044a.7.7,0,0,1,.54.2.515.515,0,0,1,.11.5Zm1.952-11.074c-.1.675-.405,1.007-.921,1.007H208.7a.651.651,0,0,1-.675-.835L208.2.873A.851.851,0,0,1,209.121.1h1.019a.782.782,0,0,1,.565.184.421.421,0,0,1,.111.442Z" transform="translate(-1295.328 3183.6)"/>
        <path fill="#fdc113" d="M208.691,12.733a.831.831,0,0,1-.884.761h-.994a.657.657,0,0,1-.552-.246.735.735,0,0,1-.11-.614l1.988-11.5a.848.848,0,0,1,.909-.786h1.044a.7.7,0,0,1,.54.2.515.515,0,0,1,.11.5Z" transform="translate(-1299.999 3183.6)"/>
        <path fill="#fdc113" d="M548.745,284.165q-2.528,0-3.422-1.113t-.424-3.79l.075-.472A6.685,6.685,0,0,1,546.6,275a5.285,5.285,0,0,1,3.573-1h.189a5.048,5.048,0,0,1,3.422.877q.934.877.557,3.007l-.094.547a1.636,1.636,0,0,1-.566,1.094,2,2,0,0,1-1.207.321h-4.751a.354.354,0,0,0-.377.34,1.616,1.616,0,0,0,.179,1.357,1.963,1.963,0,0,0,1.462.4h.3a9.283,9.283,0,0,0,2.045-.245,10.845,10.845,0,0,1,1.254-.245.648.648,0,0,1,.547.245.739.739,0,0,1,.113.623l-.113.566a1.05,1.05,0,0,1-.3.632,1.616,1.616,0,0,1-.66.311,13.812,13.812,0,0,1-3.149.34Zm-.961-6.316q-.057.321.264.321h3.375a.347.347,0,0,0,.377-.321,1.941,1.941,0,0,0-.113-1.462q-.3-.368-1.47-.368h-.283a2.283,2.283,0,0,0-1.5.4A2.415,2.415,0,0,0,547.784,277.848Z" transform="translate(-1648.935 2913.078)"/>
        <path fill="#fdc113" d="M.94,1.961c.059,0,4.068,0,4.068,0,3.312,0,4.839-1.711,5.575-5.227.224-1.053.352-1.786.512-2.877.528-3.328-1.668-4.845-4.311-5.058H3.074a.88.88,0,0,0-.774.827L.351.971A.711.711,0,0,0,.94,1.961ZM3.227-.353l1.443-8.49H6.507c2,0,2.35,1.083,2.094,2.775-.16,1.072-.288,1.711-.512,2.8C7.721-1.517,7.154-.353,5.144-.353Z" transform="translate(-1116.108 3195.267)"/>
      </g>
      <g>
        <path fill="#793592" d="M548.745,284.165q-2.528,0-3.422-1.113t-.424-3.79l.075-.472A6.685,6.685,0,0,1,546.6,275a5.285,5.285,0,0,1,3.573-1h.189a5.048,5.048,0,0,1,3.422.877q.934.877.557,3.007l-.094.547a1.636,1.636,0,0,1-.566,1.094,2,2,0,0,1-1.207.321h-4.751a.354.354,0,0,0-.377.34,1.616,1.616,0,0,0,.179,1.357,1.963,1.963,0,0,0,1.462.4h.3a9.283,9.283,0,0,0,2.045-.245,10.845,10.845,0,0,1,1.254-.245.648.648,0,0,1,.547.245.739.739,0,0,1,.113.623l-.113.566a1.05,1.05,0,0,1-.3.632,1.616,1.616,0,0,1-.66.311,13.812,13.812,0,0,1-3.149.34Zm-.961-6.316q-.057.321.264.321h3.375a.347.347,0,0,0,.377-.321,1.941,1.941,0,0,0-.113-1.462q-.3-.368-1.47-.368h-.283a2.283,2.283,0,0,0-1.5.4A2.415,2.415,0,0,0,547.784,277.848Z" transform="translate(-1671.646 2913.078)"/>
        <path fill="#793592" d="M470.153,37.929a.709.709,0,0,1-.587-.255.764.764,0,0,1-.115-.638l1.276-7.238a2.474,2.474,0,0,1,.587-1.391,2.344,2.344,0,0,1,1.379-.574,40.987,40.987,0,0,1,5.757-.332c.881,0,1.647.026,2.3.064a16.2,16.2,0,0,1,1.762.217,4.584,4.584,0,0,1,1.3.421,2.91,2.91,0,0,1,.842.651,2.085,2.085,0,0,1,.472.932,4.7,4.7,0,0,1,.115,1.238,8.259,8.259,0,0,1-.23,1.6l-.779,4.532a.9.9,0,0,1-.932.791h-1.034a.683.683,0,0,1-.574-.255.764.764,0,0,1-.115-.638l.664-3.727a6.252,6.252,0,0,0,.191-2.145,1.193,1.193,0,0,0-.664-1.008,5.145,5.145,0,0,0-1.94-.255.386.386,0,0,0-.408.37l-1.213,6.893a.846.846,0,0,1-.957.779h-1.034a.709.709,0,0,1-.587-.255.764.764,0,0,1-.115-.638l1.2-6.778c.038-.243-.077-.37-.357-.37a15.356,15.356,0,0,0-2.234.153,1.251,1.251,0,0,0-.651.255,1.275,1.275,0,0,0-.255.7l-1.085,6.153a.865.865,0,0,1-.932.779h-1.047Z" transform="translate(-1613.095 3159.578)"/>
        <path fill="#793592" d="M347.622,275.319q-.844-1.009-3.276-1.009h-.717a5.336,5.336,0,0,0-3.583,1.009,6.507,6.507,0,0,0-1.616,3.858l-.071.428q-.434,2.735.478,3.8t3.372,1.066h.525a14.387,14.387,0,0,0,1.555-.14,4.377,4.377,0,0,0,2.085-.926,6.043,6.043,0,0,0,1.63-3.8l.06-.428Q348.467,276.328,347.622,275.319Zm-2.218,3.862-.055.434a3.7,3.7,0,0,1-.659,2.023,1.689,1.689,0,0,1-.965.457,6.448,6.448,0,0,1-.91.06h-.031l-.1,0v0h-.09q-1.2,0-1.526-.517a3.136,3.136,0,0,1-.046-2.023l.077-.434a4.145,4.145,0,0,1,.747-2.031,2.267,2.267,0,0,1,1.7-.52h.19q1.214,0,1.542.52A3.407,3.407,0,0,1,345.4,279.182Z" transform="translate(-1492.385 2912.817)"/>
        <path fill="#793592" d="M373.724,255.566a.675.675,0,0,0-.547-.225h-1.036a.844.844,0,0,0-.9.773l-.9,5.1a.455.455,0,0,1-.456.376l-3.63-.077a.453.453,0,0,1-.437-.533l.855-4.85a.641.641,0,0,0-.679-.8h-1.036a.844.844,0,0,0-.9.773l-2.037,11.558a.739.739,0,0,0,.113.622.669.669,0,0,0,.566.245h1.019a.84.84,0,0,0,.905-.755l.646-3.664a.455.455,0,0,1,.456-.376l3.63.077a.453.453,0,0,1,.437.533l-.585,3.317a.739.739,0,0,0,.113.622.669.669,0,0,0,.566.245H370.9a.84.84,0,0,0,.906-.755l2.055-11.65A.683.683,0,0,0,373.724,255.566Z" transform="translate(-1527.993 2928.706)"/>
      </g>
    </g>
  </g>
</svg>
